<svg width="312" height="312" viewBox="0 0 312 312" fill="none" xmlns="http://www.w3.org/2000/svg">
<circle cx="156" cy="156" r="154.5" stroke="#B79069" stroke-width="3"/>
<line x1="156.5" y1="3" x2="156.5" y2="310" stroke="#B79069" stroke-width="3"/>
<line x1="289.75" y1="80.2988" x2="22.8156" y2="234.549" stroke="#B79069" stroke-width="3"/>
<line x1="287.247" y1="235.298" x2="21.3125" y2="81.0475" stroke="#B79069" stroke-width="3"/>
<path fill-rule="evenodd" clip-rule="evenodd" d="M93.0494 37.375C93.9784 37.375 94.7315 38.1095 94.7315 39.0155L94.7315 49.5144C94.7315 50.4204 93.9784 51.1549 93.0494 51.1549C92.1204 51.1549 91.3673 50.4204 91.3673 49.5144L91.3673 39.0155C91.3673 38.1095 92.1204 37.375 93.0494 37.375ZM117.047 37.375C117.976 37.375 118.729 38.1095 118.729 39.0155L118.729 49.5144C118.729 50.4204 117.976 51.1549 117.047 51.1549C116.118 51.1549 115.365 50.4204 115.365 49.5144L115.365 39.0155C115.365 38.1095 116.118 37.375 117.047 37.375ZM85.6482 45.9054C83.5722 45.9054 81.9477 47.5546 81.9477 49.5144L81.9477 55.092L128.261 55.092V49.5144C128.261 47.4898 126.57 45.9054 124.56 45.9054L122.093 45.9054C121.164 45.9054 120.411 45.171 120.411 44.2649C120.411 43.3589 121.164 42.6245 122.093 42.6245L124.56 42.6245C128.382 42.6245 131.625 45.6334 131.625 49.5144L131.625 83.5267C131.625 87.2539 128.54 90.4167 124.56 90.4167L85.6482 90.4167C81.8265 90.4167 78.5835 87.4077 78.5835 83.5267L78.5835 49.5144C78.5835 45.7873 81.6688 42.6245 85.6482 42.6245H88.2274C89.1564 42.6245 89.9095 43.3589 89.9095 44.2649C89.9095 45.171 89.1564 45.9054 88.2274 45.9054H85.6482ZM81.9477 58.3729L81.9477 83.5267C81.9477 85.5514 83.6387 87.1357 85.6482 87.1357L124.56 87.1357C126.636 87.1357 128.261 85.4865 128.261 83.5267L128.261 58.3729L81.9477 58.3729ZM96.6378 44.2649C96.6378 43.3589 97.3909 42.6245 98.3199 42.6245L111.889 42.6245C112.818 42.6245 113.571 43.3589 113.571 44.2649C113.571 45.171 112.818 45.9054 111.889 45.9054L98.3199 45.9054C97.3909 45.9054 96.6378 45.171 96.6378 44.2649ZM97.9835 64.1692C97.9835 63.2632 98.7366 62.5288 99.6656 62.5288L113.209 62.5288L105.499 82.2519C105.168 83.0985 104.196 83.5231 103.328 83.2004C102.46 82.8776 102.024 81.9297 102.355 81.0831L108.326 65.8097L99.6656 65.8097C98.7366 65.8097 97.9835 65.0752 97.9835 64.1692Z" fill="#B79069"/>
<path fill-rule="evenodd" clip-rule="evenodd" d="M53.5 133.469C44.4512 133.469 37.4311 139.136 36.2331 146.031H42.3333C43.4897 146.031 44.4271 146.969 44.4271 148.125L44.4271 167.667C44.4271 168.823 43.4897 169.76 42.3333 169.76L33.9583 169.76C29.7184 169.76 26.2813 166.323 26.2813 162.083L26.2813 153.708C26.2813 150.158 28.6908 147.171 31.9636 146.293C33.0285 136.511 42.5393 129.281 53.5 129.281C64.4607 129.281 73.9715 136.511 75.0364 146.293C78.3092 147.171 80.7188 150.158 80.7188 153.708L80.7188 162.083C80.7188 165.643 78.2957 168.637 75.0089 169.506C74.1135 175.959 68.5744 180.927 61.875 180.927H58.6775C57.8492 182.973 55.8432 184.417 53.5 184.417C50.4164 184.417 47.9167 181.917 47.9167 178.833C47.9167 175.75 50.4164 173.25 53.5 173.25C55.8432 173.25 57.8492 174.693 58.6775 176.74H61.875C66.1653 176.74 69.76 173.762 70.7052 169.76L64.6667 169.76C63.5103 169.76 62.5729 168.823 62.5729 167.667L62.5729 148.125C62.5729 146.969 63.5103 146.031 64.6667 146.031L70.7669 146.031C69.5689 139.136 62.5488 133.469 53.5 133.469ZM33.9583 150.219C32.0311 150.219 30.4688 151.781 30.4688 153.708L30.4688 162.083C30.4688 164.011 32.0311 165.573 33.9583 165.573L40.2396 165.573L40.2396 150.219L33.9583 150.219ZM76.5313 153.708C76.5313 151.781 74.9689 150.219 73.0417 150.219L66.7604 150.219L66.7604 165.573L73.0417 165.573C74.9689 165.573 76.5313 164.011 76.5313 162.083L76.5313 153.708Z" fill="#B79069"/>
<path fill-rule="evenodd" clip-rule="evenodd" d="M85.7756 225.801C83.6724 225.801 81.9548 227.547 81.9548 229.684L81.9548 265.316C81.9548 267.453 83.6724 269.199 85.7756 269.199L124.321 269.199C126.034 269.199 127.514 268.02 128.046 266.375C128.047 266.331 128.049 266.278 128.051 266.214C128.058 265.977 128.064 265.634 128.071 265.197C128.085 264.325 128.099 263.099 128.112 261.635C128.138 258.708 128.163 254.842 128.184 250.974C128.226 243.235 128.254 235.503 128.254 235.28C128.254 234.334 129.009 233.567 129.94 233.567C130.87 233.567 131.625 234.334 131.625 235.28C131.625 235.514 131.597 243.257 131.555 250.993C131.534 254.862 131.509 258.733 131.483 261.666C131.47 263.132 131.456 264.367 131.442 265.252C131.435 265.693 131.428 266.053 131.421 266.312C131.417 266.441 131.413 266.554 131.409 266.643C131.407 266.687 131.404 266.736 131.4 266.784C131.398 266.808 131.395 266.842 131.39 266.881L131.39 266.882C131.387 266.906 131.376 266.995 131.35 267.102L131.343 267.13L131.336 267.157C130.473 270.226 127.722 272.625 124.321 272.625L85.7756 272.625C81.8105 272.625 78.5835 269.346 78.5835 265.316L78.5835 229.684C78.5835 225.654 81.8105 222.375 85.7756 222.375L114.769 222.375C118.734 222.375 121.961 225.654 121.961 229.684L121.961 258.692C121.961 259.638 121.206 260.405 120.275 260.405C119.344 260.405 118.59 259.638 118.59 258.692L118.59 229.684C118.59 227.547 116.872 225.801 114.769 225.801L85.7756 225.801ZM88.4726 235.623C88.4726 234.677 89.2273 233.91 90.1583 233.91L110.723 233.91C111.654 233.91 112.409 234.677 112.409 235.623C112.409 236.569 111.654 237.336 110.723 237.336L90.1583 237.336C89.2273 237.336 88.4726 236.569 88.4726 235.623ZM88.4726 246.815C88.4726 245.869 89.2273 245.102 90.1583 245.102L110.723 245.102C111.654 245.102 112.409 245.869 112.409 246.815C112.409 247.761 111.654 248.528 110.723 248.528L90.1583 248.528C89.2273 248.528 88.4726 247.761 88.4726 246.815ZM88.4726 258.121C88.4726 257.175 89.2273 256.408 90.1583 256.408L110.723 256.408C111.654 256.408 112.409 257.175 112.409 258.121C112.409 259.067 111.654 259.834 110.723 259.834L90.1583 259.834C89.2273 259.834 88.4726 259.067 88.4726 258.121Z" fill="#B79069"/>
<path d="M192.333 244.709C194.266 244.709 196.155 244.135 197.762 243.062C199.368 241.988 200.621 240.462 201.36 238.677C202.1 236.891 202.293 234.927 201.916 233.031C201.539 231.136 200.609 229.395 199.242 228.029C197.876 226.662 196.135 225.732 194.239 225.355C192.344 224.978 190.379 225.171 188.594 225.911C186.809 226.65 185.283 227.903 184.209 229.509C183.135 231.116 182.562 233.005 182.562 234.938C182.562 237.529 183.592 240.014 185.424 241.847C187.257 243.679 189.742 244.709 192.333 244.709V244.709ZM192.333 230.75C193.161 230.75 193.971 230.996 194.66 231.456C195.348 231.916 195.885 232.57 196.202 233.335C196.519 234.1 196.602 234.942 196.44 235.755C196.279 236.567 195.88 237.313 195.294 237.899C194.709 238.484 193.962 238.883 193.15 239.045C192.338 239.206 191.496 239.123 190.731 238.806C189.966 238.489 189.312 237.953 188.851 237.264C188.391 236.576 188.146 235.766 188.146 234.938C188.146 233.827 188.587 232.762 189.372 231.977C190.157 231.191 191.223 230.75 192.333 230.75V230.75ZM214.667 253.084C212.734 253.084 210.845 253.657 209.238 254.73C207.631 255.804 206.379 257.33 205.639 259.115C204.9 260.901 204.706 262.865 205.083 264.761C205.46 266.656 206.391 268.397 207.757 269.763C209.124 271.13 210.865 272.06 212.76 272.437C214.656 272.814 216.62 272.621 218.406 271.881C220.191 271.142 221.717 269.89 222.791 268.283C223.864 266.676 224.437 264.787 224.437 262.854C224.437 260.263 223.408 257.778 221.576 255.945C219.743 254.113 217.258 253.084 214.667 253.084V253.084ZM214.667 267.042C213.838 267.042 213.029 266.796 212.34 266.336C211.651 265.876 211.115 265.222 210.798 264.457C210.481 263.692 210.398 262.85 210.559 262.037C210.721 261.225 211.12 260.479 211.705 259.893C212.291 259.308 213.037 258.909 213.85 258.747C214.662 258.586 215.504 258.669 216.269 258.986C217.034 259.303 217.688 259.839 218.148 260.528C218.608 261.217 218.854 262.026 218.854 262.854C218.854 263.965 218.413 265.03 217.628 265.815C216.842 266.601 215.777 267.042 214.667 267.042ZM225.107 225.893C224.877 225.661 224.602 225.478 224.301 225.353C223.999 225.228 223.675 225.163 223.349 225.163C223.022 225.163 222.698 225.228 222.397 225.353C222.095 225.478 221.821 225.661 221.59 225.893L181.892 265.59C181.432 266.06 181.171 266.691 181.167 267.349C181.166 267.841 181.311 268.322 181.584 268.731C181.857 269.141 182.245 269.46 182.7 269.648C183.154 269.836 183.654 269.886 184.137 269.789C184.619 269.693 185.062 269.456 185.41 269.108L225.107 229.41C225.339 229.179 225.522 228.905 225.647 228.603C225.773 228.302 225.837 227.978 225.837 227.651C225.837 227.325 225.773 227.001 225.647 226.699C225.522 226.398 225.339 226.123 225.107 225.893Z" fill="#B79069"/>
<path fill-rule="evenodd" clip-rule="evenodd" d="M232.132 134.678L232.132 170.355L280.868 170.355L280.868 134.678L232.132 134.678ZM228.583 134.458C228.583 132.775 230.088 131.375 231.896 131.375L281.105 131.375C282.913 131.375 284.417 132.775 284.417 134.458L284.417 170.575C284.417 172.258 282.913 173.658 281.105 173.658L258.748 173.658V175.53H271.287C272.266 175.53 273.061 176.269 273.061 177.182C273.061 178.094 272.266 178.833 271.287 178.833L242.542 178.833C241.562 178.833 240.767 178.094 240.767 177.182C240.767 176.269 241.562 175.53 242.542 175.53L255.199 175.53L255.199 173.658L231.999 173.658C229.939 173.847 228.583 172.177 228.583 170.575L228.583 134.458ZM267.146 145.446L272.541 150.468C273.234 151.113 273.234 152.159 272.541 152.804C271.848 153.449 270.725 153.449 270.032 152.804L267.146 150.118L258.275 158.376L252.242 152.76L242.377 161.943C241.684 162.588 240.561 162.588 239.868 161.943C239.175 161.298 239.175 160.252 239.868 159.607L252.242 148.089L258.275 153.704L267.146 145.446Z" fill="#B79069"/>
<path d="M210.066 61.7047L199.189 58.4953C197.93 58.1297 197.054 56.9414 197.054 55.6211C197.054 53.9656 198.383 52.625 200.025 52.625L206.702 52.625C207.931 52.625 209.14 53.0008 210.147 53.6914C210.761 54.1078 211.587 54.0062 212.111 53.4883L215.616 50.0352C216.331 49.3344 216.23 48.1664 215.434 47.5469C212.967 45.5969 209.885 44.5102 206.722 44.5V39.625C206.722 38.7312 205.997 38 205.111 38L201.888 38C201.002 38 200.277 38.7312 200.277 39.625V44.5H200.025C193.609 44.5 188.452 50.0555 189.047 56.6469C189.47 61.3289 193.015 65.1375 197.487 66.4578L207.81 69.5047C209.069 69.8805 209.945 71.0586 209.945 72.3789C209.945 74.0344 208.616 75.375 206.974 75.375H200.297C199.068 75.375 197.859 74.9992 196.852 74.3086C196.238 73.8922 195.412 73.9938 194.888 74.5117L191.383 77.9648C190.668 78.6656 190.769 79.8336 191.565 80.4531C194.032 82.4031 197.114 83.4898 200.277 83.5V88.375C200.277 89.2688 201.002 90 201.888 90H205.111C205.997 90 206.722 89.2688 206.722 88.375V83.4797C211.416 83.3883 215.817 80.575 217.368 76.0961C219.533 69.8398 215.898 63.4211 210.066 61.7047V61.7047Z" fill="#B79069"/>
</svg>
