<svg width="359" height="515" viewBox="0 0 359 515" fill="none" xmlns="http://www.w3.org/2000/svg">
<path d="M359 230C359 387.401 231.401 515 74 515C-83.4012 515 -211 387.401 -211 230C-211 72.5988 -83.4012 -55 74 -55C231.401 -55 359 72.5988 359 230ZM58.6627 230C58.6627 238.471 65.5294 245.337 74 245.337C82.4706 245.337 89.3373 238.471 89.3373 230C89.3373 221.529 82.4706 214.663 74 214.663C65.5294 214.663 58.6627 221.529 58.6627 230Z" fill="#767676"/>
<path d="M279.859 229.771C279.859 343.337 187.795 435.401 74.2286 435.401C-39.3377 435.401 -131.401 343.337 -131.401 229.771C-131.401 116.205 -39.3377 24.1411 74.2286 24.1411C187.795 24.1411 279.859 116.205 279.859 229.771ZM58.9692 229.771C58.9692 238.199 65.8011 245.031 74.2286 245.031C82.6562 245.031 89.4881 238.199 89.4881 229.771C89.4881 221.344 82.6562 214.512 74.2286 214.512C65.8011 214.512 58.9692 221.344 58.9692 229.771Z" fill="#919090"/>
<circle cx="74.0004" cy="230.457" r="121.228" fill="#ABABAB"/>
<circle cx="74.228" cy="230.229" r="26.3042" fill="#B79069"/>
<path d="M69.156 220.083C68.4898 220.083 67.8301 220.214 67.2146 220.469C66.5991 220.724 66.0399 221.098 65.5688 221.569C65.0978 222.04 64.7241 222.599 64.4692 223.215C64.2142 223.83 64.083 224.49 64.083 225.156C64.083 225.822 64.2142 226.482 64.4692 227.097C64.7241 227.713 65.0978 228.272 65.5688 228.743C66.0399 229.214 66.5991 229.588 67.2146 229.843C67.8301 230.098 68.4898 230.229 69.156 230.229C70.5014 230.229 71.7917 229.694 72.7431 228.743C73.6944 227.792 74.2289 226.501 74.2289 225.156C74.2289 223.811 73.6944 222.52 72.7431 221.569C71.7917 220.617 70.5014 220.083 69.156 220.083V220.083ZM65.774 225.156C65.774 224.712 65.8615 224.272 66.0314 223.862C66.2014 223.451 66.4505 223.079 66.7645 222.765C67.0786 222.451 67.4514 222.201 67.8617 222.031C68.2721 221.861 68.7118 221.774 69.156 221.774C69.6001 221.774 70.0399 221.861 70.4502 222.031C70.8605 222.201 71.2333 222.451 71.5474 222.765C71.8614 223.079 72.1105 223.451 72.2805 223.862C72.4504 224.272 72.5379 224.712 72.5379 225.156C72.5379 226.053 72.1816 226.913 71.5474 227.547C70.9131 228.182 70.0529 228.538 69.156 228.538C68.259 228.538 67.3988 228.182 66.7645 227.547C66.1303 226.913 65.774 226.053 65.774 225.156V225.156Z" fill="white"/>
<path d="M80.9925 222.337C79.9461 222.337 78.9425 222.753 78.2025 223.493C77.4626 224.233 77.0469 225.237 77.0469 226.283C77.0469 227.329 77.4626 228.333 78.2025 229.073C78.9425 229.813 79.9461 230.229 80.9925 230.229C82.0389 230.229 83.0425 229.813 83.7825 229.073C84.5224 228.333 84.9381 227.329 84.9381 226.283C84.9381 225.237 84.5224 224.233 83.7825 223.493C83.0425 222.753 82.0389 222.337 80.9925 222.337V222.337ZM78.7379 226.283C78.7379 225.685 78.9754 225.112 79.3982 224.689C79.8211 224.266 80.3945 224.028 80.9925 224.028C81.5905 224.028 82.1639 224.266 82.5868 224.689C83.0096 225.112 83.2471 225.685 83.2471 226.283C83.2471 226.881 83.0096 227.454 82.5868 227.877C82.1639 228.3 81.5905 228.538 80.9925 228.538C80.3945 228.538 79.8211 228.3 79.3982 227.877C78.9754 227.454 78.7379 226.881 78.7379 226.283Z" fill="white"/>
<path d="M60.7012 235.02C60.7012 234.347 60.9684 233.702 61.4441 233.226C61.9198 232.751 62.5649 232.483 63.2376 232.483H75.0745C75.7472 232.483 76.3924 232.751 76.8681 233.226C77.3438 233.702 77.611 234.347 77.611 235.02V235.618C77.6096 235.71 77.6032 235.801 77.5918 235.891C77.5664 236.124 77.525 236.354 77.4678 236.581C77.2814 237.321 76.9491 238.017 76.4904 238.627C75.3473 240.153 73.1671 241.502 69.1561 241.502C65.1451 241.502 62.9648 240.153 61.8217 238.627C61.3634 238.017 61.0315 237.321 60.8455 236.581C60.7719 236.287 60.7247 235.986 60.7046 235.683C60.7031 235.661 60.702 235.64 60.7012 235.618V235.02ZM62.3922 235.578V235.598L62.4023 235.711C62.4136 235.817 62.4361 235.976 62.4857 236.171C62.6172 236.692 62.8509 237.182 63.1734 237.613C63.9332 238.624 65.5577 239.811 69.1561 239.811C72.7545 239.811 74.379 238.624 75.1377 237.613C75.5322 237.087 75.7284 236.562 75.8253 236.171C75.8727 235.983 75.904 235.791 75.9189 235.598L75.92 235.578V235.02C75.92 234.796 75.8309 234.581 75.6724 234.422C75.5138 234.263 75.2988 234.174 75.0745 234.174H63.2376C63.0134 234.174 62.7984 234.263 62.6398 234.422C62.4812 234.581 62.3922 234.796 62.3922 235.02V235.578V235.578ZM77.7237 238.819C78.5951 239.086 79.6706 239.247 80.9907 239.247C84.1134 239.247 85.8585 238.35 86.8066 237.268C87.1857 236.84 87.4665 236.334 87.6295 235.785C87.6939 235.564 87.7351 235.337 87.7524 235.107L87.7546 235.054V235.02C87.7546 234.347 87.4874 233.702 87.0117 233.226C86.536 232.751 85.8909 232.483 85.2182 232.483H77.717C78.1611 232.947 78.4858 233.527 78.6391 234.174H85.2193C85.4416 234.174 85.655 234.262 85.8132 234.418C85.9714 234.574 86.0618 234.786 86.0648 235.009C86.0548 235.111 86.0352 235.212 86.0062 235.311C85.9119 235.623 85.7502 235.911 85.5327 236.154C85.0017 236.763 83.7887 237.556 80.9907 237.556C79.9299 237.556 79.0968 237.442 78.4418 237.267C78.2681 237.812 78.0268 238.333 77.7237 238.819V238.819Z" fill="white"/>
<circle cx="150.854" cy="230.457" r="21.0433" fill="#B79069"/>
<circle cx="176.243" cy="230.229" r="13.9526" fill="#B79069"/>
<g clip-path="url(#clip0_49_2285)">
<path d="M148.206 224.576C147.504 224.576 146.831 224.855 146.335 225.351C145.838 225.847 145.56 226.52 145.56 227.222C145.56 227.924 145.838 228.598 146.335 229.094C146.831 229.59 147.504 229.869 148.206 229.869C148.908 229.869 149.582 229.59 150.078 229.094C150.574 228.598 150.853 227.924 150.853 227.222C150.853 226.52 150.574 225.847 150.078 225.351C149.582 224.855 148.908 224.576 148.206 224.576ZM146.442 227.222C146.442 226.991 146.487 226.761 146.576 226.547C146.665 226.333 146.795 226.139 146.959 225.975C147.122 225.811 147.317 225.681 147.531 225.592C147.745 225.504 147.975 225.458 148.206 225.458C148.438 225.458 148.667 225.504 148.882 225.592C149.096 225.681 149.29 225.811 149.454 225.975C149.618 226.139 149.748 226.333 149.837 226.547C149.925 226.761 149.971 226.991 149.971 227.222C149.971 227.69 149.785 228.139 149.454 228.47C149.123 228.801 148.674 228.987 148.206 228.987C147.738 228.987 147.29 228.801 146.959 228.47C146.628 228.139 146.442 227.69 146.442 227.222V227.222Z" fill="black"/>
<path d="M154.383 225.752C154.112 225.752 153.845 225.805 153.595 225.909C153.345 226.012 153.118 226.164 152.927 226.355C152.736 226.546 152.584 226.773 152.481 227.023C152.377 227.273 152.324 227.54 152.324 227.811C152.324 228.081 152.377 228.349 152.481 228.598C152.584 228.848 152.736 229.075 152.927 229.266C153.118 229.457 153.345 229.609 153.595 229.712C153.845 229.816 154.112 229.869 154.383 229.869C154.929 229.869 155.452 229.652 155.838 229.266C156.225 228.88 156.441 228.357 156.441 227.811C156.441 227.265 156.225 226.741 155.838 226.355C155.452 225.969 154.929 225.752 154.383 225.752ZM153.206 227.811C153.206 227.499 153.33 227.199 153.551 226.979C153.772 226.758 154.071 226.634 154.383 226.634C154.695 226.634 154.994 226.758 155.215 226.979C155.435 227.199 155.559 227.499 155.559 227.811C155.559 228.123 155.435 228.422 155.215 228.642C154.994 228.863 154.695 228.987 154.383 228.987C154.071 228.987 153.772 228.863 153.551 228.642C153.33 228.422 153.206 228.123 153.206 227.811Z" fill="black"/>
<path d="M145.119 231.046C144.768 231.046 144.432 231.185 144.184 231.434C143.935 231.682 143.796 232.018 143.796 232.369V232.682C143.797 232.729 143.8 232.777 143.806 232.824C143.816 232.914 143.835 233.037 143.871 233.184C143.968 233.57 144.142 233.933 144.381 234.251C144.977 235.047 146.114 235.751 148.207 235.751C149.108 235.751 149.832 235.621 150.411 235.409C150.334 235.117 150.288 234.818 150.272 234.516C149.781 234.725 149.114 234.869 148.207 234.869C146.33 234.869 145.482 234.25 145.086 233.722C144.918 233.498 144.796 233.242 144.728 232.97C144.703 232.872 144.687 232.772 144.679 232.671L144.678 232.66V232.369C144.678 232.252 144.725 232.14 144.807 232.057C144.89 231.975 145.002 231.928 145.119 231.928H150.945C151.139 231.622 151.37 231.34 151.632 231.089C151.522 231.061 151.409 231.046 151.295 231.046H145.119Z" fill="black"/>
<path d="M158.5 234.281C158.5 235.295 158.097 236.267 157.38 236.984C156.663 237.701 155.691 238.104 154.677 238.104C153.663 238.104 152.69 237.701 151.973 236.984C151.256 236.267 150.854 235.295 150.854 234.281C150.854 233.267 151.256 232.294 151.973 231.577C152.69 230.86 153.663 230.458 154.677 230.458C155.691 230.458 156.663 230.86 157.38 231.577C158.097 232.294 158.5 233.267 158.5 234.281V234.281ZM154.971 231.928C154.971 231.85 154.94 231.775 154.885 231.72C154.829 231.665 154.755 231.634 154.677 231.634C154.599 231.634 154.524 231.665 154.469 231.72C154.414 231.775 154.383 231.85 154.383 231.928V233.987H152.324C152.246 233.987 152.171 234.018 152.116 234.073C152.061 234.128 152.03 234.203 152.03 234.281C152.03 234.359 152.061 234.433 152.116 234.489C152.171 234.544 152.246 234.575 152.324 234.575H154.383V236.633C154.383 236.711 154.414 236.786 154.469 236.841C154.524 236.896 154.599 236.927 154.677 236.927C154.755 236.927 154.829 236.896 154.885 236.841C154.94 236.786 154.971 236.711 154.971 236.633V234.575H157.029C157.107 234.575 157.182 234.544 157.237 234.489C157.292 234.433 157.323 234.359 157.323 234.281C157.323 234.203 157.292 234.128 157.237 234.073C157.182 234.018 157.107 233.987 157.029 233.987H154.971V231.928Z" fill="black"/>
</g>
<path d="M174.56 224.476V225.882L170.31 235.851H167.528L171.786 226.507H166.356V224.476H174.56ZM175.942 227.265V226.663C175.942 226.231 176.036 225.838 176.224 225.483C176.411 225.129 176.692 224.845 177.067 224.632C177.442 224.418 177.909 224.312 178.466 224.312C179.039 224.312 179.513 224.418 179.888 224.632C180.263 224.845 180.541 225.129 180.724 225.483C180.911 225.838 181.005 226.231 181.005 226.663V227.265C181.005 227.687 180.911 228.075 180.724 228.429C180.541 228.783 180.263 229.067 179.888 229.28C179.518 229.494 179.052 229.601 178.489 229.601C177.922 229.601 177.45 229.494 177.075 229.28C176.7 229.067 176.416 228.783 176.224 228.429C176.036 228.075 175.942 227.687 175.942 227.265ZM177.63 226.663V227.265C177.63 227.421 177.661 227.569 177.724 227.71C177.786 227.851 177.88 227.965 178.005 228.054C178.135 228.137 178.294 228.179 178.481 228.179C178.674 228.179 178.83 228.137 178.95 228.054C179.07 227.965 179.159 227.851 179.216 227.71C179.278 227.569 179.31 227.421 179.31 227.265V226.663C179.31 226.496 179.278 226.343 179.216 226.202C179.159 226.062 179.067 225.95 178.942 225.866C178.817 225.778 178.659 225.733 178.466 225.733C178.284 225.733 178.13 225.778 178.005 225.866C177.88 225.95 177.786 226.062 177.724 226.202C177.661 226.343 177.63 226.496 177.63 226.663ZM181.341 233.663V233.062C181.341 232.634 181.435 232.244 181.622 231.89C181.815 231.535 182.099 231.252 182.474 231.038C182.854 230.825 183.323 230.718 183.88 230.718C184.453 230.718 184.924 230.825 185.294 231.038C185.669 231.252 185.948 231.535 186.13 231.89C186.317 232.244 186.411 232.634 186.411 233.062V233.663C186.411 234.09 186.317 234.481 186.13 234.835C185.948 235.189 185.672 235.473 185.302 235.687C184.932 235.9 184.466 236.007 183.903 236.007C183.336 236.007 182.862 235.9 182.481 235.687C182.101 235.473 181.815 235.189 181.622 234.835C181.435 234.481 181.341 234.09 181.341 233.663ZM183.036 233.062V233.663C183.036 233.825 183.075 233.976 183.153 234.116C183.231 234.257 183.336 234.371 183.466 234.46C183.596 234.543 183.739 234.585 183.896 234.585C184.135 234.585 184.312 234.543 184.427 234.46C184.547 234.371 184.625 234.257 184.661 234.116C184.703 233.976 184.724 233.825 184.724 233.663V233.062C184.724 232.9 184.692 232.749 184.63 232.608C184.567 232.468 184.474 232.356 184.349 232.272C184.224 232.184 184.067 232.14 183.88 232.14C183.692 232.14 183.536 232.184 183.411 232.272C183.286 232.356 183.192 232.468 183.13 232.608C183.067 232.749 183.036 232.9 183.036 233.062ZM184.536 226.108L178.981 234.999L177.755 234.382L183.31 225.491L184.536 226.108Z" fill="white"/>
<circle cx="231.826" cy="230.457" r="21.0433" fill="#B79069"/>
<circle cx="257.214" cy="230.229" r="13.9526" fill="#B79069"/>
<path d="M229.178 224.576C228.476 224.576 227.803 224.855 227.306 225.351C226.81 225.847 226.531 226.52 226.531 227.222C226.531 227.924 226.81 228.598 227.306 229.094C227.803 229.59 228.476 229.869 229.178 229.869C229.88 229.869 230.553 229.59 231.05 229.094C231.546 228.598 231.825 227.924 231.825 227.222C231.825 226.52 231.546 225.847 231.05 225.351C230.553 224.855 229.88 224.576 229.178 224.576ZM227.414 227.222C227.414 226.991 227.459 226.761 227.548 226.547C227.636 226.333 227.766 226.139 227.93 225.975C228.094 225.811 228.289 225.681 228.503 225.592C228.717 225.504 228.946 225.458 229.178 225.458C229.41 225.458 229.639 225.504 229.853 225.592C230.067 225.681 230.262 225.811 230.426 225.975C230.59 226.139 230.72 226.333 230.808 226.547C230.897 226.761 230.943 226.991 230.943 227.222C230.943 227.69 230.757 228.139 230.426 228.47C230.095 228.801 229.646 228.987 229.178 228.987C228.71 228.987 228.261 228.801 227.93 228.47C227.599 228.139 227.414 227.69 227.414 227.222V227.222Z" fill="black"/>
<path d="M235.354 225.752C235.084 225.752 234.816 225.806 234.567 225.909C234.317 226.013 234.09 226.164 233.899 226.355C233.708 226.547 233.556 226.773 233.453 227.023C233.349 227.273 233.296 227.541 233.296 227.811C233.296 228.081 233.349 228.349 233.453 228.599C233.556 228.849 233.708 229.076 233.899 229.267C234.09 229.458 234.317 229.609 234.567 229.713C234.816 229.816 235.084 229.87 235.354 229.87C235.9 229.87 236.424 229.653 236.81 229.267C237.196 228.881 237.413 228.357 237.413 227.811C237.413 227.265 237.196 226.741 236.81 226.355C236.424 225.969 235.9 225.752 235.354 225.752ZM234.178 227.811C234.178 227.499 234.302 227.2 234.523 226.979C234.743 226.759 235.043 226.635 235.354 226.635C235.666 226.635 235.966 226.759 236.186 226.979C236.407 227.2 236.531 227.499 236.531 227.811C236.531 228.123 236.407 228.422 236.186 228.643C235.966 228.863 235.666 228.987 235.354 228.987C235.043 228.987 234.743 228.863 234.523 228.643C234.302 228.422 234.178 228.123 234.178 227.811Z" fill="black"/>
<path d="M226.09 231.045C225.739 231.045 225.402 231.185 225.154 231.433C224.906 231.681 224.767 232.018 224.767 232.369V232.681C224.767 232.729 224.771 232.776 224.777 232.823C224.787 232.913 224.805 233.037 224.841 233.183C224.939 233.57 225.112 233.932 225.351 234.251C225.948 235.047 227.085 235.751 229.178 235.751C230.078 235.751 230.802 235.62 231.382 235.408C231.305 235.116 231.258 234.817 231.243 234.516C230.751 234.724 230.084 234.869 229.178 234.869C227.3 234.869 226.453 234.249 226.057 233.722C225.889 233.497 225.767 233.241 225.698 232.969C225.674 232.871 225.657 232.771 225.649 232.671L225.649 232.66V232.369C225.649 232.252 225.695 232.14 225.778 232.057C225.861 231.974 225.973 231.928 226.09 231.928H231.916C232.11 231.621 232.34 231.339 232.603 231.089C232.493 231.06 232.379 231.045 232.266 231.045H226.09Z" fill="black"/>
<path d="M239.471 234.281C239.471 235.295 239.069 236.267 238.352 236.984C237.635 237.701 236.662 238.104 235.648 238.104C234.634 238.104 233.662 237.701 232.945 236.984C232.228 236.267 231.825 235.295 231.825 234.281C231.825 233.267 232.228 232.294 232.945 231.577C233.662 230.86 234.634 230.458 235.648 230.458C236.662 230.458 237.635 230.86 238.352 231.577C239.069 232.294 239.471 233.267 239.471 234.281V234.281ZM235.942 231.928C235.942 231.85 235.911 231.775 235.856 231.72C235.801 231.665 235.726 231.634 235.648 231.634C235.57 231.634 235.495 231.665 235.44 231.72C235.385 231.775 235.354 231.85 235.354 231.928V233.987H233.296C233.218 233.987 233.143 234.018 233.088 234.073C233.033 234.128 233.002 234.203 233.002 234.281C233.002 234.359 233.033 234.433 233.088 234.489C233.143 234.544 233.218 234.575 233.296 234.575H235.354V236.633C235.354 236.711 235.385 236.786 235.44 236.841C235.495 236.896 235.57 236.927 235.648 236.927C235.726 236.927 235.801 236.896 235.856 236.841C235.911 236.786 235.942 236.711 235.942 236.633V234.575H238.001C238.079 234.575 238.154 234.544 238.209 234.489C238.264 234.433 238.295 234.359 238.295 234.281C238.295 234.203 238.264 234.128 238.209 234.073C238.154 234.018 238.079 233.987 238.001 233.987H235.942V231.928Z" fill="black"/>
<path d="M248.959 230.78L246.865 230.288L247.553 224.476H254.201V226.522H249.701L249.443 228.78C249.568 228.707 249.779 228.621 250.076 228.522C250.378 228.418 250.712 228.366 251.076 228.366C251.639 228.366 252.136 228.452 252.568 228.624C253.006 228.791 253.376 229.038 253.678 229.366C253.98 229.689 254.206 230.088 254.357 230.562C254.514 231.035 254.592 231.577 254.592 232.187C254.592 232.676 254.511 233.15 254.35 233.608C254.193 234.062 253.951 234.47 253.623 234.835C253.3 235.194 252.891 235.481 252.396 235.694C251.902 235.903 251.316 236.007 250.639 236.007C250.133 236.007 249.641 235.929 249.162 235.772C248.683 235.616 248.251 235.392 247.865 235.101C247.485 234.804 247.183 234.447 246.959 234.03C246.74 233.608 246.633 233.137 246.639 232.616H249.287C249.303 232.892 249.368 233.132 249.482 233.335C249.597 233.538 249.751 233.697 249.943 233.812C250.141 233.921 250.368 233.976 250.623 233.976C250.883 233.976 251.1 233.924 251.271 233.819C251.443 233.715 251.579 233.572 251.678 233.39C251.777 233.207 251.847 232.999 251.889 232.765C251.93 232.525 251.951 232.272 251.951 232.007C251.951 231.726 251.92 231.473 251.857 231.249C251.8 231.025 251.706 230.835 251.576 230.679C251.446 230.517 251.277 230.395 251.068 230.312C250.865 230.228 250.62 230.187 250.334 230.187C249.954 230.187 249.654 230.252 249.436 230.382C249.217 230.512 249.058 230.645 248.959 230.78ZM255.998 227.265V226.663C255.998 226.231 256.092 225.838 256.279 225.483C256.467 225.129 256.748 224.845 257.123 224.632C257.498 224.418 257.964 224.312 258.521 224.312C259.094 224.312 259.568 224.418 259.943 224.632C260.318 224.845 260.597 225.129 260.779 225.483C260.967 225.838 261.061 226.231 261.061 226.663V227.265C261.061 227.687 260.967 228.075 260.779 228.429C260.597 228.783 260.318 229.067 259.943 229.28C259.574 229.494 259.107 229.601 258.545 229.601C257.977 229.601 257.506 229.494 257.131 229.28C256.756 229.067 256.472 228.783 256.279 228.429C256.092 228.075 255.998 227.687 255.998 227.265ZM257.686 226.663V227.265C257.686 227.421 257.717 227.569 257.779 227.71C257.842 227.851 257.936 227.965 258.061 228.054C258.191 228.137 258.35 228.179 258.537 228.179C258.73 228.179 258.886 228.137 259.006 228.054C259.126 227.965 259.214 227.851 259.271 227.71C259.334 227.569 259.365 227.421 259.365 227.265V226.663C259.365 226.496 259.334 226.343 259.271 226.202C259.214 226.062 259.123 225.95 258.998 225.866C258.873 225.778 258.714 225.733 258.521 225.733C258.339 225.733 258.186 225.778 258.061 225.866C257.936 225.95 257.842 226.062 257.779 226.202C257.717 226.343 257.686 226.496 257.686 226.663ZM261.396 233.663V233.062C261.396 232.634 261.49 232.244 261.678 231.89C261.87 231.535 262.154 231.252 262.529 231.038C262.91 230.825 263.378 230.718 263.936 230.718C264.508 230.718 264.98 230.825 265.35 231.038C265.725 231.252 266.003 231.535 266.186 231.89C266.373 232.244 266.467 232.634 266.467 233.062V233.663C266.467 234.09 266.373 234.481 266.186 234.835C266.003 235.189 265.727 235.473 265.357 235.687C264.988 235.9 264.521 236.007 263.959 236.007C263.391 236.007 262.917 235.9 262.537 235.687C262.157 235.473 261.87 235.189 261.678 234.835C261.49 234.481 261.396 234.09 261.396 233.663ZM263.092 233.062V233.663C263.092 233.825 263.131 233.976 263.209 234.116C263.287 234.257 263.391 234.371 263.521 234.46C263.652 234.543 263.795 234.585 263.951 234.585C264.191 234.585 264.368 234.543 264.482 234.46C264.602 234.371 264.68 234.257 264.717 234.116C264.758 233.976 264.779 233.825 264.779 233.663V233.062C264.779 232.9 264.748 232.749 264.686 232.608C264.623 232.468 264.529 232.356 264.404 232.272C264.279 232.184 264.123 232.14 263.936 232.14C263.748 232.14 263.592 232.184 263.467 232.272C263.342 232.356 263.248 232.468 263.186 232.608C263.123 232.749 263.092 232.9 263.092 233.062ZM264.592 226.108L259.037 234.999L257.811 234.382L263.365 225.491L264.592 226.108Z" fill="white"/>
<circle cx="312.796" cy="230.457" r="21.0433" fill="#B79069"/>
<path d="M310.149 224.576C309.447 224.576 308.774 224.855 308.277 225.351C307.781 225.847 307.502 226.52 307.502 227.222C307.502 227.924 307.781 228.598 308.277 229.094C308.774 229.59 309.447 229.869 310.149 229.869C310.851 229.869 311.524 229.59 312.02 229.094C312.517 228.598 312.795 227.924 312.795 227.222C312.795 226.52 312.517 225.847 312.02 225.351C311.524 224.855 310.851 224.576 310.149 224.576ZM308.384 227.222C308.384 226.991 308.43 226.761 308.519 226.547C308.607 226.333 308.737 226.139 308.901 225.975C309.065 225.811 309.259 225.681 309.473 225.592C309.688 225.504 309.917 225.458 310.149 225.458C310.38 225.458 310.61 225.504 310.824 225.592C311.038 225.681 311.233 225.811 311.396 225.975C311.56 226.139 311.69 226.333 311.779 226.547C311.868 226.761 311.913 226.991 311.913 227.222C311.913 227.69 311.727 228.139 311.396 228.47C311.065 228.801 310.617 228.987 310.149 228.987C309.681 228.987 309.232 228.801 308.901 228.47C308.57 228.139 308.384 227.69 308.384 227.222V227.222Z" fill="black"/>
<path d="M316.325 225.752C316.055 225.752 315.787 225.806 315.537 225.909C315.288 226.013 315.061 226.164 314.87 226.355C314.678 226.547 314.527 226.773 314.423 227.023C314.32 227.273 314.267 227.541 314.267 227.811C314.267 228.081 314.32 228.349 314.423 228.599C314.527 228.849 314.678 229.076 314.87 229.267C315.061 229.458 315.288 229.609 315.537 229.713C315.787 229.816 316.055 229.87 316.325 229.87C316.871 229.87 317.395 229.653 317.781 229.267C318.167 228.881 318.384 228.357 318.384 227.811C318.384 227.265 318.167 226.741 317.781 226.355C317.395 225.969 316.871 225.752 316.325 225.752ZM315.149 227.811C315.149 227.499 315.273 227.2 315.493 226.979C315.714 226.759 316.013 226.635 316.325 226.635C316.637 226.635 316.936 226.759 317.157 226.979C317.378 227.2 317.502 227.499 317.502 227.811C317.502 228.123 317.378 228.422 317.157 228.643C316.936 228.863 316.637 228.987 316.325 228.987C316.013 228.987 315.714 228.863 315.493 228.643C315.273 228.422 315.149 228.123 315.149 227.811Z" fill="black"/>
<path d="M307.061 231.045C306.71 231.045 306.373 231.185 306.125 231.433C305.877 231.681 305.737 232.018 305.737 232.369V232.681C305.738 232.729 305.741 232.776 305.747 232.823C305.757 232.913 305.776 233.037 305.812 233.183C305.91 233.57 306.083 233.932 306.322 234.251C306.918 235.047 308.056 235.751 310.149 235.751C311.049 235.751 311.773 235.62 312.352 235.408C312.276 235.116 312.229 234.817 312.214 234.516C311.722 234.724 311.055 234.869 310.149 234.869C308.271 234.869 307.424 234.249 307.028 233.722C306.859 233.497 306.737 233.241 306.669 232.969C306.644 232.871 306.628 232.771 306.62 232.671L306.62 232.66V232.369C306.62 232.252 306.666 232.14 306.749 232.057C306.831 231.974 306.944 231.928 307.061 231.928H312.886C313.08 231.621 313.311 231.339 313.573 231.089C313.463 231.06 313.35 231.045 313.236 231.045H307.061Z" fill="black"/>
<path d="M320.442 234.281C320.442 235.295 320.039 236.267 319.322 236.984C318.605 237.701 317.633 238.104 316.619 238.104C315.605 238.104 314.633 237.701 313.916 236.984C313.199 236.267 312.796 235.295 312.796 234.281C312.796 233.267 313.199 232.294 313.916 231.577C314.633 230.86 315.605 230.458 316.619 230.458C317.633 230.458 318.605 230.86 319.322 231.577C320.039 232.294 320.442 233.267 320.442 234.281V234.281ZM316.913 231.928C316.913 231.85 316.882 231.775 316.827 231.72C316.772 231.665 316.697 231.634 316.619 231.634C316.541 231.634 316.466 231.665 316.411 231.72C316.356 231.775 316.325 231.85 316.325 231.928V233.987H314.266C314.188 233.987 314.114 234.018 314.058 234.073C314.003 234.128 313.972 234.203 313.972 234.281C313.972 234.359 314.003 234.433 314.058 234.489C314.114 234.544 314.188 234.575 314.266 234.575H316.325V236.633C316.325 236.711 316.356 236.786 316.411 236.841C316.466 236.896 316.541 236.927 316.619 236.927C316.697 236.927 316.772 236.896 316.827 236.841C316.882 236.786 316.913 236.711 316.913 236.633V234.575H318.972C319.05 234.575 319.124 234.544 319.18 234.489C319.235 234.433 319.266 234.359 319.266 234.281C319.266 234.203 319.235 234.128 319.18 234.073C319.124 234.018 319.05 233.987 318.972 233.987H316.913V231.928Z" fill="black"/>
<circle cx="338.185" cy="230.229" r="13.9526" fill="#B79069"/>
<path d="M330.536 229.062H331.817C332.146 229.062 332.414 229.004 332.622 228.89C332.836 228.77 332.994 228.603 333.099 228.39C333.203 228.171 333.255 227.913 333.255 227.616C333.255 227.387 333.205 227.176 333.106 226.983C333.013 226.791 332.867 226.637 332.669 226.522C332.471 226.403 332.218 226.343 331.911 226.343C331.703 226.343 331.5 226.387 331.302 226.476C331.104 226.559 330.94 226.679 330.81 226.835C330.685 226.991 330.622 227.181 330.622 227.405H327.981C327.981 226.759 328.159 226.207 328.513 225.749C328.872 225.285 329.343 224.931 329.927 224.687C330.515 224.437 331.148 224.312 331.825 224.312C332.632 224.312 333.341 224.437 333.95 224.687C334.56 224.931 335.034 225.296 335.372 225.78C335.716 226.259 335.888 226.853 335.888 227.562C335.888 227.952 335.797 228.319 335.614 228.663C335.432 229.007 335.177 229.309 334.849 229.569C334.521 229.83 334.135 230.035 333.692 230.187C333.255 230.332 332.776 230.405 332.255 230.405H330.536V229.062ZM330.536 231.022V229.71H332.255C332.823 229.71 333.341 229.775 333.81 229.905C334.278 230.03 334.682 230.218 335.021 230.468C335.359 230.718 335.619 231.028 335.802 231.397C335.984 231.762 336.075 232.181 336.075 232.655C336.075 233.187 335.968 233.66 335.755 234.077C335.541 234.494 335.242 234.845 334.856 235.132C334.471 235.418 334.021 235.637 333.505 235.788C332.989 235.934 332.429 236.007 331.825 236.007C331.351 236.007 330.877 235.944 330.403 235.819C329.929 235.689 329.497 235.491 329.106 235.226C328.716 234.955 328.401 234.611 328.161 234.194C327.927 233.772 327.81 233.27 327.81 232.687H330.45C330.45 232.926 330.515 233.145 330.646 233.343C330.781 233.535 330.961 233.689 331.185 233.804C331.409 233.918 331.651 233.976 331.911 233.976C332.234 233.976 332.507 233.916 332.731 233.796C332.961 233.671 333.135 233.504 333.255 233.296C333.375 233.088 333.435 232.856 333.435 232.601C333.435 232.215 333.369 231.908 333.239 231.679C333.114 231.45 332.929 231.283 332.685 231.179C332.445 231.075 332.156 231.022 331.817 231.022H330.536ZM337.427 227.265V226.663C337.427 226.231 337.521 225.838 337.708 225.483C337.896 225.129 338.177 224.845 338.552 224.632C338.927 224.418 339.393 224.312 339.95 224.312C340.523 224.312 340.997 224.418 341.372 224.632C341.747 224.845 342.026 225.129 342.208 225.483C342.396 225.838 342.489 226.231 342.489 226.663V227.265C342.489 227.687 342.396 228.075 342.208 228.429C342.026 228.783 341.747 229.067 341.372 229.28C341.002 229.494 340.536 229.601 339.974 229.601C339.406 229.601 338.935 229.494 338.56 229.28C338.185 229.067 337.901 228.783 337.708 228.429C337.521 228.075 337.427 227.687 337.427 227.265ZM339.114 226.663V227.265C339.114 227.421 339.146 227.569 339.208 227.71C339.271 227.851 339.364 227.965 339.489 228.054C339.619 228.137 339.778 228.179 339.966 228.179C340.159 228.179 340.315 228.137 340.435 228.054C340.554 227.965 340.643 227.851 340.7 227.71C340.763 227.569 340.794 227.421 340.794 227.265V226.663C340.794 226.496 340.763 226.343 340.7 226.202C340.643 226.062 340.552 225.95 340.427 225.866C340.302 225.778 340.143 225.733 339.95 225.733C339.768 225.733 339.614 225.778 339.489 225.866C339.364 225.95 339.271 226.062 339.208 226.202C339.146 226.343 339.114 226.496 339.114 226.663ZM342.825 233.663V233.062C342.825 232.634 342.919 232.244 343.106 231.89C343.299 231.535 343.583 231.252 343.958 231.038C344.338 230.825 344.807 230.718 345.364 230.718C345.937 230.718 346.409 230.825 346.778 231.038C347.153 231.252 347.432 231.535 347.614 231.89C347.802 232.244 347.896 232.634 347.896 233.062V233.663C347.896 234.09 347.802 234.481 347.614 234.835C347.432 235.189 347.156 235.473 346.786 235.687C346.416 235.9 345.95 236.007 345.388 236.007C344.82 236.007 344.346 235.9 343.966 235.687C343.586 235.473 343.299 235.189 343.106 234.835C342.919 234.481 342.825 234.09 342.825 233.663ZM344.521 233.062V233.663C344.521 233.825 344.56 233.976 344.638 234.116C344.716 234.257 344.82 234.371 344.95 234.46C345.08 234.543 345.224 234.585 345.38 234.585C345.619 234.585 345.797 234.543 345.911 234.46C346.031 234.371 346.109 234.257 346.146 234.116C346.187 233.976 346.208 233.825 346.208 233.663V233.062C346.208 232.9 346.177 232.749 346.114 232.608C346.052 232.468 345.958 232.356 345.833 232.272C345.708 232.184 345.552 232.14 345.364 232.14C345.177 232.14 345.021 232.184 344.896 232.272C344.771 232.356 344.677 232.468 344.614 232.608C344.552 232.749 344.521 232.9 344.521 233.062ZM346.021 226.108L340.466 234.999L339.239 234.382L344.794 225.491L346.021 226.108Z" fill="white"/>
<path d="M98.402 230C98.402 232.946 100.79 235.333 103.735 235.333C106.681 235.333 109.069 232.946 109.069 230C109.069 227.054 106.681 224.667 103.735 224.667C100.79 224.667 98.402 227.054 98.402 230ZM121.275 230C121.275 232.946 123.663 235.333 126.609 235.333C129.554 235.333 131.942 232.946 131.942 230C131.942 227.054 129.554 224.667 126.609 224.667C123.663 224.667 121.275 227.054 121.275 230ZM103.735 231L126.609 231L126.609 229L103.735 229L103.735 231Z" fill="black"/>
<path d="M188.064 230C188.064 232.946 190.452 235.333 193.397 235.333C196.343 235.333 198.731 232.946 198.731 230C198.731 227.054 196.343 224.667 193.397 224.667C190.452 224.667 188.064 227.054 188.064 230ZM202.246 230C202.246 232.946 204.633 235.333 207.579 235.333C210.524 235.333 212.912 232.946 212.912 230C212.912 227.054 210.524 224.667 207.579 224.667C204.633 224.667 202.246 227.054 202.246 230ZM193.397 231L207.579 231L207.579 229L193.397 229L193.397 231Z" fill="black"/>
<path d="M269.036 230C269.036 232.946 271.424 235.333 274.369 235.333C277.315 235.333 279.702 232.946 279.702 230C279.702 227.054 277.315 224.667 274.369 224.667C271.424 224.667 269.036 227.054 269.036 230ZM283.217 230C283.217 232.946 285.605 235.333 288.551 235.333C291.496 235.333 293.884 232.946 293.884 230C293.884 227.054 291.496 224.667 288.551 224.667C285.605 224.667 283.217 227.054 283.217 230ZM274.369 231L288.551 231L288.551 229L274.369 229L274.369 231Z" fill="black"/>
<path d="M74.0005 201.638L85.3567 203.443L79.7716 192.499L74.0005 201.638ZM176.472 214.904C177.192 214.326 177.191 214.326 177.191 214.325C177.191 214.325 177.19 214.324 177.19 214.323C177.189 214.322 177.188 214.321 177.186 214.319C177.184 214.316 177.181 214.312 177.177 214.307C177.168 214.297 177.157 214.284 177.143 214.267C177.115 214.232 177.074 214.184 177.021 214.122C176.914 213.998 176.758 213.82 176.551 213.594C176.136 213.142 175.515 212.498 174.678 211.71C173.002 210.133 170.456 207.978 166.943 205.626C159.915 200.918 149.032 195.429 133.529 192.179L133.413 194.17C148.644 197.362 159.262 202.738 166.051 207.285C169.447 209.559 171.889 211.629 173.473 213.12C174.266 213.866 174.844 214.466 175.22 214.876C175.408 215.08 175.545 215.237 175.633 215.34C175.678 215.392 175.71 215.43 175.729 215.454C175.739 215.466 175.746 215.474 175.75 215.479C175.752 215.481 175.753 215.483 175.754 215.483C175.754 215.484 175.754 215.484 175.754 215.484C175.754 215.484 175.754 215.483 175.754 215.483C175.753 215.483 175.753 215.482 176.472 214.904ZM133.529 192.179C112.204 187.71 91.8913 193.388 81.2603 197.376L82.158 199.299C92.6891 195.349 112.618 189.811 133.413 194.17L133.529 192.179Z" fill="black"/>
<path d="M74.0002 201.408L85.2103 201.223L78.0303 191.155L74.0002 201.408ZM256.986 214.217C257.869 213.907 257.869 213.906 257.868 213.904C257.868 213.904 257.867 213.902 257.866 213.901C257.865 213.899 257.864 213.896 257.863 213.893C257.86 213.887 257.857 213.879 257.853 213.871C257.844 213.853 257.833 213.831 257.82 213.803C257.792 213.747 257.754 213.671 257.702 213.575C257.598 213.383 257.444 213.113 257.226 212.773C256.79 212.094 256.102 211.135 255.071 209.963C253.007 207.619 249.574 204.428 244.038 200.903C232.972 193.857 213.493 185.471 179.692 179.82L179.657 181.825C213.282 187.447 232.459 195.759 243.192 202.592C248.555 206.007 251.808 209.051 253.705 211.206C254.654 212.284 255.265 213.142 255.633 213.716C255.817 214.003 255.941 214.22 256.015 214.357C256.052 214.426 256.077 214.476 256.091 214.504C256.098 214.519 256.103 214.528 256.104 214.532C256.105 214.534 256.106 214.534 256.105 214.534C256.105 214.533 256.105 214.533 256.104 214.532C256.104 214.531 256.104 214.53 256.104 214.53C256.103 214.529 256.103 214.528 256.986 214.217ZM179.692 179.82C128.63 171.282 94.1928 187.342 80.274 195.814L81.4456 197.605C95.1434 189.267 129.165 173.383 179.657 181.825L179.692 179.82Z" fill="black"/>
<path d="M74.2288 201.409L85.3252 200.594L77.6834 190.864L74.2288 201.409ZM339.1 214.218C339.972 213.881 339.971 213.879 339.97 213.878C339.97 213.877 339.969 213.875 339.968 213.874C339.967 213.871 339.965 213.868 339.964 213.864C339.96 213.857 339.956 213.848 339.95 213.837C339.939 213.816 339.925 213.788 339.906 213.753C339.869 213.683 339.817 213.586 339.745 213.464C339.603 213.22 339.388 212.874 339.082 212.437C338.47 211.563 337.497 210.326 336.02 208.811C333.067 205.78 328.105 201.639 320.001 197.045C303.803 187.863 275.016 176.855 224.506 169.296L224.505 171.307C274.867 178.844 303.377 189.794 319.258 198.796C327.194 203.295 331.968 207.302 334.74 210.146C336.126 211.569 337.013 212.702 337.545 213.463C337.812 213.844 337.99 214.132 338.098 214.317C338.152 214.409 338.188 214.476 338.209 214.516C338.22 214.536 338.227 214.55 338.23 214.556C338.232 214.559 338.232 214.561 338.232 214.56C338.232 214.56 338.232 214.56 338.231 214.559C338.231 214.558 338.231 214.557 338.23 214.557C338.23 214.556 338.229 214.554 339.1 214.218ZM224.506 169.296C144.52 157.325 96.7344 183.757 80.1487 195.429L81.4089 197.162C97.7423 185.667 145.097 159.422 224.505 171.307L224.506 169.296Z" fill="black"/>
<defs>
<clipPath id="clip0_49_2285">
<rect width="16.4687" height="16.4687" fill="white" transform="translate(142.619 222.223)"/>
</clipPath>
</defs>
</svg>
