<svg width="1246" height="1246" viewBox="0 0 1246 1246" fill="none" xmlns="http://www.w3.org/2000/svg">
<path d="M1246 623C1246 967.073 967.073 1246 623 1246C278.927 1246 0 967.073 0 623C0 278.927 278.927 0 623 0C967.073 0 1246 278.927 1246 623ZM589.473 623C589.473 641.516 604.484 656.527 623 656.527C641.516 656.527 656.527 641.516 656.527 623C656.527 604.484 641.516 589.473 623 589.473C604.484 589.473 589.473 604.484 589.473 623Z" fill="#767676"/>
<path d="M1073 622.5C1073 870.752 871.752 1072 623.5 1072C375.248 1072 174 870.752 174 622.5C174 374.248 375.248 173 623.5 173C871.752 173 1073 374.248 1073 622.5ZM590.143 622.5C590.143 640.922 605.078 655.857 623.5 655.857C641.922 655.857 656.857 640.922 656.857 622.5C656.857 604.078 641.922 589.143 623.5 589.143C605.078 589.143 590.143 604.078 590.143 622.5Z" fill="#919090"/>
<circle cx="623" cy="624" r="265" fill="#ABABAB"/>
<circle cx="623.5" cy="623.5" r="57.5" fill="#B79069"/>
<path d="M612.411 601.321C610.954 601.321 609.512 601.608 608.167 602.165C606.821 602.723 605.599 603.54 604.569 604.569C603.54 605.599 602.723 606.821 602.165 608.167C601.608 609.512 601.321 610.954 601.321 612.411C601.321 613.867 601.608 615.309 602.165 616.654C602.723 618 603.54 619.222 604.569 620.252C605.599 621.282 606.821 622.098 608.167 622.656C609.512 623.213 610.954 623.5 612.411 623.5C615.352 623.5 618.172 622.332 620.252 620.252C622.332 618.172 623.5 615.352 623.5 612.411C623.5 609.47 622.332 606.649 620.252 604.569C618.172 602.49 615.352 601.321 612.411 601.321ZM605.018 612.411C605.018 611.44 605.209 610.478 605.58 609.581C605.952 608.685 606.497 607.87 607.183 607.183C607.87 606.497 608.685 605.952 609.581 605.58C610.478 605.209 611.44 605.018 612.411 605.018C613.381 605.018 614.343 605.209 615.24 605.58C616.137 605.952 616.952 606.497 617.638 607.183C618.325 607.87 618.869 608.685 619.241 609.581C619.612 610.478 619.803 611.44 619.803 612.411C619.803 614.371 619.025 616.252 617.638 617.638C616.252 619.025 614.371 619.803 612.411 619.803C610.45 619.803 608.569 619.025 607.183 617.638C605.797 616.252 605.018 614.371 605.018 612.411Z" fill="white"/>
<path d="M638.286 606.25C635.998 606.25 633.804 607.159 632.187 608.776C630.569 610.394 629.661 612.588 629.661 614.875C629.661 617.162 630.569 619.356 632.187 620.974C633.804 622.591 635.998 623.5 638.286 623.5C640.573 623.5 642.767 622.591 644.384 620.974C646.002 619.356 646.911 617.162 646.911 614.875C646.911 612.588 646.002 610.394 644.384 608.776C642.767 607.159 640.573 606.25 638.286 606.25ZM633.357 614.875C633.357 613.568 633.876 612.314 634.801 611.39C635.725 610.466 636.979 609.946 638.286 609.946C639.593 609.946 640.846 610.466 641.771 611.39C642.695 612.314 643.214 613.568 643.214 614.875C643.214 616.182 642.695 617.436 641.771 618.36C640.846 619.284 639.593 619.804 638.286 619.804C636.979 619.804 635.725 619.284 634.801 618.36C633.876 617.436 633.357 616.182 633.357 614.875Z" fill="white"/>
<path d="M593.929 633.973C593.929 632.503 594.513 631.093 595.553 630.053C596.593 629.013 598.003 628.429 599.473 628.429H625.348C626.819 628.429 628.229 629.013 629.269 630.053C630.309 631.093 630.893 632.503 630.893 633.973V635.282C630.89 635.481 630.876 635.68 630.851 635.878C630.796 636.387 630.705 636.891 630.58 637.386C630.173 639.005 629.446 640.525 628.443 641.859C625.945 645.193 621.179 648.143 612.411 648.143C603.643 648.143 598.877 645.193 596.378 641.859C595.376 640.525 594.651 639.004 594.244 637.386C594.083 636.742 593.98 636.085 593.936 635.422C593.933 635.376 593.931 635.329 593.929 635.282V633.973ZM597.625 635.193V635.238L597.647 635.484C597.672 635.716 597.721 636.063 597.83 636.489C598.117 637.629 598.628 638.701 599.333 639.641C600.994 641.852 604.545 644.447 612.411 644.447C620.277 644.447 623.828 641.852 625.486 639.641C626.349 638.493 626.778 637.344 626.99 636.489C627.093 636.079 627.161 635.66 627.194 635.238L627.197 635.193V633.973C627.197 633.483 627.002 633.013 626.655 632.666C626.309 632.32 625.839 632.125 625.348 632.125H599.473C598.983 632.125 598.513 632.32 598.166 632.666C597.82 633.013 597.625 633.483 597.625 633.973V635.193ZM631.139 642.278C633.044 642.862 635.395 643.214 638.281 643.214C645.107 643.214 648.922 641.253 650.994 638.887C651.823 637.951 652.437 636.845 652.793 635.647C652.934 635.163 653.024 634.666 653.062 634.163L653.067 634.047V633.973C653.067 632.503 652.482 631.093 651.443 630.053C650.403 629.013 648.993 628.429 647.522 628.429H631.125C632.096 629.442 632.805 630.711 633.14 632.125H647.524C648.01 632.125 648.477 632.316 648.823 632.658C649.169 632.999 649.366 633.463 649.373 633.949C649.351 634.172 649.308 634.394 649.245 634.609C649.038 635.292 648.685 635.921 648.21 636.452C647.049 637.783 644.397 639.518 638.281 639.518C635.962 639.518 634.141 639.269 632.709 638.885C632.329 640.077 631.802 641.217 631.139 642.278Z" fill="white"/>
<circle cx="791" cy="624" r="46" fill="#B79069"/>
<circle cx="846.5" cy="623.5" r="30.5" fill="#B79069"/>
<path d="M785.214 611.143C783.68 611.143 782.208 611.753 781.123 612.838C780.038 613.923 779.429 615.394 779.429 616.929C779.429 618.463 780.038 619.935 781.123 621.02C782.208 622.105 783.68 622.714 785.214 622.714C786.749 622.714 788.221 622.105 789.306 621.02C790.391 619.935 791 618.463 791 616.929C791 615.394 790.391 613.923 789.306 612.838C788.221 611.753 786.749 611.143 785.214 611.143ZM781.357 616.929C781.357 616.422 781.457 615.921 781.651 615.453C781.845 614.985 782.129 614.56 782.487 614.201C782.845 613.843 783.27 613.559 783.738 613.365C784.206 613.171 784.708 613.072 785.214 613.072C785.721 613.072 786.223 613.171 786.69 613.365C787.158 613.559 787.584 613.843 787.942 614.201C788.3 614.56 788.584 614.985 788.778 615.453C788.972 615.921 789.072 616.422 789.072 616.929C789.072 617.952 788.665 618.933 787.942 619.656C787.218 620.38 786.237 620.786 785.214 620.786C784.191 620.786 783.21 620.38 782.487 619.656C781.764 618.933 781.357 617.952 781.357 616.929Z" fill="black"/>
<path d="M798.714 613.714C798.123 613.714 797.538 613.831 796.992 614.057C796.446 614.283 795.95 614.615 795.532 615.032C795.115 615.45 794.783 615.946 794.557 616.492C794.331 617.038 794.214 617.623 794.214 618.214C794.214 618.805 794.331 619.39 794.557 619.936C794.783 620.482 795.115 620.978 795.532 621.396C795.95 621.814 796.446 622.146 796.992 622.372C797.538 622.598 798.123 622.714 798.714 622.714C799.908 622.714 801.052 622.24 801.896 621.396C802.74 620.552 803.214 619.408 803.214 618.214C803.214 617.021 802.74 615.876 801.896 615.032C801.052 614.188 799.908 613.714 798.714 613.714ZM796.143 618.214C796.143 617.532 796.414 616.878 796.896 616.396C797.378 615.914 798.032 615.643 798.714 615.643C799.396 615.643 800.05 615.914 800.533 616.396C801.015 616.878 801.286 617.532 801.286 618.214C801.286 618.896 801.015 619.55 800.533 620.033C800.05 620.515 799.396 620.786 798.714 620.786C798.032 620.786 797.378 620.515 796.896 620.033C796.414 619.55 796.143 618.896 796.143 618.214Z" fill="black"/>
<path d="M778.464 625.286C777.697 625.286 776.961 625.59 776.419 626.133C775.876 626.675 775.571 627.411 775.571 628.179V628.861C775.573 628.965 775.58 629.069 775.593 629.172C775.615 629.369 775.656 629.639 775.735 629.959C775.948 630.803 776.327 631.596 776.849 632.293C778.153 634.032 780.64 635.571 785.214 635.571C787.183 635.571 788.765 635.286 790.032 634.823C789.864 634.185 789.762 633.531 789.728 632.871C788.653 633.328 787.195 633.643 785.214 633.643C781.11 633.643 779.257 632.289 778.392 631.136C778.024 630.645 777.757 630.086 777.608 629.491C777.554 629.277 777.518 629.058 777.501 628.838L777.5 628.815V628.179C777.5 627.923 777.601 627.677 777.782 627.497C777.963 627.316 778.208 627.214 778.464 627.214H791.199C791.623 626.544 792.127 625.928 792.701 625.381C792.46 625.318 792.213 625.286 791.964 625.286H778.464Z" fill="black"/>
<path d="M807.714 632.357C807.714 634.574 806.834 636.699 805.267 638.267C803.699 639.834 801.574 640.714 799.357 640.714C797.141 640.714 795.015 639.834 793.448 638.267C791.88 636.699 791 634.574 791 632.357C791 630.141 791.88 628.015 793.448 626.448C795.015 624.88 797.141 624 799.357 624C801.574 624 803.699 624.88 805.267 626.448C806.834 628.015 807.714 630.141 807.714 632.357ZM800 627.214C800 627.044 799.932 626.88 799.812 626.76C799.691 626.639 799.528 626.571 799.357 626.571C799.187 626.571 799.023 626.639 798.903 626.76C798.782 626.88 798.714 627.044 798.714 627.214V631.714H794.214C794.044 631.714 793.88 631.782 793.76 631.903C793.639 632.023 793.571 632.187 793.571 632.357C793.571 632.528 793.639 632.691 793.76 632.812C793.88 632.932 794.044 633 794.214 633H798.714V637.5C798.714 637.67 798.782 637.834 798.903 637.955C799.023 638.075 799.187 638.143 799.357 638.143C799.528 638.143 799.691 638.075 799.812 637.955C799.932 637.834 800 637.67 800 637.5V633H804.5C804.67 633 804.834 632.932 804.955 632.812C805.075 632.691 805.143 632.528 805.143 632.357C805.143 632.187 805.075 632.023 804.955 631.903C804.834 631.782 804.67 631.714 804.5 631.714H800V627.214Z" fill="black"/>
<path d="M843.371 610.406V613.57L833.809 636H827.551L837.131 614.977H824.914V610.406H843.371ZM846.482 616.682V615.328C846.482 614.355 846.693 613.471 847.115 612.674C847.537 611.877 848.17 611.238 849.014 610.758C849.857 610.277 850.906 610.037 852.16 610.037C853.449 610.037 854.516 610.277 855.359 610.758C856.203 611.238 856.83 611.877 857.24 612.674C857.662 613.471 857.873 614.355 857.873 615.328V616.682C857.873 617.631 857.662 618.504 857.24 619.301C856.83 620.098 856.203 620.736 855.359 621.217C854.527 621.697 853.479 621.938 852.213 621.938C850.936 621.938 849.875 621.697 849.031 621.217C848.188 620.736 847.549 620.098 847.115 619.301C846.693 618.504 846.482 617.631 846.482 616.682ZM850.279 615.328V616.682C850.279 617.033 850.35 617.367 850.49 617.684C850.631 618 850.842 618.258 851.123 618.457C851.416 618.645 851.773 618.738 852.195 618.738C852.629 618.738 852.98 618.645 853.25 618.457C853.52 618.258 853.719 618 853.848 617.684C853.988 617.367 854.059 617.033 854.059 616.682V615.328C854.059 614.953 853.988 614.607 853.848 614.291C853.719 613.975 853.514 613.723 853.232 613.535C852.951 613.336 852.594 613.236 852.16 613.236C851.75 613.236 851.404 613.336 851.123 613.535C850.842 613.723 850.631 613.975 850.49 614.291C850.35 614.607 850.279 614.953 850.279 615.328ZM858.629 631.078V629.725C858.629 628.764 858.84 627.885 859.262 627.088C859.695 626.291 860.334 625.652 861.178 625.172C862.033 624.691 863.088 624.451 864.342 624.451C865.631 624.451 866.691 624.691 867.523 625.172C868.367 625.652 868.994 626.291 869.404 627.088C869.826 627.885 870.037 628.764 870.037 629.725V631.078C870.037 632.039 869.826 632.918 869.404 633.715C868.994 634.512 868.373 635.15 867.541 635.631C866.709 636.111 865.66 636.352 864.395 636.352C863.117 636.352 862.051 636.111 861.195 635.631C860.34 635.15 859.695 634.512 859.262 633.715C858.84 632.918 858.629 632.039 858.629 631.078ZM862.443 629.725V631.078C862.443 631.441 862.531 631.781 862.707 632.098C862.883 632.414 863.117 632.672 863.41 632.871C863.703 633.059 864.025 633.152 864.377 633.152C864.916 633.152 865.314 633.059 865.572 632.871C865.842 632.672 866.018 632.414 866.1 632.098C866.193 631.781 866.24 631.441 866.24 631.078V629.725C866.24 629.361 866.17 629.021 866.029 628.705C865.889 628.389 865.678 628.137 865.396 627.949C865.115 627.75 864.764 627.65 864.342 627.65C863.92 627.65 863.568 627.75 863.287 627.949C863.006 628.137 862.795 628.389 862.654 628.705C862.514 629.021 862.443 629.361 862.443 629.725ZM865.818 614.08L853.32 634.084L850.561 632.695L863.059 612.691L865.818 614.08Z" fill="white"/>
<path d="M727.672 684.547H729.734L729.656 687.453C729.63 688.333 729.526 689.094 729.344 689.734C729.167 690.37 728.93 690.904 728.633 691.336C728.341 691.768 728.008 692.117 727.633 692.383C727.263 692.648 726.875 692.854 726.469 693H725.977L725.969 691.391L726.211 691.375C726.456 691.115 726.661 690.859 726.828 690.609C727 690.354 727.138 690.081 727.242 689.789C727.346 689.497 727.424 689.164 727.477 688.789C727.534 688.409 727.57 687.964 727.586 687.453L727.672 684.547ZM728.227 684.547H733.703V693H731.641V686.242H728.227V684.547ZM725.508 691.375H734.883V695.531H732.82V693H727.609V695.531H725.5L725.508 691.375ZM735.781 688.859V688.695C735.781 688.076 735.87 687.505 736.047 686.984C736.224 686.458 736.482 686.003 736.82 685.617C737.159 685.232 737.573 684.932 738.062 684.719C738.552 684.5 739.109 684.391 739.734 684.391C740.37 684.391 740.932 684.5 741.422 684.719C741.917 684.932 742.333 685.232 742.672 685.617C743.01 686.003 743.268 686.458 743.445 686.984C743.622 687.505 743.711 688.076 743.711 688.695V688.859C743.711 689.474 743.622 690.044 743.445 690.57C743.268 691.091 743.01 691.547 742.672 691.938C742.333 692.323 741.919 692.622 741.43 692.836C740.94 693.049 740.38 693.156 739.75 693.156C739.125 693.156 738.565 693.049 738.07 692.836C737.576 692.622 737.159 692.323 736.82 691.938C736.482 691.547 736.224 691.091 736.047 690.57C735.87 690.044 735.781 689.474 735.781 688.859ZM737.844 688.695V688.859C737.844 689.229 737.88 689.576 737.953 689.898C738.026 690.221 738.138 690.505 738.289 690.75C738.44 690.995 738.635 691.188 738.875 691.328C739.12 691.464 739.411 691.531 739.75 691.531C740.083 691.531 740.37 691.464 740.609 691.328C740.849 691.188 741.044 690.995 741.195 690.75C741.352 690.505 741.466 690.221 741.539 689.898C741.612 689.576 741.648 689.229 741.648 688.859V688.695C741.648 688.331 741.612 687.99 741.539 687.672C741.466 687.349 741.352 687.065 741.195 686.82C741.044 686.57 740.846 686.375 740.602 686.234C740.362 686.089 740.073 686.016 739.734 686.016C739.401 686.016 739.115 686.089 738.875 686.234C738.635 686.375 738.44 686.57 738.289 686.82C738.138 687.065 738.026 687.349 737.953 687.672C737.88 687.99 737.844 688.331 737.844 688.695ZM756.727 681.625V682.75L752.258 693H750.078L754.547 683.25H748.766V681.625H756.727ZM758.172 684.414V683.812C758.172 683.38 758.266 682.987 758.453 682.633C758.641 682.279 758.914 681.995 759.273 681.781C759.638 681.568 760.081 681.461 760.602 681.461C761.133 681.461 761.578 681.568 761.938 681.781C762.302 681.995 762.576 682.279 762.758 682.633C762.945 682.987 763.039 683.38 763.039 683.812V684.414C763.039 684.836 762.945 685.224 762.758 685.578C762.576 685.932 762.305 686.216 761.945 686.43C761.586 686.643 761.143 686.75 760.617 686.75C760.091 686.75 759.646 686.643 759.281 686.43C758.917 686.216 758.641 685.932 758.453 685.578C758.266 685.224 758.172 684.836 758.172 684.414ZM759.57 683.812V684.414C759.57 684.612 759.607 684.799 759.68 684.977C759.758 685.148 759.875 685.289 760.031 685.398C760.188 685.508 760.383 685.562 760.617 685.562C760.852 685.562 761.042 685.508 761.188 685.398C761.339 685.289 761.451 685.148 761.523 684.977C761.602 684.799 761.641 684.612 761.641 684.414V683.812C761.641 683.609 761.602 683.419 761.523 683.242C761.451 683.065 761.336 682.922 761.18 682.812C761.029 682.703 760.836 682.648 760.602 682.648C760.372 682.648 760.18 682.703 760.023 682.812C759.872 682.922 759.758 683.065 759.68 683.242C759.607 683.419 759.57 683.609 759.57 683.812ZM763.633 690.812V690.211C763.633 689.784 763.727 689.393 763.914 689.039C764.107 688.685 764.385 688.401 764.75 688.188C765.115 687.974 765.555 687.867 766.07 687.867C766.607 687.867 767.055 687.974 767.414 688.188C767.773 688.401 768.044 688.685 768.227 689.039C768.414 689.393 768.508 689.784 768.508 690.211V690.812C768.508 691.24 768.414 691.63 768.227 691.984C768.044 692.339 767.773 692.622 767.414 692.836C767.06 693.049 766.62 693.156 766.094 693.156C765.568 693.156 765.12 693.049 764.75 692.836C764.385 692.622 764.107 692.339 763.914 691.984C763.727 691.63 763.633 691.24 763.633 690.812ZM765.039 690.211V690.812C765.039 691.016 765.081 691.206 765.164 691.383C765.247 691.555 765.367 691.695 765.523 691.805C765.685 691.914 765.872 691.969 766.086 691.969C766.346 691.969 766.552 691.914 766.703 691.805C766.854 691.695 766.961 691.555 767.023 691.383C767.086 691.206 767.117 691.016 767.117 690.812V690.211C767.117 690.008 767.078 689.82 767 689.648C766.922 689.471 766.805 689.328 766.648 689.219C766.497 689.109 766.305 689.055 766.07 689.055C765.841 689.055 765.648 689.109 765.492 689.219C765.341 689.328 765.227 689.471 765.148 689.648C765.076 689.82 765.039 690.008 765.039 690.211ZM766.586 683.25L761.031 692.141L760.008 691.57L765.562 682.68L766.586 683.25ZM777.273 688.906H775.914V688.273H777.195C777.716 688.273 778.13 688.214 778.438 688.094C778.745 687.969 778.966 687.794 779.102 687.57C779.237 687.346 779.305 687.083 779.305 686.781C779.305 686.49 779.232 686.224 779.086 685.984C778.945 685.745 778.719 685.552 778.406 685.406C778.094 685.26 777.68 685.188 777.164 685.188C776.768 685.188 776.404 685.258 776.07 685.398C775.737 685.539 775.469 685.732 775.266 685.977C775.068 686.221 774.969 686.505 774.969 686.828H774.031C774.031 686.328 774.177 685.896 774.469 685.531C774.76 685.167 775.143 684.885 775.617 684.688C776.096 684.49 776.612 684.391 777.164 684.391C777.643 684.391 778.073 684.443 778.453 684.547C778.833 684.651 779.156 684.805 779.422 685.008C779.688 685.211 779.891 685.464 780.031 685.766C780.172 686.062 780.242 686.404 780.242 686.789C780.242 687.081 780.174 687.354 780.039 687.609C779.909 687.865 779.716 688.091 779.461 688.289C779.211 688.482 778.901 688.633 778.531 688.742C778.167 688.852 777.747 688.906 777.273 688.906ZM775.914 688.477H777.273C777.794 688.477 778.25 688.526 778.641 688.625C779.031 688.719 779.357 688.859 779.617 689.047C779.878 689.234 780.07 689.466 780.195 689.742C780.326 690.013 780.391 690.326 780.391 690.68C780.391 691.065 780.312 691.411 780.156 691.719C780.005 692.026 779.786 692.286 779.5 692.5C779.214 692.714 778.872 692.875 778.477 692.984C778.081 693.094 777.643 693.148 777.164 693.148C776.648 693.148 776.138 693.057 775.633 692.875C775.133 692.693 774.719 692.411 774.391 692.031C774.062 691.651 773.898 691.167 773.898 690.578H774.828C774.828 690.901 774.93 691.198 775.133 691.469C775.336 691.74 775.612 691.956 775.961 692.117C776.315 692.279 776.716 692.359 777.164 692.359C777.669 692.359 778.091 692.289 778.43 692.148C778.768 692.003 779.023 691.805 779.195 691.555C779.367 691.305 779.453 691.018 779.453 690.695C779.453 690.315 779.37 690.008 779.203 689.773C779.042 689.539 778.794 689.367 778.461 689.258C778.128 689.148 777.706 689.094 777.195 689.094H775.914V688.477ZM787.602 691.484V687.125C787.602 686.724 787.518 686.378 787.352 686.086C787.185 685.794 786.94 685.57 786.617 685.414C786.294 685.258 785.896 685.18 785.422 685.18C784.984 685.18 784.594 685.258 784.25 685.414C783.911 685.565 783.643 685.771 783.445 686.031C783.253 686.286 783.156 686.57 783.156 686.883L782.219 686.875C782.219 686.557 782.297 686.25 782.453 685.953C782.609 685.656 782.831 685.391 783.117 685.156C783.404 684.922 783.745 684.737 784.141 684.602C784.542 684.461 784.982 684.391 785.461 684.391C786.065 684.391 786.596 684.492 787.055 684.695C787.518 684.898 787.88 685.203 788.141 685.609C788.401 686.016 788.531 686.526 788.531 687.141V691.227C788.531 691.518 788.552 691.82 788.594 692.133C788.641 692.445 788.706 692.703 788.789 692.906V693H787.797C787.734 692.812 787.685 692.578 787.648 692.297C787.617 692.01 787.602 691.74 787.602 691.484ZM787.82 688.078L787.836 688.797H786C785.521 688.797 785.091 688.841 784.711 688.93C784.336 689.013 784.018 689.138 783.758 689.305C783.497 689.466 783.297 689.661 783.156 689.891C783.021 690.12 782.953 690.38 782.953 690.672C782.953 690.974 783.029 691.25 783.18 691.5C783.336 691.75 783.555 691.951 783.836 692.102C784.122 692.247 784.461 692.32 784.852 692.32C785.372 692.32 785.831 692.224 786.227 692.031C786.628 691.839 786.958 691.586 787.219 691.273C787.479 690.961 787.654 690.62 787.742 690.25L788.148 690.789C788.081 691.049 787.956 691.318 787.773 691.594C787.596 691.865 787.365 692.12 787.078 692.359C786.792 692.594 786.453 692.786 786.062 692.938C785.677 693.083 785.24 693.156 784.75 693.156C784.198 693.156 783.716 693.052 783.305 692.844C782.898 692.635 782.581 692.352 782.352 691.992C782.128 691.628 782.016 691.216 782.016 690.758C782.016 690.341 782.104 689.969 782.281 689.641C782.458 689.307 782.714 689.026 783.047 688.797C783.385 688.562 783.792 688.385 784.266 688.266C784.745 688.141 785.281 688.078 785.875 688.078H787.82ZM797.453 692.156L800.086 684.547H801.094L797.516 694.359C797.443 694.552 797.349 694.766 797.234 695C797.125 695.234 796.979 695.458 796.797 695.672C796.62 695.891 796.396 696.068 796.125 696.203C795.859 696.344 795.534 696.414 795.148 696.414C795.049 696.414 794.922 696.401 794.766 696.375C794.615 696.354 794.505 696.333 794.438 696.312L794.43 695.523C794.487 695.539 794.57 695.552 794.68 695.562C794.789 695.573 794.865 695.578 794.906 695.578C795.245 695.578 795.529 695.521 795.758 695.406C795.992 695.292 796.188 695.12 796.344 694.891C796.5 694.667 796.638 694.385 796.758 694.047L797.453 692.156ZM794.992 684.547L797.688 691.805L797.938 692.781L797.258 693.164L793.977 684.547H794.992ZM803.617 684.547H804.547L804.406 687.594C804.37 688.406 804.279 689.112 804.133 689.711C803.992 690.305 803.818 690.812 803.609 691.234C803.401 691.651 803.172 692.003 802.922 692.289C802.677 692.57 802.427 692.807 802.172 693H801.664L801.68 692.203L801.914 692.195C802.065 692.013 802.221 691.807 802.383 691.578C802.549 691.344 802.708 691.057 802.859 690.719C803.01 690.38 803.141 689.958 803.25 689.453C803.359 688.948 803.432 688.328 803.469 687.594L803.617 684.547ZM803.922 684.547H808.602V693H807.672V685.422H803.922V684.547ZM801.305 692.195H809.484V695.484H808.547V693H802.195V695.484H801.305V692.195ZM816.43 691.484V687.125C816.43 686.724 816.346 686.378 816.18 686.086C816.013 685.794 815.768 685.57 815.445 685.414C815.122 685.258 814.724 685.18 814.25 685.18C813.812 685.18 813.422 685.258 813.078 685.414C812.74 685.565 812.471 685.771 812.273 686.031C812.081 686.286 811.984 686.57 811.984 686.883L811.047 686.875C811.047 686.557 811.125 686.25 811.281 685.953C811.438 685.656 811.659 685.391 811.945 685.156C812.232 684.922 812.573 684.737 812.969 684.602C813.37 684.461 813.81 684.391 814.289 684.391C814.893 684.391 815.424 684.492 815.883 684.695C816.346 684.898 816.708 685.203 816.969 685.609C817.229 686.016 817.359 686.526 817.359 687.141V691.227C817.359 691.518 817.38 691.82 817.422 692.133C817.469 692.445 817.534 692.703 817.617 692.906V693H816.625C816.562 692.812 816.513 692.578 816.477 692.297C816.445 692.01 816.43 691.74 816.43 691.484ZM816.648 688.078L816.664 688.797H814.828C814.349 688.797 813.919 688.841 813.539 688.93C813.164 689.013 812.846 689.138 812.586 689.305C812.326 689.466 812.125 689.661 811.984 689.891C811.849 690.12 811.781 690.38 811.781 690.672C811.781 690.974 811.857 691.25 812.008 691.5C812.164 691.75 812.383 691.951 812.664 692.102C812.951 692.247 813.289 692.32 813.68 692.32C814.201 692.32 814.659 692.224 815.055 692.031C815.456 691.839 815.786 691.586 816.047 691.273C816.307 690.961 816.482 690.62 816.57 690.25L816.977 690.789C816.909 691.049 816.784 691.318 816.602 691.594C816.424 691.865 816.193 692.12 815.906 692.359C815.62 692.594 815.281 692.786 814.891 692.938C814.505 693.083 814.068 693.156 813.578 693.156C813.026 693.156 812.544 693.052 812.133 692.844C811.727 692.635 811.409 692.352 811.18 691.992C810.956 691.628 810.844 691.216 810.844 690.758C810.844 690.341 810.932 689.969 811.109 689.641C811.286 689.307 811.542 689.026 811.875 688.797C812.214 688.562 812.62 688.385 813.094 688.266C813.573 688.141 814.109 688.078 814.703 688.078H816.648ZM825.875 684.547V693H824.945V684.547H825.875ZM825.555 688.383V689.188C825.315 689.302 825.039 689.411 824.727 689.516C824.419 689.62 824.094 689.706 823.75 689.773C823.411 689.836 823.073 689.867 822.734 689.867C822.036 689.867 821.445 689.766 820.961 689.562C820.482 689.359 820.12 689.026 819.875 688.562C819.63 688.094 819.508 687.469 819.508 686.688V684.539H820.438V686.688C820.438 687.286 820.521 687.76 820.688 688.109C820.854 688.453 821.107 688.698 821.445 688.844C821.784 688.99 822.214 689.062 822.734 689.062C823.094 689.052 823.451 689.016 823.805 688.953C824.159 688.885 824.487 688.802 824.789 688.703C825.096 688.599 825.352 688.492 825.555 688.383ZM834.148 688.328V689.125H829.133V688.328H834.148ZM829.375 684.547V693H828.445V684.547H829.375ZM834.867 684.547V693H833.93V684.547H834.867ZM839.891 692.156L842.523 684.547H843.531L839.953 694.359C839.88 694.552 839.786 694.766 839.672 695C839.562 695.234 839.417 695.458 839.234 695.672C839.057 695.891 838.833 696.068 838.562 696.203C838.297 696.344 837.971 696.414 837.586 696.414C837.487 696.414 837.359 696.401 837.203 696.375C837.052 696.354 836.943 696.333 836.875 696.312L836.867 695.523C836.924 695.539 837.008 695.552 837.117 695.562C837.227 695.573 837.302 695.578 837.344 695.578C837.682 695.578 837.966 695.521 838.195 695.406C838.43 695.292 838.625 695.12 838.781 694.891C838.938 694.667 839.076 694.385 839.195 694.047L839.891 692.156ZM837.43 684.547L840.125 691.805L840.375 692.781L839.695 693.164L836.414 684.547H837.43ZM849.172 688.391V689.188H845.219V688.391H849.172ZM846.023 684.547V693H845.094V684.547H846.023ZM848.422 688.906V688.648C848.422 688.034 848.51 687.466 848.688 686.945C848.865 686.424 849.117 685.974 849.445 685.594C849.779 685.214 850.177 684.919 850.641 684.711C851.104 684.497 851.62 684.391 852.188 684.391C852.76 684.391 853.279 684.497 853.742 684.711C854.206 684.919 854.604 685.214 854.938 685.594C855.271 685.974 855.526 686.424 855.703 686.945C855.88 687.466 855.969 688.034 855.969 688.648V688.906C855.969 689.521 855.88 690.089 855.703 690.609C855.526 691.125 855.271 691.573 854.938 691.953C854.609 692.333 854.214 692.63 853.75 692.844C853.286 693.052 852.771 693.156 852.203 693.156C851.63 693.156 851.112 693.052 850.648 692.844C850.185 692.63 849.786 692.333 849.453 691.953C849.12 691.573 848.865 691.125 848.688 690.609C848.51 690.089 848.422 689.521 848.422 688.906ZM849.359 688.648V688.906C849.359 689.37 849.419 689.81 849.539 690.227C849.664 690.638 849.846 691.005 850.086 691.328C850.331 691.646 850.628 691.896 850.977 692.078C851.331 692.26 851.74 692.352 852.203 692.352C852.661 692.352 853.065 692.26 853.414 692.078C853.768 691.896 854.065 691.646 854.305 691.328C854.544 691.005 854.727 690.638 854.852 690.227C854.977 689.81 855.039 689.37 855.039 688.906V688.648C855.039 688.19 854.977 687.755 854.852 687.344C854.727 686.932 854.542 686.565 854.297 686.242C854.057 685.919 853.76 685.664 853.406 685.477C853.052 685.289 852.646 685.195 852.188 685.195C851.729 685.195 851.326 685.289 850.977 685.477C850.628 685.664 850.331 685.919 850.086 686.242C849.846 686.565 849.664 686.932 849.539 687.344C849.419 687.755 849.359 688.19 849.359 688.648ZM770.031 711.352C770.427 711.352 770.797 711.279 771.141 711.133C771.49 710.982 771.776 710.76 772 710.469C772.229 710.172 772.359 709.81 772.391 709.383H773.281C773.255 709.919 773.091 710.398 772.789 710.82C772.492 711.237 772.102 711.565 771.617 711.805C771.138 712.039 770.609 712.156 770.031 712.156C769.443 712.156 768.922 712.049 768.469 711.836C768.021 711.622 767.646 711.326 767.344 710.945C767.042 710.56 766.812 710.112 766.656 709.602C766.505 709.086 766.43 708.531 766.43 707.938V707.609C766.43 707.016 766.505 706.464 766.656 705.953C766.812 705.438 767.042 704.99 767.344 704.609C767.646 704.224 768.021 703.924 768.469 703.711C768.917 703.497 769.435 703.391 770.023 703.391C770.628 703.391 771.169 703.513 771.648 703.758C772.133 704.003 772.518 704.349 772.805 704.797C773.096 705.245 773.255 705.776 773.281 706.391H772.391C772.365 705.938 772.245 705.547 772.031 705.219C771.818 704.891 771.536 704.638 771.188 704.461C770.839 704.284 770.451 704.195 770.023 704.195C769.544 704.195 769.135 704.289 768.797 704.477C768.458 704.659 768.182 704.911 767.969 705.234C767.76 705.552 767.607 705.917 767.508 706.328C767.409 706.734 767.359 707.161 767.359 707.609V707.938C767.359 708.391 767.406 708.823 767.5 709.234C767.599 709.641 767.753 710.003 767.961 710.32C768.174 710.638 768.451 710.891 768.789 711.078C769.133 711.26 769.547 711.352 770.031 711.352ZM776.664 703.547H777.594L777.453 706.594C777.417 707.406 777.326 708.112 777.18 708.711C777.039 709.305 776.865 709.812 776.656 710.234C776.448 710.651 776.219 711.003 775.969 711.289C775.724 711.57 775.474 711.807 775.219 712H774.711L774.727 711.203L774.961 711.195C775.112 711.013 775.268 710.807 775.43 710.578C775.596 710.344 775.755 710.057 775.906 709.719C776.057 709.38 776.188 708.958 776.297 708.453C776.406 707.948 776.479 707.328 776.516 706.594L776.664 703.547ZM776.969 703.547H781.648V712H780.719V704.422H776.969V703.547ZM774.352 711.195H782.531V714.484H781.594V712H775.242V714.484H774.352V711.195ZM787.602 712.156C787.049 712.156 786.542 712.055 786.078 711.852C785.62 711.648 785.219 711.362 784.875 710.992C784.536 710.622 784.273 710.185 784.086 709.68C783.904 709.169 783.812 708.612 783.812 708.008V707.672C783.812 707.021 783.909 706.432 784.102 705.906C784.294 705.38 784.56 704.93 784.898 704.555C785.237 704.18 785.622 703.893 786.055 703.695C786.492 703.492 786.951 703.391 787.43 703.391C787.966 703.391 788.443 703.487 788.859 703.68C789.276 703.867 789.625 704.135 789.906 704.484C790.193 704.828 790.409 705.237 790.555 705.711C790.701 706.18 790.773 706.698 790.773 707.266V707.836H784.375V707.039H789.844V706.93C789.833 706.456 789.737 706.013 789.555 705.602C789.378 705.185 789.112 704.846 788.758 704.586C788.404 704.326 787.961 704.195 787.43 704.195C787.034 704.195 786.669 704.279 786.336 704.445C786.008 704.612 785.724 704.852 785.484 705.164C785.25 705.471 785.068 705.839 784.938 706.266C784.812 706.688 784.75 707.156 784.75 707.672V708.008C784.75 708.477 784.818 708.914 784.953 709.32C785.094 709.721 785.292 710.076 785.547 710.383C785.807 710.69 786.115 710.93 786.469 711.102C786.823 711.273 787.214 711.359 787.641 711.359C788.141 711.359 788.583 711.268 788.969 711.086C789.354 710.898 789.701 710.604 790.008 710.203L790.594 710.656C790.411 710.927 790.182 711.177 789.906 711.406C789.635 711.635 789.31 711.818 788.93 711.953C788.549 712.089 788.107 712.156 787.602 712.156ZM798.352 703.547V704.359H794.07V703.547H798.352ZM799.109 703.547V712H798.18V703.547H799.109ZM793.82 703.547H794.75L794.562 707.508C794.531 708.148 794.479 708.716 794.406 709.211C794.339 709.706 794.245 710.13 794.125 710.484C794.005 710.833 793.852 711.12 793.664 711.344C793.482 711.568 793.26 711.734 793 711.844C792.74 711.948 792.435 712 792.086 712H791.734V711.156L792.023 711.148C792.247 711.138 792.443 711.091 792.609 711.008C792.781 710.924 792.927 710.792 793.047 710.609C793.172 710.427 793.273 710.188 793.352 709.891C793.435 709.594 793.5 709.232 793.547 708.805C793.599 708.372 793.638 707.865 793.664 707.281L793.82 703.547ZM802.625 703.547V712H801.688V703.547H802.625ZM808.188 703.547L804.312 708.125H802.297L802.195 707.289H803.914L807.008 703.547H808.188ZM807.344 712L803.82 708L804.414 707.281L808.578 712H807.344ZM812.438 711.156L815.07 703.547H816.078L812.5 713.359C812.427 713.552 812.333 713.766 812.219 714C812.109 714.234 811.964 714.458 811.781 714.672C811.604 714.891 811.38 715.068 811.109 715.203C810.844 715.344 810.518 715.414 810.133 715.414C810.034 715.414 809.906 715.401 809.75 715.375C809.599 715.354 809.49 715.333 809.422 715.312L809.414 714.523C809.471 714.539 809.555 714.552 809.664 714.562C809.773 714.573 809.849 714.578 809.891 714.578C810.229 714.578 810.513 714.521 810.742 714.406C810.977 714.292 811.172 714.12 811.328 713.891C811.484 713.667 811.622 713.385 811.742 713.047L812.438 711.156ZM809.977 703.547L812.672 710.805L812.922 711.781L812.242 712.164L808.961 703.547H809.977Z" fill="black"/>
<circle cx="968" cy="624" r="46" fill="#B79069"/>
<circle cx="1023.5" cy="623.5" r="30.5" fill="#B79069"/>
<path d="M962.214 611.143C960.68 611.143 959.208 611.753 958.123 612.838C957.038 613.923 956.429 615.394 956.429 616.929C956.429 618.463 957.038 619.935 958.123 621.02C959.208 622.105 960.68 622.714 962.214 622.714C963.749 622.714 965.221 622.105 966.306 621.02C967.391 619.935 968 618.463 968 616.929C968 615.394 967.391 613.923 966.306 612.838C965.221 611.753 963.749 611.143 962.214 611.143ZM958.357 616.929C958.357 616.422 958.457 615.921 958.651 615.453C958.845 614.985 959.129 614.56 959.487 614.201C959.845 613.843 960.27 613.559 960.738 613.365C961.206 613.171 961.708 613.072 962.214 613.072C962.721 613.072 963.223 613.171 963.69 613.365C964.158 613.559 964.584 613.843 964.942 614.201C965.3 614.56 965.584 614.985 965.778 615.453C965.972 615.921 966.072 616.422 966.072 616.929C966.072 617.952 965.665 618.933 964.942 619.656C964.218 620.38 963.237 620.786 962.214 620.786C961.191 620.786 960.21 620.38 959.487 619.656C958.764 618.933 958.357 617.952 958.357 616.929Z" fill="black"/>
<path d="M975.714 613.714C975.123 613.714 974.538 613.831 973.992 614.057C973.446 614.283 972.95 614.615 972.532 615.032C972.115 615.45 971.783 615.946 971.557 616.492C971.331 617.038 971.214 617.623 971.214 618.214C971.214 618.805 971.331 619.39 971.557 619.936C971.783 620.482 972.115 620.978 972.532 621.396C972.95 621.814 973.446 622.146 973.992 622.372C974.538 622.598 975.123 622.714 975.714 622.714C976.908 622.714 978.052 622.24 978.896 621.396C979.74 620.552 980.214 619.408 980.214 618.214C980.214 617.021 979.74 615.876 978.896 615.032C978.052 614.188 976.908 613.714 975.714 613.714ZM973.143 618.214C973.143 617.532 973.414 616.878 973.896 616.396C974.378 615.914 975.032 615.643 975.714 615.643C976.396 615.643 977.05 615.914 977.533 616.396C978.015 616.878 978.286 617.532 978.286 618.214C978.286 618.896 978.015 619.55 977.533 620.033C977.05 620.515 976.396 620.786 975.714 620.786C975.032 620.786 974.378 620.515 973.896 620.033C973.414 619.55 973.143 618.896 973.143 618.214Z" fill="black"/>
<path d="M955.464 625.286C954.697 625.286 953.961 625.59 953.419 626.133C952.876 626.675 952.571 627.411 952.571 628.179V628.861C952.573 628.965 952.58 629.069 952.593 629.172C952.615 629.369 952.656 629.639 952.735 629.959C952.948 630.803 953.327 631.596 953.849 632.293C955.153 634.032 957.64 635.571 962.214 635.571C964.183 635.571 965.765 635.286 967.032 634.823C966.864 634.185 966.762 633.531 966.728 632.871C965.653 633.328 964.195 633.643 962.214 633.643C958.11 633.643 956.257 632.289 955.392 631.136C955.024 630.645 954.757 630.086 954.608 629.491C954.554 629.277 954.518 629.058 954.501 628.838L954.5 628.815V628.179C954.5 627.923 954.601 627.677 954.782 627.497C954.963 627.316 955.208 627.214 955.464 627.214H968.199C968.623 626.544 969.127 625.928 969.701 625.381C969.46 625.318 969.213 625.286 968.964 625.286H955.464Z" fill="black"/>
<path d="M984.714 632.357C984.714 634.574 983.834 636.699 982.267 638.267C980.699 639.834 978.574 640.714 976.357 640.714C974.141 640.714 972.015 639.834 970.448 638.267C968.88 636.699 968 634.574 968 632.357C968 630.141 968.88 628.015 970.448 626.448C972.015 624.88 974.141 624 976.357 624C978.574 624 980.699 624.88 982.267 626.448C983.834 628.015 984.714 630.141 984.714 632.357ZM977 627.214C977 627.044 976.932 626.88 976.812 626.76C976.691 626.639 976.528 626.571 976.357 626.571C976.187 626.571 976.023 626.639 975.903 626.76C975.782 626.88 975.714 627.044 975.714 627.214V631.714H971.214C971.044 631.714 970.88 631.782 970.76 631.903C970.639 632.023 970.571 632.187 970.571 632.357C970.571 632.528 970.639 632.691 970.76 632.812C970.88 632.932 971.044 633 971.214 633H975.714V637.5C975.714 637.67 975.782 637.834 975.903 637.955C976.023 638.075 976.187 638.143 976.357 638.143C976.528 638.143 976.691 638.075 976.812 637.955C976.932 637.834 977 637.67 977 637.5V633H981.5C981.67 633 981.834 632.932 981.955 632.812C982.075 632.691 982.143 632.528 982.143 632.357C982.143 632.187 982.075 632.023 981.955 631.903C981.834 631.782 981.67 631.714 981.5 631.714H977V627.214Z" fill="black"/>
<path d="M1005.64 624.592L1000.93 623.484L1002.48 610.406H1017.44V615.012H1007.31L1006.73 620.092C1007.02 619.928 1007.49 619.734 1008.16 619.512C1008.84 619.277 1009.59 619.16 1010.41 619.16C1011.67 619.16 1012.79 619.354 1013.77 619.74C1014.75 620.115 1015.58 620.672 1016.26 621.41C1016.94 622.137 1017.45 623.033 1017.79 624.1C1018.14 625.166 1018.32 626.385 1018.32 627.756C1018.32 628.857 1018.14 629.924 1017.77 630.955C1017.42 631.975 1016.88 632.895 1016.14 633.715C1015.41 634.523 1014.49 635.168 1013.38 635.648C1012.27 636.117 1010.95 636.352 1009.42 636.352C1008.29 636.352 1007.18 636.176 1006.1 635.824C1005.02 635.473 1004.05 634.969 1003.18 634.312C1002.33 633.645 1001.65 632.842 1001.14 631.904C1000.65 630.955 1000.41 629.895 1000.42 628.723H1006.38C1006.42 629.344 1006.56 629.883 1006.82 630.34C1007.08 630.797 1007.43 631.154 1007.86 631.412C1008.3 631.658 1008.81 631.781 1009.39 631.781C1009.97 631.781 1010.46 631.664 1010.85 631.43C1011.23 631.195 1011.54 630.873 1011.76 630.463C1011.98 630.053 1012.14 629.584 1012.24 629.057C1012.33 628.518 1012.38 627.949 1012.38 627.352C1012.38 626.719 1012.31 626.15 1012.17 625.646C1012.04 625.143 1011.83 624.715 1011.53 624.363C1011.24 624 1010.86 623.725 1010.39 623.537C1009.93 623.35 1009.38 623.256 1008.74 623.256C1007.88 623.256 1007.21 623.402 1006.72 623.695C1006.22 623.988 1005.87 624.287 1005.64 624.592ZM1021.48 616.682V615.328C1021.48 614.355 1021.69 613.471 1022.12 612.674C1022.54 611.877 1023.17 611.238 1024.01 610.758C1024.86 610.277 1025.91 610.037 1027.16 610.037C1028.45 610.037 1029.52 610.277 1030.36 610.758C1031.2 611.238 1031.83 611.877 1032.24 612.674C1032.66 613.471 1032.87 614.355 1032.87 615.328V616.682C1032.87 617.631 1032.66 618.504 1032.24 619.301C1031.83 620.098 1031.2 620.736 1030.36 621.217C1029.53 621.697 1028.48 621.938 1027.21 621.938C1025.94 621.938 1024.88 621.697 1024.03 621.217C1023.19 620.736 1022.55 620.098 1022.12 619.301C1021.69 618.504 1021.48 617.631 1021.48 616.682ZM1025.28 615.328V616.682C1025.28 617.033 1025.35 617.367 1025.49 617.684C1025.63 618 1025.84 618.258 1026.12 618.457C1026.42 618.645 1026.77 618.738 1027.2 618.738C1027.63 618.738 1027.98 618.645 1028.25 618.457C1028.52 618.258 1028.72 618 1028.85 617.684C1028.99 617.367 1029.06 617.033 1029.06 616.682V615.328C1029.06 614.953 1028.99 614.607 1028.85 614.291C1028.72 613.975 1028.51 613.723 1028.23 613.535C1027.95 613.336 1027.59 613.236 1027.16 613.236C1026.75 613.236 1026.4 613.336 1026.12 613.535C1025.84 613.723 1025.63 613.975 1025.49 614.291C1025.35 614.607 1025.28 614.953 1025.28 615.328ZM1033.63 631.078V629.725C1033.63 628.764 1033.84 627.885 1034.26 627.088C1034.7 626.291 1035.33 625.652 1036.18 625.172C1037.03 624.691 1038.09 624.451 1039.34 624.451C1040.63 624.451 1041.69 624.691 1042.52 625.172C1043.37 625.652 1043.99 626.291 1044.4 627.088C1044.83 627.885 1045.04 628.764 1045.04 629.725V631.078C1045.04 632.039 1044.83 632.918 1044.4 633.715C1043.99 634.512 1043.37 635.15 1042.54 635.631C1041.71 636.111 1040.66 636.352 1039.39 636.352C1038.12 636.352 1037.05 636.111 1036.2 635.631C1035.34 635.15 1034.7 634.512 1034.26 633.715C1033.84 632.918 1033.63 632.039 1033.63 631.078ZM1037.44 629.725V631.078C1037.44 631.441 1037.53 631.781 1037.71 632.098C1037.88 632.414 1038.12 632.672 1038.41 632.871C1038.7 633.059 1039.03 633.152 1039.38 633.152C1039.92 633.152 1040.31 633.059 1040.57 632.871C1040.84 632.672 1041.02 632.414 1041.1 632.098C1041.19 631.781 1041.24 631.441 1041.24 631.078V629.725C1041.24 629.361 1041.17 629.021 1041.03 628.705C1040.89 628.389 1040.68 628.137 1040.4 627.949C1040.12 627.75 1039.76 627.65 1039.34 627.65C1038.92 627.65 1038.57 627.75 1038.29 627.949C1038.01 628.137 1037.79 628.389 1037.65 628.705C1037.51 629.021 1037.44 629.361 1037.44 629.725ZM1040.82 614.08L1028.32 634.084L1025.56 632.695L1038.06 612.691L1040.82 614.08Z" fill="white"/>
<path d="M904.672 684.547H906.734L906.656 687.453C906.63 688.333 906.526 689.094 906.344 689.734C906.167 690.37 905.93 690.904 905.633 691.336C905.341 691.768 905.008 692.117 904.633 692.383C904.263 692.648 903.875 692.854 903.469 693H902.977L902.969 691.391L903.211 691.375C903.456 691.115 903.661 690.859 903.828 690.609C904 690.354 904.138 690.081 904.242 689.789C904.346 689.497 904.424 689.164 904.477 688.789C904.534 688.409 904.57 687.964 904.586 687.453L904.672 684.547ZM905.227 684.547H910.703V693H908.641V686.242H905.227V684.547ZM902.508 691.375H911.883V695.531H909.82V693H904.609V695.531H902.5L902.508 691.375ZM912.781 688.859V688.695C912.781 688.076 912.87 687.505 913.047 686.984C913.224 686.458 913.482 686.003 913.82 685.617C914.159 685.232 914.573 684.932 915.062 684.719C915.552 684.5 916.109 684.391 916.734 684.391C917.37 684.391 917.932 684.5 918.422 684.719C918.917 684.932 919.333 685.232 919.672 685.617C920.01 686.003 920.268 686.458 920.445 686.984C920.622 687.505 920.711 688.076 920.711 688.695V688.859C920.711 689.474 920.622 690.044 920.445 690.57C920.268 691.091 920.01 691.547 919.672 691.938C919.333 692.323 918.919 692.622 918.43 692.836C917.94 693.049 917.38 693.156 916.75 693.156C916.125 693.156 915.565 693.049 915.07 692.836C914.576 692.622 914.159 692.323 913.82 691.938C913.482 691.547 913.224 691.091 913.047 690.57C912.87 690.044 912.781 689.474 912.781 688.859ZM914.844 688.695V688.859C914.844 689.229 914.88 689.576 914.953 689.898C915.026 690.221 915.138 690.505 915.289 690.75C915.44 690.995 915.635 691.188 915.875 691.328C916.12 691.464 916.411 691.531 916.75 691.531C917.083 691.531 917.37 691.464 917.609 691.328C917.849 691.188 918.044 690.995 918.195 690.75C918.352 690.505 918.466 690.221 918.539 689.898C918.612 689.576 918.648 689.229 918.648 688.859V688.695C918.648 688.331 918.612 687.99 918.539 687.672C918.466 687.349 918.352 687.065 918.195 686.82C918.044 686.57 917.846 686.375 917.602 686.234C917.362 686.089 917.073 686.016 916.734 686.016C916.401 686.016 916.115 686.089 915.875 686.234C915.635 686.375 915.44 686.57 915.289 686.82C915.138 687.065 915.026 687.349 914.953 687.672C914.88 687.99 914.844 688.331 914.844 688.695ZM928.133 687.766L926.484 687.367L927.117 681.625H933.375V683.336H928.828L928.531 685.992C928.693 685.893 928.927 685.794 929.234 685.695C929.547 685.591 929.898 685.539 930.289 685.539C930.831 685.539 931.315 685.628 931.742 685.805C932.169 685.977 932.531 686.227 932.828 686.555C933.13 686.883 933.357 687.284 933.508 687.758C933.664 688.227 933.742 688.758 933.742 689.352C933.742 689.872 933.664 690.362 933.508 690.82C933.357 691.273 933.125 691.677 932.812 692.031C932.5 692.38 932.107 692.656 931.633 692.859C931.159 693.057 930.602 693.156 929.961 693.156C929.477 693.156 929.01 693.086 928.562 692.945C928.12 692.799 927.721 692.589 927.367 692.312C927.013 692.031 926.729 691.688 926.516 691.281C926.307 690.875 926.193 690.409 926.172 689.883H928.211C928.247 690.232 928.341 690.529 928.492 690.773C928.643 691.018 928.841 691.206 929.086 691.336C929.336 691.466 929.625 691.531 929.953 691.531C930.25 691.531 930.505 691.477 930.719 691.367C930.938 691.253 931.117 691.094 931.258 690.891C931.398 690.688 931.503 690.448 931.57 690.172C931.638 689.896 931.672 689.594 931.672 689.266C931.672 688.948 931.633 688.659 931.555 688.398C931.477 688.133 931.357 687.904 931.195 687.711C931.034 687.518 930.831 687.37 930.586 687.266C930.346 687.161 930.065 687.109 929.742 687.109C929.31 687.109 928.977 687.174 928.742 687.305C928.513 687.435 928.31 687.589 928.133 687.766ZM935.172 684.414V683.812C935.172 683.38 935.266 682.987 935.453 682.633C935.641 682.279 935.914 681.995 936.273 681.781C936.638 681.568 937.081 681.461 937.602 681.461C938.133 681.461 938.578 681.568 938.938 681.781C939.302 681.995 939.576 682.279 939.758 682.633C939.945 682.987 940.039 683.38 940.039 683.812V684.414C940.039 684.836 939.945 685.224 939.758 685.578C939.576 685.932 939.305 686.216 938.945 686.43C938.586 686.643 938.143 686.75 937.617 686.75C937.091 686.75 936.646 686.643 936.281 686.43C935.917 686.216 935.641 685.932 935.453 685.578C935.266 685.224 935.172 684.836 935.172 684.414ZM936.57 683.812V684.414C936.57 684.612 936.607 684.799 936.68 684.977C936.758 685.148 936.875 685.289 937.031 685.398C937.188 685.508 937.383 685.562 937.617 685.562C937.852 685.562 938.042 685.508 938.188 685.398C938.339 685.289 938.451 685.148 938.523 684.977C938.602 684.799 938.641 684.612 938.641 684.414V683.812C938.641 683.609 938.602 683.419 938.523 683.242C938.451 683.065 938.336 682.922 938.18 682.812C938.029 682.703 937.836 682.648 937.602 682.648C937.372 682.648 937.18 682.703 937.023 682.812C936.872 682.922 936.758 683.065 936.68 683.242C936.607 683.419 936.57 683.609 936.57 683.812ZM940.633 690.812V690.211C940.633 689.784 940.727 689.393 940.914 689.039C941.107 688.685 941.385 688.401 941.75 688.188C942.115 687.974 942.555 687.867 943.07 687.867C943.607 687.867 944.055 687.974 944.414 688.188C944.773 688.401 945.044 688.685 945.227 689.039C945.414 689.393 945.508 689.784 945.508 690.211V690.812C945.508 691.24 945.414 691.63 945.227 691.984C945.044 692.339 944.773 692.622 944.414 692.836C944.06 693.049 943.62 693.156 943.094 693.156C942.568 693.156 942.12 693.049 941.75 692.836C941.385 692.622 941.107 692.339 940.914 691.984C940.727 691.63 940.633 691.24 940.633 690.812ZM942.039 690.211V690.812C942.039 691.016 942.081 691.206 942.164 691.383C942.247 691.555 942.367 691.695 942.523 691.805C942.685 691.914 942.872 691.969 943.086 691.969C943.346 691.969 943.552 691.914 943.703 691.805C943.854 691.695 943.961 691.555 944.023 691.383C944.086 691.206 944.117 691.016 944.117 690.812V690.211C944.117 690.008 944.078 689.82 944 689.648C943.922 689.471 943.805 689.328 943.648 689.219C943.497 689.109 943.305 689.055 943.07 689.055C942.841 689.055 942.648 689.109 942.492 689.219C942.341 689.328 942.227 689.471 942.148 689.648C942.076 689.82 942.039 690.008 942.039 690.211ZM943.586 683.25L938.031 692.141L937.008 691.57L942.562 682.68L943.586 683.25ZM954.273 688.906H952.914V688.273H954.195C954.716 688.273 955.13 688.214 955.438 688.094C955.745 687.969 955.966 687.794 956.102 687.57C956.237 687.346 956.305 687.083 956.305 686.781C956.305 686.49 956.232 686.224 956.086 685.984C955.945 685.745 955.719 685.552 955.406 685.406C955.094 685.26 954.68 685.188 954.164 685.188C953.768 685.188 953.404 685.258 953.07 685.398C952.737 685.539 952.469 685.732 952.266 685.977C952.068 686.221 951.969 686.505 951.969 686.828H951.031C951.031 686.328 951.177 685.896 951.469 685.531C951.76 685.167 952.143 684.885 952.617 684.688C953.096 684.49 953.612 684.391 954.164 684.391C954.643 684.391 955.073 684.443 955.453 684.547C955.833 684.651 956.156 684.805 956.422 685.008C956.688 685.211 956.891 685.464 957.031 685.766C957.172 686.062 957.242 686.404 957.242 686.789C957.242 687.081 957.174 687.354 957.039 687.609C956.909 687.865 956.716 688.091 956.461 688.289C956.211 688.482 955.901 688.633 955.531 688.742C955.167 688.852 954.747 688.906 954.273 688.906ZM952.914 688.477H954.273C954.794 688.477 955.25 688.526 955.641 688.625C956.031 688.719 956.357 688.859 956.617 689.047C956.878 689.234 957.07 689.466 957.195 689.742C957.326 690.013 957.391 690.326 957.391 690.68C957.391 691.065 957.312 691.411 957.156 691.719C957.005 692.026 956.786 692.286 956.5 692.5C956.214 692.714 955.872 692.875 955.477 692.984C955.081 693.094 954.643 693.148 954.164 693.148C953.648 693.148 953.138 693.057 952.633 692.875C952.133 692.693 951.719 692.411 951.391 692.031C951.062 691.651 950.898 691.167 950.898 690.578H951.828C951.828 690.901 951.93 691.198 952.133 691.469C952.336 691.74 952.612 691.956 952.961 692.117C953.315 692.279 953.716 692.359 954.164 692.359C954.669 692.359 955.091 692.289 955.43 692.148C955.768 692.003 956.023 691.805 956.195 691.555C956.367 691.305 956.453 691.018 956.453 690.695C956.453 690.315 956.37 690.008 956.203 689.773C956.042 689.539 955.794 689.367 955.461 689.258C955.128 689.148 954.706 689.094 954.195 689.094H952.914V688.477ZM964.602 691.484V687.125C964.602 686.724 964.518 686.378 964.352 686.086C964.185 685.794 963.94 685.57 963.617 685.414C963.294 685.258 962.896 685.18 962.422 685.18C961.984 685.18 961.594 685.258 961.25 685.414C960.911 685.565 960.643 685.771 960.445 686.031C960.253 686.286 960.156 686.57 960.156 686.883L959.219 686.875C959.219 686.557 959.297 686.25 959.453 685.953C959.609 685.656 959.831 685.391 960.117 685.156C960.404 684.922 960.745 684.737 961.141 684.602C961.542 684.461 961.982 684.391 962.461 684.391C963.065 684.391 963.596 684.492 964.055 684.695C964.518 684.898 964.88 685.203 965.141 685.609C965.401 686.016 965.531 686.526 965.531 687.141V691.227C965.531 691.518 965.552 691.82 965.594 692.133C965.641 692.445 965.706 692.703 965.789 692.906V693H964.797C964.734 692.812 964.685 692.578 964.648 692.297C964.617 692.01 964.602 691.74 964.602 691.484ZM964.82 688.078L964.836 688.797H963C962.521 688.797 962.091 688.841 961.711 688.93C961.336 689.013 961.018 689.138 960.758 689.305C960.497 689.466 960.297 689.661 960.156 689.891C960.021 690.12 959.953 690.38 959.953 690.672C959.953 690.974 960.029 691.25 960.18 691.5C960.336 691.75 960.555 691.951 960.836 692.102C961.122 692.247 961.461 692.32 961.852 692.32C962.372 692.32 962.831 692.224 963.227 692.031C963.628 691.839 963.958 691.586 964.219 691.273C964.479 690.961 964.654 690.62 964.742 690.25L965.148 690.789C965.081 691.049 964.956 691.318 964.773 691.594C964.596 691.865 964.365 692.12 964.078 692.359C963.792 692.594 963.453 692.786 963.062 692.938C962.677 693.083 962.24 693.156 961.75 693.156C961.198 693.156 960.716 693.052 960.305 692.844C959.898 692.635 959.581 692.352 959.352 691.992C959.128 691.628 959.016 691.216 959.016 690.758C959.016 690.341 959.104 689.969 959.281 689.641C959.458 689.307 959.714 689.026 960.047 688.797C960.385 688.562 960.792 688.385 961.266 688.266C961.745 688.141 962.281 688.078 962.875 688.078H964.82ZM974.453 692.156L977.086 684.547H978.094L974.516 694.359C974.443 694.552 974.349 694.766 974.234 695C974.125 695.234 973.979 695.458 973.797 695.672C973.62 695.891 973.396 696.068 973.125 696.203C972.859 696.344 972.534 696.414 972.148 696.414C972.049 696.414 971.922 696.401 971.766 696.375C971.615 696.354 971.505 696.333 971.438 696.312L971.43 695.523C971.487 695.539 971.57 695.552 971.68 695.562C971.789 695.573 971.865 695.578 971.906 695.578C972.245 695.578 972.529 695.521 972.758 695.406C972.992 695.292 973.188 695.12 973.344 694.891C973.5 694.667 973.638 694.385 973.758 694.047L974.453 692.156ZM971.992 684.547L974.688 691.805L974.938 692.781L974.258 693.164L970.977 684.547H971.992ZM980.617 684.547H981.547L981.406 687.594C981.37 688.406 981.279 689.112 981.133 689.711C980.992 690.305 980.818 690.812 980.609 691.234C980.401 691.651 980.172 692.003 979.922 692.289C979.677 692.57 979.427 692.807 979.172 693H978.664L978.68 692.203L978.914 692.195C979.065 692.013 979.221 691.807 979.383 691.578C979.549 691.344 979.708 691.057 979.859 690.719C980.01 690.38 980.141 689.958 980.25 689.453C980.359 688.948 980.432 688.328 980.469 687.594L980.617 684.547ZM980.922 684.547H985.602V693H984.672V685.422H980.922V684.547ZM978.305 692.195H986.484V695.484H985.547V693H979.195V695.484H978.305V692.195ZM993.43 691.484V687.125C993.43 686.724 993.346 686.378 993.18 686.086C993.013 685.794 992.768 685.57 992.445 685.414C992.122 685.258 991.724 685.18 991.25 685.18C990.812 685.18 990.422 685.258 990.078 685.414C989.74 685.565 989.471 685.771 989.273 686.031C989.081 686.286 988.984 686.57 988.984 686.883L988.047 686.875C988.047 686.557 988.125 686.25 988.281 685.953C988.438 685.656 988.659 685.391 988.945 685.156C989.232 684.922 989.573 684.737 989.969 684.602C990.37 684.461 990.81 684.391 991.289 684.391C991.893 684.391 992.424 684.492 992.883 684.695C993.346 684.898 993.708 685.203 993.969 685.609C994.229 686.016 994.359 686.526 994.359 687.141V691.227C994.359 691.518 994.38 691.82 994.422 692.133C994.469 692.445 994.534 692.703 994.617 692.906V693H993.625C993.562 692.812 993.513 692.578 993.477 692.297C993.445 692.01 993.43 691.74 993.43 691.484ZM993.648 688.078L993.664 688.797H991.828C991.349 688.797 990.919 688.841 990.539 688.93C990.164 689.013 989.846 689.138 989.586 689.305C989.326 689.466 989.125 689.661 988.984 689.891C988.849 690.12 988.781 690.38 988.781 690.672C988.781 690.974 988.857 691.25 989.008 691.5C989.164 691.75 989.383 691.951 989.664 692.102C989.951 692.247 990.289 692.32 990.68 692.32C991.201 692.32 991.659 692.224 992.055 692.031C992.456 691.839 992.786 691.586 993.047 691.273C993.307 690.961 993.482 690.62 993.57 690.25L993.977 690.789C993.909 691.049 993.784 691.318 993.602 691.594C993.424 691.865 993.193 692.12 992.906 692.359C992.62 692.594 992.281 692.786 991.891 692.938C991.505 693.083 991.068 693.156 990.578 693.156C990.026 693.156 989.544 693.052 989.133 692.844C988.727 692.635 988.409 692.352 988.18 691.992C987.956 691.628 987.844 691.216 987.844 690.758C987.844 690.341 987.932 689.969 988.109 689.641C988.286 689.307 988.542 689.026 988.875 688.797C989.214 688.562 989.62 688.385 990.094 688.266C990.573 688.141 991.109 688.078 991.703 688.078H993.648ZM1002.88 684.547V693H1001.95V684.547H1002.88ZM1002.55 688.383V689.188C1002.32 689.302 1002.04 689.411 1001.73 689.516C1001.42 689.62 1001.09 689.706 1000.75 689.773C1000.41 689.836 1000.07 689.867 999.734 689.867C999.036 689.867 998.445 689.766 997.961 689.562C997.482 689.359 997.12 689.026 996.875 688.562C996.63 688.094 996.508 687.469 996.508 686.688V684.539H997.438V686.688C997.438 687.286 997.521 687.76 997.688 688.109C997.854 688.453 998.107 688.698 998.445 688.844C998.784 688.99 999.214 689.062 999.734 689.062C1000.09 689.052 1000.45 689.016 1000.8 688.953C1001.16 688.885 1001.49 688.802 1001.79 688.703C1002.1 688.599 1002.35 688.492 1002.55 688.383ZM1011.15 688.328V689.125H1006.13V688.328H1011.15ZM1006.38 684.547V693H1005.45V684.547H1006.38ZM1011.87 684.547V693H1010.93V684.547H1011.87ZM1016.89 692.156L1019.52 684.547H1020.53L1016.95 694.359C1016.88 694.552 1016.79 694.766 1016.67 695C1016.56 695.234 1016.42 695.458 1016.23 695.672C1016.06 695.891 1015.83 696.068 1015.56 696.203C1015.3 696.344 1014.97 696.414 1014.59 696.414C1014.49 696.414 1014.36 696.401 1014.2 696.375C1014.05 696.354 1013.94 696.333 1013.88 696.312L1013.87 695.523C1013.92 695.539 1014.01 695.552 1014.12 695.562C1014.23 695.573 1014.3 695.578 1014.34 695.578C1014.68 695.578 1014.97 695.521 1015.2 695.406C1015.43 695.292 1015.62 695.12 1015.78 694.891C1015.94 694.667 1016.08 694.385 1016.2 694.047L1016.89 692.156ZM1014.43 684.547L1017.12 691.805L1017.38 692.781L1016.7 693.164L1013.41 684.547H1014.43ZM1026.17 688.391V689.188H1022.22V688.391H1026.17ZM1023.02 684.547V693H1022.09V684.547H1023.02ZM1025.42 688.906V688.648C1025.42 688.034 1025.51 687.466 1025.69 686.945C1025.86 686.424 1026.12 685.974 1026.45 685.594C1026.78 685.214 1027.18 684.919 1027.64 684.711C1028.1 684.497 1028.62 684.391 1029.19 684.391C1029.76 684.391 1030.28 684.497 1030.74 684.711C1031.21 684.919 1031.6 685.214 1031.94 685.594C1032.27 685.974 1032.53 686.424 1032.7 686.945C1032.88 687.466 1032.97 688.034 1032.97 688.648V688.906C1032.97 689.521 1032.88 690.089 1032.7 690.609C1032.53 691.125 1032.27 691.573 1031.94 691.953C1031.61 692.333 1031.21 692.63 1030.75 692.844C1030.29 693.052 1029.77 693.156 1029.2 693.156C1028.63 693.156 1028.11 693.052 1027.65 692.844C1027.18 692.63 1026.79 692.333 1026.45 691.953C1026.12 691.573 1025.86 691.125 1025.69 690.609C1025.51 690.089 1025.42 689.521 1025.42 688.906ZM1026.36 688.648V688.906C1026.36 689.37 1026.42 689.81 1026.54 690.227C1026.66 690.638 1026.85 691.005 1027.09 691.328C1027.33 691.646 1027.63 691.896 1027.98 692.078C1028.33 692.26 1028.74 692.352 1029.2 692.352C1029.66 692.352 1030.07 692.26 1030.41 692.078C1030.77 691.896 1031.07 691.646 1031.3 691.328C1031.54 691.005 1031.73 690.638 1031.85 690.227C1031.98 689.81 1032.04 689.37 1032.04 688.906V688.648C1032.04 688.19 1031.98 687.755 1031.85 687.344C1031.73 686.932 1031.54 686.565 1031.3 686.242C1031.06 685.919 1030.76 685.664 1030.41 685.477C1030.05 685.289 1029.65 685.195 1029.19 685.195C1028.73 685.195 1028.33 685.289 1027.98 685.477C1027.63 685.664 1027.33 685.919 1027.09 686.242C1026.85 686.565 1026.66 686.932 1026.54 687.344C1026.42 687.755 1026.36 688.19 1026.36 688.648ZM947.031 711.352C947.427 711.352 947.797 711.279 948.141 711.133C948.49 710.982 948.776 710.76 949 710.469C949.229 710.172 949.359 709.81 949.391 709.383H950.281C950.255 709.919 950.091 710.398 949.789 710.82C949.492 711.237 949.102 711.565 948.617 711.805C948.138 712.039 947.609 712.156 947.031 712.156C946.443 712.156 945.922 712.049 945.469 711.836C945.021 711.622 944.646 711.326 944.344 710.945C944.042 710.56 943.812 710.112 943.656 709.602C943.505 709.086 943.43 708.531 943.43 707.938V707.609C943.43 707.016 943.505 706.464 943.656 705.953C943.812 705.438 944.042 704.99 944.344 704.609C944.646 704.224 945.021 703.924 945.469 703.711C945.917 703.497 946.435 703.391 947.023 703.391C947.628 703.391 948.169 703.513 948.648 703.758C949.133 704.003 949.518 704.349 949.805 704.797C950.096 705.245 950.255 705.776 950.281 706.391H949.391C949.365 705.938 949.245 705.547 949.031 705.219C948.818 704.891 948.536 704.638 948.188 704.461C947.839 704.284 947.451 704.195 947.023 704.195C946.544 704.195 946.135 704.289 945.797 704.477C945.458 704.659 945.182 704.911 944.969 705.234C944.76 705.552 944.607 705.917 944.508 706.328C944.409 706.734 944.359 707.161 944.359 707.609V707.938C944.359 708.391 944.406 708.823 944.5 709.234C944.599 709.641 944.753 710.003 944.961 710.32C945.174 710.638 945.451 710.891 945.789 711.078C946.133 711.26 946.547 711.352 947.031 711.352ZM953.664 703.547H954.594L954.453 706.594C954.417 707.406 954.326 708.112 954.18 708.711C954.039 709.305 953.865 709.812 953.656 710.234C953.448 710.651 953.219 711.003 952.969 711.289C952.724 711.57 952.474 711.807 952.219 712H951.711L951.727 711.203L951.961 711.195C952.112 711.013 952.268 710.807 952.43 710.578C952.596 710.344 952.755 710.057 952.906 709.719C953.057 709.38 953.188 708.958 953.297 708.453C953.406 707.948 953.479 707.328 953.516 706.594L953.664 703.547ZM953.969 703.547H958.648V712H957.719V704.422H953.969V703.547ZM951.352 711.195H959.531V714.484H958.594V712H952.242V714.484H951.352V711.195ZM964.602 712.156C964.049 712.156 963.542 712.055 963.078 711.852C962.62 711.648 962.219 711.362 961.875 710.992C961.536 710.622 961.273 710.185 961.086 709.68C960.904 709.169 960.812 708.612 960.812 708.008V707.672C960.812 707.021 960.909 706.432 961.102 705.906C961.294 705.38 961.56 704.93 961.898 704.555C962.237 704.18 962.622 703.893 963.055 703.695C963.492 703.492 963.951 703.391 964.43 703.391C964.966 703.391 965.443 703.487 965.859 703.68C966.276 703.867 966.625 704.135 966.906 704.484C967.193 704.828 967.409 705.237 967.555 705.711C967.701 706.18 967.773 706.698 967.773 707.266V707.836H961.375V707.039H966.844V706.93C966.833 706.456 966.737 706.013 966.555 705.602C966.378 705.185 966.112 704.846 965.758 704.586C965.404 704.326 964.961 704.195 964.43 704.195C964.034 704.195 963.669 704.279 963.336 704.445C963.008 704.612 962.724 704.852 962.484 705.164C962.25 705.471 962.068 705.839 961.938 706.266C961.812 706.688 961.75 707.156 961.75 707.672V708.008C961.75 708.477 961.818 708.914 961.953 709.32C962.094 709.721 962.292 710.076 962.547 710.383C962.807 710.69 963.115 710.93 963.469 711.102C963.823 711.273 964.214 711.359 964.641 711.359C965.141 711.359 965.583 711.268 965.969 711.086C966.354 710.898 966.701 710.604 967.008 710.203L967.594 710.656C967.411 710.927 967.182 711.177 966.906 711.406C966.635 711.635 966.31 711.818 965.93 711.953C965.549 712.089 965.107 712.156 964.602 712.156ZM975.352 703.547V704.359H971.07V703.547H975.352ZM976.109 703.547V712H975.18V703.547H976.109ZM970.82 703.547H971.75L971.562 707.508C971.531 708.148 971.479 708.716 971.406 709.211C971.339 709.706 971.245 710.13 971.125 710.484C971.005 710.833 970.852 711.12 970.664 711.344C970.482 711.568 970.26 711.734 970 711.844C969.74 711.948 969.435 712 969.086 712H968.734V711.156L969.023 711.148C969.247 711.138 969.443 711.091 969.609 711.008C969.781 710.924 969.927 710.792 970.047 710.609C970.172 710.427 970.273 710.188 970.352 709.891C970.435 709.594 970.5 709.232 970.547 708.805C970.599 708.372 970.638 707.865 970.664 707.281L970.82 703.547ZM979.625 703.547V712H978.688V703.547H979.625ZM985.188 703.547L981.312 708.125H979.297L979.195 707.289H980.914L984.008 703.547H985.188ZM984.344 712L980.82 708L981.414 707.281L985.578 712H984.344ZM989.438 711.156L992.07 703.547H993.078L989.5 713.359C989.427 713.552 989.333 713.766 989.219 714C989.109 714.234 988.964 714.458 988.781 714.672C988.604 714.891 988.38 715.068 988.109 715.203C987.844 715.344 987.518 715.414 987.133 715.414C987.034 715.414 986.906 715.401 986.75 715.375C986.599 715.354 986.49 715.333 986.422 715.312L986.414 714.523C986.471 714.539 986.555 714.552 986.664 714.562C986.773 714.573 986.849 714.578 986.891 714.578C987.229 714.578 987.513 714.521 987.742 714.406C987.977 714.292 988.172 714.12 988.328 713.891C988.484 713.667 988.622 713.385 988.742 713.047L989.438 711.156ZM986.977 703.547L989.672 710.805L989.922 711.781L989.242 712.164L985.961 703.547H986.977Z" fill="black"/>
<circle cx="1145" cy="624" r="46" fill="#B79069"/>
<path d="M1139.21 611.143C1137.68 611.143 1136.21 611.753 1135.12 612.838C1134.04 613.923 1133.43 615.394 1133.43 616.929C1133.43 618.463 1134.04 619.935 1135.12 621.02C1136.21 622.105 1137.68 622.714 1139.21 622.714C1140.75 622.714 1142.22 622.105 1143.31 621.02C1144.39 619.935 1145 618.463 1145 616.929C1145 615.394 1144.39 613.923 1143.31 612.838C1142.22 611.753 1140.75 611.143 1139.21 611.143ZM1135.36 616.929C1135.36 616.422 1135.46 615.921 1135.65 615.453C1135.84 614.985 1136.13 614.56 1136.49 614.201C1136.85 613.843 1137.27 613.559 1137.74 613.365C1138.21 613.171 1138.71 613.072 1139.21 613.072C1139.72 613.072 1140.22 613.171 1140.69 613.365C1141.16 613.559 1141.58 613.843 1141.94 614.201C1142.3 614.56 1142.58 614.985 1142.78 615.453C1142.97 615.921 1143.07 616.422 1143.07 616.929C1143.07 617.952 1142.67 618.933 1141.94 619.656C1141.22 620.38 1140.24 620.786 1139.21 620.786C1138.19 620.786 1137.21 620.38 1136.49 619.656C1135.76 618.933 1135.36 617.952 1135.36 616.929Z" fill="black"/>
<path d="M1152.71 613.714C1152.12 613.714 1151.54 613.831 1150.99 614.057C1150.45 614.283 1149.95 614.615 1149.53 615.032C1149.11 615.45 1148.78 615.946 1148.56 616.492C1148.33 617.038 1148.21 617.623 1148.21 618.214C1148.21 618.805 1148.33 619.39 1148.56 619.936C1148.78 620.482 1149.11 620.978 1149.53 621.396C1149.95 621.814 1150.45 622.146 1150.99 622.372C1151.54 622.598 1152.12 622.714 1152.71 622.714C1153.91 622.714 1155.05 622.24 1155.9 621.396C1156.74 620.552 1157.21 619.408 1157.21 618.214C1157.21 617.021 1156.74 615.876 1155.9 615.032C1155.05 614.188 1153.91 613.714 1152.71 613.714ZM1150.14 618.214C1150.14 617.532 1150.41 616.878 1150.9 616.396C1151.38 615.914 1152.03 615.643 1152.71 615.643C1153.4 615.643 1154.05 615.914 1154.53 616.396C1155.01 616.878 1155.29 617.532 1155.29 618.214C1155.29 618.896 1155.01 619.55 1154.53 620.033C1154.05 620.515 1153.4 620.786 1152.71 620.786C1152.03 620.786 1151.38 620.515 1150.9 620.033C1150.41 619.55 1150.14 618.896 1150.14 618.214Z" fill="black"/>
<path d="M1132.46 625.286C1131.7 625.286 1130.96 625.59 1130.42 626.133C1129.88 626.675 1129.57 627.411 1129.57 628.179V628.861C1129.57 628.965 1129.58 629.069 1129.59 629.172C1129.62 629.369 1129.66 629.639 1129.73 629.959C1129.95 630.803 1130.33 631.596 1130.85 632.293C1132.15 634.032 1134.64 635.571 1139.21 635.571C1141.18 635.571 1142.77 635.286 1144.03 634.823C1143.86 634.185 1143.76 633.531 1143.73 632.871C1142.65 633.328 1141.2 633.643 1139.21 633.643C1135.11 633.643 1133.26 632.289 1132.39 631.136C1132.02 630.645 1131.76 630.086 1131.61 629.491C1131.55 629.277 1131.52 629.058 1131.5 628.838L1131.5 628.815V628.179C1131.5 627.923 1131.6 627.677 1131.78 627.497C1131.96 627.316 1132.21 627.214 1132.46 627.214H1145.2C1145.62 626.544 1146.13 625.928 1146.7 625.381C1146.46 625.318 1146.21 625.286 1145.96 625.286H1132.46Z" fill="black"/>
<path d="M1161.71 632.357C1161.71 634.574 1160.83 636.699 1159.27 638.267C1157.7 639.834 1155.57 640.714 1153.36 640.714C1151.14 640.714 1149.02 639.834 1147.45 638.267C1145.88 636.699 1145 634.574 1145 632.357C1145 630.141 1145.88 628.015 1147.45 626.448C1149.02 624.88 1151.14 624 1153.36 624C1155.57 624 1157.7 624.88 1159.27 626.448C1160.83 628.015 1161.71 630.141 1161.71 632.357ZM1154 627.214C1154 627.044 1153.93 626.88 1153.81 626.76C1153.69 626.639 1153.53 626.571 1153.36 626.571C1153.19 626.571 1153.02 626.639 1152.9 626.76C1152.78 626.88 1152.71 627.044 1152.71 627.214V631.714H1148.21C1148.04 631.714 1147.88 631.782 1147.76 631.903C1147.64 632.023 1147.57 632.187 1147.57 632.357C1147.57 632.528 1147.64 632.691 1147.76 632.812C1147.88 632.932 1148.04 633 1148.21 633H1152.71V637.5C1152.71 637.67 1152.78 637.834 1152.9 637.955C1153.02 638.075 1153.19 638.143 1153.36 638.143C1153.53 638.143 1153.69 638.075 1153.81 637.955C1153.93 637.834 1154 637.67 1154 637.5V633H1158.5C1158.67 633 1158.83 632.932 1158.95 632.812C1159.08 632.691 1159.14 632.528 1159.14 632.357C1159.14 632.187 1159.08 632.023 1158.95 631.903C1158.83 631.782 1158.67 631.714 1158.5 631.714H1154V627.214Z" fill="black"/>
<circle cx="1200.5" cy="623.5" r="30.5" fill="#B79069"/>
<path d="M1183.98 620.725H1186.86C1187.6 620.725 1188.2 620.596 1188.67 620.338C1189.15 620.068 1189.51 619.693 1189.74 619.213C1189.98 618.721 1190.1 618.141 1190.1 617.473C1190.1 616.957 1189.98 616.482 1189.76 616.049C1189.55 615.615 1189.22 615.27 1188.78 615.012C1188.33 614.742 1187.76 614.607 1187.07 614.607C1186.6 614.607 1186.15 614.707 1185.7 614.906C1185.26 615.094 1184.89 615.363 1184.59 615.715C1184.31 616.066 1184.17 616.494 1184.17 616.998H1178.23C1178.23 615.545 1178.63 614.303 1179.43 613.271C1180.23 612.229 1181.29 611.432 1182.61 610.881C1183.93 610.318 1185.36 610.037 1186.88 610.037C1188.7 610.037 1190.29 610.318 1191.66 610.881C1193.03 611.432 1194.1 612.252 1194.86 613.342C1195.63 614.42 1196.02 615.756 1196.02 617.35C1196.02 618.229 1195.81 619.055 1195.4 619.828C1194.99 620.602 1194.42 621.281 1193.68 621.867C1192.94 622.453 1192.08 622.916 1191.08 623.256C1190.1 623.584 1189.02 623.748 1187.85 623.748H1183.98V620.725ZM1183.98 625.137V622.184H1187.85C1189.12 622.184 1190.29 622.33 1191.34 622.623C1192.4 622.904 1193.31 623.326 1194.07 623.889C1194.83 624.451 1195.42 625.148 1195.83 625.98C1196.24 626.801 1196.44 627.744 1196.44 628.811C1196.44 630.006 1196.2 631.072 1195.72 632.01C1195.24 632.947 1194.57 633.738 1193.7 634.383C1192.83 635.027 1191.82 635.52 1190.66 635.859C1189.5 636.188 1188.24 636.352 1186.88 636.352C1185.81 636.352 1184.75 636.211 1183.68 635.93C1182.61 635.637 1181.64 635.191 1180.76 634.594C1179.88 633.984 1179.17 633.211 1178.63 632.273C1178.11 631.324 1177.84 630.193 1177.84 628.881H1183.79C1183.79 629.42 1183.93 629.912 1184.22 630.357C1184.53 630.791 1184.93 631.137 1185.44 631.395C1185.94 631.652 1186.49 631.781 1187.07 631.781C1187.8 631.781 1188.41 631.646 1188.92 631.377C1189.43 631.096 1189.83 630.721 1190.1 630.252C1190.37 629.783 1190.5 629.262 1190.5 628.688C1190.5 627.82 1190.35 627.129 1190.06 626.613C1189.78 626.098 1189.36 625.723 1188.81 625.488C1188.27 625.254 1187.62 625.137 1186.86 625.137H1183.98ZM1199.48 616.682V615.328C1199.48 614.355 1199.69 613.471 1200.12 612.674C1200.54 611.877 1201.17 611.238 1202.01 610.758C1202.86 610.277 1203.91 610.037 1205.16 610.037C1206.45 610.037 1207.52 610.277 1208.36 610.758C1209.2 611.238 1209.83 611.877 1210.24 612.674C1210.66 613.471 1210.87 614.355 1210.87 615.328V616.682C1210.87 617.631 1210.66 618.504 1210.24 619.301C1209.83 620.098 1209.2 620.736 1208.36 621.217C1207.53 621.697 1206.48 621.938 1205.21 621.938C1203.94 621.938 1202.88 621.697 1202.03 621.217C1201.19 620.736 1200.55 620.098 1200.12 619.301C1199.69 618.504 1199.48 617.631 1199.48 616.682ZM1203.28 615.328V616.682C1203.28 617.033 1203.35 617.367 1203.49 617.684C1203.63 618 1203.84 618.258 1204.12 618.457C1204.42 618.645 1204.77 618.738 1205.2 618.738C1205.63 618.738 1205.98 618.645 1206.25 618.457C1206.52 618.258 1206.72 618 1206.85 617.684C1206.99 617.367 1207.06 617.033 1207.06 616.682V615.328C1207.06 614.953 1206.99 614.607 1206.85 614.291C1206.72 613.975 1206.51 613.723 1206.23 613.535C1205.95 613.336 1205.59 613.236 1205.16 613.236C1204.75 613.236 1204.4 613.336 1204.12 613.535C1203.84 613.723 1203.63 613.975 1203.49 614.291C1203.35 614.607 1203.28 614.953 1203.28 615.328ZM1211.63 631.078V629.725C1211.63 628.764 1211.84 627.885 1212.26 627.088C1212.7 626.291 1213.33 625.652 1214.18 625.172C1215.03 624.691 1216.09 624.451 1217.34 624.451C1218.63 624.451 1219.69 624.691 1220.52 625.172C1221.37 625.652 1221.99 626.291 1222.4 627.088C1222.83 627.885 1223.04 628.764 1223.04 629.725V631.078C1223.04 632.039 1222.83 632.918 1222.4 633.715C1221.99 634.512 1221.37 635.15 1220.54 635.631C1219.71 636.111 1218.66 636.352 1217.39 636.352C1216.12 636.352 1215.05 636.111 1214.2 635.631C1213.34 635.15 1212.7 634.512 1212.26 633.715C1211.84 632.918 1211.63 632.039 1211.63 631.078ZM1215.44 629.725V631.078C1215.44 631.441 1215.53 631.781 1215.71 632.098C1215.88 632.414 1216.12 632.672 1216.41 632.871C1216.7 633.059 1217.03 633.152 1217.38 633.152C1217.92 633.152 1218.31 633.059 1218.57 632.871C1218.84 632.672 1219.02 632.414 1219.1 632.098C1219.19 631.781 1219.24 631.441 1219.24 631.078V629.725C1219.24 629.361 1219.17 629.021 1219.03 628.705C1218.89 628.389 1218.68 628.137 1218.4 627.949C1218.12 627.75 1217.76 627.65 1217.34 627.65C1216.92 627.65 1216.57 627.75 1216.29 627.949C1216.01 628.137 1215.79 628.389 1215.65 628.705C1215.51 629.021 1215.44 629.361 1215.44 629.725ZM1218.82 614.08L1206.32 634.084L1203.56 632.695L1216.06 612.691L1218.82 614.08Z" fill="white"/>
<path d="M1081.67 684.547H1083.73L1083.66 687.453C1083.63 688.333 1083.53 689.094 1083.34 689.734C1083.17 690.37 1082.93 690.904 1082.63 691.336C1082.34 691.768 1082.01 692.117 1081.63 692.383C1081.26 692.648 1080.88 692.854 1080.47 693H1079.98L1079.97 691.391L1080.21 691.375C1080.46 691.115 1080.66 690.859 1080.83 690.609C1081 690.354 1081.14 690.081 1081.24 689.789C1081.35 689.497 1081.42 689.164 1081.48 688.789C1081.53 688.409 1081.57 687.964 1081.59 687.453L1081.67 684.547ZM1082.23 684.547H1087.7V693H1085.64V686.242H1082.23V684.547ZM1079.51 691.375H1088.88V695.531H1086.82V693H1081.61V695.531H1079.5L1079.51 691.375ZM1089.78 688.859V688.695C1089.78 688.076 1089.87 687.505 1090.05 686.984C1090.22 686.458 1090.48 686.003 1090.82 685.617C1091.16 685.232 1091.57 684.932 1092.06 684.719C1092.55 684.5 1093.11 684.391 1093.73 684.391C1094.37 684.391 1094.93 684.5 1095.42 684.719C1095.92 684.932 1096.33 685.232 1096.67 685.617C1097.01 686.003 1097.27 686.458 1097.45 686.984C1097.62 687.505 1097.71 688.076 1097.71 688.695V688.859C1097.71 689.474 1097.62 690.044 1097.45 690.57C1097.27 691.091 1097.01 691.547 1096.67 691.938C1096.33 692.323 1095.92 692.622 1095.43 692.836C1094.94 693.049 1094.38 693.156 1093.75 693.156C1093.12 693.156 1092.57 693.049 1092.07 692.836C1091.58 692.622 1091.16 692.323 1090.82 691.938C1090.48 691.547 1090.22 691.091 1090.05 690.57C1089.87 690.044 1089.78 689.474 1089.78 688.859ZM1091.84 688.695V688.859C1091.84 689.229 1091.88 689.576 1091.95 689.898C1092.03 690.221 1092.14 690.505 1092.29 690.75C1092.44 690.995 1092.64 691.188 1092.88 691.328C1093.12 691.464 1093.41 691.531 1093.75 691.531C1094.08 691.531 1094.37 691.464 1094.61 691.328C1094.85 691.188 1095.04 690.995 1095.2 690.75C1095.35 690.505 1095.47 690.221 1095.54 689.898C1095.61 689.576 1095.65 689.229 1095.65 688.859V688.695C1095.65 688.331 1095.61 687.99 1095.54 687.672C1095.47 687.349 1095.35 687.065 1095.2 686.82C1095.04 686.57 1094.85 686.375 1094.6 686.234C1094.36 686.089 1094.07 686.016 1093.73 686.016C1093.4 686.016 1093.11 686.089 1092.88 686.234C1092.64 686.375 1092.44 686.57 1092.29 686.82C1092.14 687.065 1092.03 687.349 1091.95 687.672C1091.88 687.99 1091.84 688.331 1091.84 688.695ZM1105.34 686.398H1106.51C1106.92 686.398 1107.26 686.328 1107.52 686.188C1107.79 686.042 1107.99 685.844 1108.12 685.594C1108.26 685.339 1108.33 685.044 1108.33 684.711C1108.33 684.383 1108.27 684.099 1108.15 683.859C1108.03 683.615 1107.85 683.427 1107.6 683.297C1107.36 683.161 1107.05 683.094 1106.68 683.094C1106.38 683.094 1106.1 683.154 1105.84 683.273C1105.59 683.393 1105.39 683.565 1105.24 683.789C1105.1 684.008 1105.02 684.271 1105.02 684.578H1102.95C1102.95 683.964 1103.11 683.424 1103.44 682.961C1103.77 682.492 1104.21 682.125 1104.77 681.859C1105.32 681.594 1105.95 681.461 1106.63 681.461C1107.38 681.461 1108.04 681.586 1108.6 681.836C1109.17 682.081 1109.61 682.443 1109.92 682.922C1110.24 683.401 1110.4 683.995 1110.4 684.703C1110.4 685.042 1110.32 685.38 1110.16 685.719C1110 686.052 1109.77 686.354 1109.46 686.625C1109.16 686.891 1108.79 687.107 1108.34 687.273C1107.91 687.435 1107.4 687.516 1106.84 687.516H1105.34V686.398ZM1105.34 687.992V686.891H1106.84C1107.48 686.891 1108.03 686.966 1108.5 687.117C1108.97 687.263 1109.36 687.471 1109.67 687.742C1109.98 688.008 1110.21 688.318 1110.35 688.672C1110.5 689.026 1110.58 689.406 1110.58 689.812C1110.58 690.344 1110.48 690.818 1110.28 691.234C1110.08 691.646 1109.8 691.995 1109.45 692.281C1109.09 692.568 1108.67 692.786 1108.2 692.938C1107.72 693.083 1107.2 693.156 1106.64 693.156C1106.16 693.156 1105.68 693.091 1105.23 692.961C1104.77 692.826 1104.36 692.625 1104 692.359C1103.64 692.089 1103.35 691.75 1103.13 691.344C1102.92 690.932 1102.81 690.456 1102.81 689.914H1104.88C1104.88 690.227 1104.96 690.505 1105.11 690.75C1105.27 690.995 1105.48 691.188 1105.75 691.328C1106.03 691.464 1106.34 691.531 1106.68 691.531C1107.06 691.531 1107.39 691.464 1107.66 691.328C1107.93 691.188 1108.14 690.99 1108.29 690.734C1108.43 690.474 1108.51 690.164 1108.51 689.805C1108.51 689.378 1108.43 689.031 1108.27 688.766C1108.1 688.5 1107.87 688.305 1107.57 688.18C1107.27 688.055 1106.92 687.992 1106.51 687.992H1105.34ZM1112.17 684.414V683.812C1112.17 683.38 1112.27 682.987 1112.45 682.633C1112.64 682.279 1112.91 681.995 1113.27 681.781C1113.64 681.568 1114.08 681.461 1114.6 681.461C1115.13 681.461 1115.58 681.568 1115.94 681.781C1116.3 681.995 1116.58 682.279 1116.76 682.633C1116.95 682.987 1117.04 683.38 1117.04 683.812V684.414C1117.04 684.836 1116.95 685.224 1116.76 685.578C1116.58 685.932 1116.3 686.216 1115.95 686.43C1115.59 686.643 1115.14 686.75 1114.62 686.75C1114.09 686.75 1113.65 686.643 1113.28 686.43C1112.92 686.216 1112.64 685.932 1112.45 685.578C1112.27 685.224 1112.17 684.836 1112.17 684.414ZM1113.57 683.812V684.414C1113.57 684.612 1113.61 684.799 1113.68 684.977C1113.76 685.148 1113.88 685.289 1114.03 685.398C1114.19 685.508 1114.38 685.562 1114.62 685.562C1114.85 685.562 1115.04 685.508 1115.19 685.398C1115.34 685.289 1115.45 685.148 1115.52 684.977C1115.6 684.799 1115.64 684.612 1115.64 684.414V683.812C1115.64 683.609 1115.6 683.419 1115.52 683.242C1115.45 683.065 1115.34 682.922 1115.18 682.812C1115.03 682.703 1114.84 682.648 1114.6 682.648C1114.37 682.648 1114.18 682.703 1114.02 682.812C1113.87 682.922 1113.76 683.065 1113.68 683.242C1113.61 683.419 1113.57 683.609 1113.57 683.812ZM1117.63 690.812V690.211C1117.63 689.784 1117.73 689.393 1117.91 689.039C1118.11 688.685 1118.39 688.401 1118.75 688.188C1119.11 687.974 1119.55 687.867 1120.07 687.867C1120.61 687.867 1121.05 687.974 1121.41 688.188C1121.77 688.401 1122.04 688.685 1122.23 689.039C1122.41 689.393 1122.51 689.784 1122.51 690.211V690.812C1122.51 691.24 1122.41 691.63 1122.23 691.984C1122.04 692.339 1121.77 692.622 1121.41 692.836C1121.06 693.049 1120.62 693.156 1120.09 693.156C1119.57 693.156 1119.12 693.049 1118.75 692.836C1118.39 692.622 1118.11 692.339 1117.91 691.984C1117.73 691.63 1117.63 691.24 1117.63 690.812ZM1119.04 690.211V690.812C1119.04 691.016 1119.08 691.206 1119.16 691.383C1119.25 691.555 1119.37 691.695 1119.52 691.805C1119.68 691.914 1119.87 691.969 1120.09 691.969C1120.35 691.969 1120.55 691.914 1120.7 691.805C1120.85 691.695 1120.96 691.555 1121.02 691.383C1121.09 691.206 1121.12 691.016 1121.12 690.812V690.211C1121.12 690.008 1121.08 689.82 1121 689.648C1120.92 689.471 1120.8 689.328 1120.65 689.219C1120.5 689.109 1120.3 689.055 1120.07 689.055C1119.84 689.055 1119.65 689.109 1119.49 689.219C1119.34 689.328 1119.23 689.471 1119.15 689.648C1119.08 689.82 1119.04 690.008 1119.04 690.211ZM1120.59 683.25L1115.03 692.141L1114.01 691.57L1119.56 682.68L1120.59 683.25ZM1131.27 688.906H1129.91V688.273H1131.2C1131.72 688.273 1132.13 688.214 1132.44 688.094C1132.74 687.969 1132.97 687.794 1133.1 687.57C1133.24 687.346 1133.3 687.083 1133.3 686.781C1133.3 686.49 1133.23 686.224 1133.09 685.984C1132.95 685.745 1132.72 685.552 1132.41 685.406C1132.09 685.26 1131.68 685.188 1131.16 685.188C1130.77 685.188 1130.4 685.258 1130.07 685.398C1129.74 685.539 1129.47 685.732 1129.27 685.977C1129.07 686.221 1128.97 686.505 1128.97 686.828H1128.03C1128.03 686.328 1128.18 685.896 1128.47 685.531C1128.76 685.167 1129.14 684.885 1129.62 684.688C1130.1 684.49 1130.61 684.391 1131.16 684.391C1131.64 684.391 1132.07 684.443 1132.45 684.547C1132.83 684.651 1133.16 684.805 1133.42 685.008C1133.69 685.211 1133.89 685.464 1134.03 685.766C1134.17 686.062 1134.24 686.404 1134.24 686.789C1134.24 687.081 1134.17 687.354 1134.04 687.609C1133.91 687.865 1133.72 688.091 1133.46 688.289C1133.21 688.482 1132.9 688.633 1132.53 688.742C1132.17 688.852 1131.75 688.906 1131.27 688.906ZM1129.91 688.477H1131.27C1131.79 688.477 1132.25 688.526 1132.64 688.625C1133.03 688.719 1133.36 688.859 1133.62 689.047C1133.88 689.234 1134.07 689.466 1134.2 689.742C1134.33 690.013 1134.39 690.326 1134.39 690.68C1134.39 691.065 1134.31 691.411 1134.16 691.719C1134.01 692.026 1133.79 692.286 1133.5 692.5C1133.21 692.714 1132.87 692.875 1132.48 692.984C1132.08 693.094 1131.64 693.148 1131.16 693.148C1130.65 693.148 1130.14 693.057 1129.63 692.875C1129.13 692.693 1128.72 692.411 1128.39 692.031C1128.06 691.651 1127.9 691.167 1127.9 690.578H1128.83C1128.83 690.901 1128.93 691.198 1129.13 691.469C1129.34 691.74 1129.61 691.956 1129.96 692.117C1130.32 692.279 1130.72 692.359 1131.16 692.359C1131.67 692.359 1132.09 692.289 1132.43 692.148C1132.77 692.003 1133.02 691.805 1133.2 691.555C1133.37 691.305 1133.45 691.018 1133.45 690.695C1133.45 690.315 1133.37 690.008 1133.2 689.773C1133.04 689.539 1132.79 689.367 1132.46 689.258C1132.13 689.148 1131.71 689.094 1131.2 689.094H1129.91V688.477ZM1141.6 691.484V687.125C1141.6 686.724 1141.52 686.378 1141.35 686.086C1141.18 685.794 1140.94 685.57 1140.62 685.414C1140.29 685.258 1139.9 685.18 1139.42 685.18C1138.98 685.18 1138.59 685.258 1138.25 685.414C1137.91 685.565 1137.64 685.771 1137.45 686.031C1137.25 686.286 1137.16 686.57 1137.16 686.883L1136.22 686.875C1136.22 686.557 1136.3 686.25 1136.45 685.953C1136.61 685.656 1136.83 685.391 1137.12 685.156C1137.4 684.922 1137.74 684.737 1138.14 684.602C1138.54 684.461 1138.98 684.391 1139.46 684.391C1140.07 684.391 1140.6 684.492 1141.05 684.695C1141.52 684.898 1141.88 685.203 1142.14 685.609C1142.4 686.016 1142.53 686.526 1142.53 687.141V691.227C1142.53 691.518 1142.55 691.82 1142.59 692.133C1142.64 692.445 1142.71 692.703 1142.79 692.906V693H1141.8C1141.73 692.812 1141.68 692.578 1141.65 692.297C1141.62 692.01 1141.6 691.74 1141.6 691.484ZM1141.82 688.078L1141.84 688.797H1140C1139.52 688.797 1139.09 688.841 1138.71 688.93C1138.34 689.013 1138.02 689.138 1137.76 689.305C1137.5 689.466 1137.3 689.661 1137.16 689.891C1137.02 690.12 1136.95 690.38 1136.95 690.672C1136.95 690.974 1137.03 691.25 1137.18 691.5C1137.34 691.75 1137.55 691.951 1137.84 692.102C1138.12 692.247 1138.46 692.32 1138.85 692.32C1139.37 692.32 1139.83 692.224 1140.23 692.031C1140.63 691.839 1140.96 691.586 1141.22 691.273C1141.48 690.961 1141.65 690.62 1141.74 690.25L1142.15 690.789C1142.08 691.049 1141.96 691.318 1141.77 691.594C1141.6 691.865 1141.36 692.12 1141.08 692.359C1140.79 692.594 1140.45 692.786 1140.06 692.938C1139.68 693.083 1139.24 693.156 1138.75 693.156C1138.2 693.156 1137.72 693.052 1137.3 692.844C1136.9 692.635 1136.58 692.352 1136.35 691.992C1136.13 691.628 1136.02 691.216 1136.02 690.758C1136.02 690.341 1136.1 689.969 1136.28 689.641C1136.46 689.307 1136.71 689.026 1137.05 688.797C1137.39 688.562 1137.79 688.385 1138.27 688.266C1138.74 688.141 1139.28 688.078 1139.88 688.078H1141.82ZM1151.45 692.156L1154.09 684.547H1155.09L1151.52 694.359C1151.44 694.552 1151.35 694.766 1151.23 695C1151.12 695.234 1150.98 695.458 1150.8 695.672C1150.62 695.891 1150.4 696.068 1150.12 696.203C1149.86 696.344 1149.53 696.414 1149.15 696.414C1149.05 696.414 1148.92 696.401 1148.77 696.375C1148.61 696.354 1148.51 696.333 1148.44 696.312L1148.43 695.523C1148.49 695.539 1148.57 695.552 1148.68 695.562C1148.79 695.573 1148.86 695.578 1148.91 695.578C1149.24 695.578 1149.53 695.521 1149.76 695.406C1149.99 695.292 1150.19 695.12 1150.34 694.891C1150.5 694.667 1150.64 694.385 1150.76 694.047L1151.45 692.156ZM1148.99 684.547L1151.69 691.805L1151.94 692.781L1151.26 693.164L1147.98 684.547H1148.99ZM1157.62 684.547H1158.55L1158.41 687.594C1158.37 688.406 1158.28 689.112 1158.13 689.711C1157.99 690.305 1157.82 690.812 1157.61 691.234C1157.4 691.651 1157.17 692.003 1156.92 692.289C1156.68 692.57 1156.43 692.807 1156.17 693H1155.66L1155.68 692.203L1155.91 692.195C1156.07 692.013 1156.22 691.807 1156.38 691.578C1156.55 691.344 1156.71 691.057 1156.86 690.719C1157.01 690.38 1157.14 689.958 1157.25 689.453C1157.36 688.948 1157.43 688.328 1157.47 687.594L1157.62 684.547ZM1157.92 684.547H1162.6V693H1161.67V685.422H1157.92V684.547ZM1155.3 692.195H1163.48V695.484H1162.55V693H1156.2V695.484H1155.3V692.195ZM1170.43 691.484V687.125C1170.43 686.724 1170.35 686.378 1170.18 686.086C1170.01 685.794 1169.77 685.57 1169.45 685.414C1169.12 685.258 1168.72 685.18 1168.25 685.18C1167.81 685.18 1167.42 685.258 1167.08 685.414C1166.74 685.565 1166.47 685.771 1166.27 686.031C1166.08 686.286 1165.98 686.57 1165.98 686.883L1165.05 686.875C1165.05 686.557 1165.12 686.25 1165.28 685.953C1165.44 685.656 1165.66 685.391 1165.95 685.156C1166.23 684.922 1166.57 684.737 1166.97 684.602C1167.37 684.461 1167.81 684.391 1168.29 684.391C1168.89 684.391 1169.42 684.492 1169.88 684.695C1170.35 684.898 1170.71 685.203 1170.97 685.609C1171.23 686.016 1171.36 686.526 1171.36 687.141V691.227C1171.36 691.518 1171.38 691.82 1171.42 692.133C1171.47 692.445 1171.53 692.703 1171.62 692.906V693H1170.62C1170.56 692.812 1170.51 692.578 1170.48 692.297C1170.45 692.01 1170.43 691.74 1170.43 691.484ZM1170.65 688.078L1170.66 688.797H1168.83C1168.35 688.797 1167.92 688.841 1167.54 688.93C1167.16 689.013 1166.85 689.138 1166.59 689.305C1166.33 689.466 1166.12 689.661 1165.98 689.891C1165.85 690.12 1165.78 690.38 1165.78 690.672C1165.78 690.974 1165.86 691.25 1166.01 691.5C1166.16 691.75 1166.38 691.951 1166.66 692.102C1166.95 692.247 1167.29 692.32 1167.68 692.32C1168.2 692.32 1168.66 692.224 1169.05 692.031C1169.46 691.839 1169.79 691.586 1170.05 691.273C1170.31 690.961 1170.48 690.62 1170.57 690.25L1170.98 690.789C1170.91 691.049 1170.78 691.318 1170.6 691.594C1170.42 691.865 1170.19 692.12 1169.91 692.359C1169.62 692.594 1169.28 692.786 1168.89 692.938C1168.51 693.083 1168.07 693.156 1167.58 693.156C1167.03 693.156 1166.54 693.052 1166.13 692.844C1165.73 692.635 1165.41 692.352 1165.18 691.992C1164.96 691.628 1164.84 691.216 1164.84 690.758C1164.84 690.341 1164.93 689.969 1165.11 689.641C1165.29 689.307 1165.54 689.026 1165.88 688.797C1166.21 688.562 1166.62 688.385 1167.09 688.266C1167.57 688.141 1168.11 688.078 1168.7 688.078H1170.65ZM1179.88 684.547V693H1178.95V684.547H1179.88ZM1179.55 688.383V689.188C1179.32 689.302 1179.04 689.411 1178.73 689.516C1178.42 689.62 1178.09 689.706 1177.75 689.773C1177.41 689.836 1177.07 689.867 1176.73 689.867C1176.04 689.867 1175.45 689.766 1174.96 689.562C1174.48 689.359 1174.12 689.026 1173.88 688.562C1173.63 688.094 1173.51 687.469 1173.51 686.688V684.539H1174.44V686.688C1174.44 687.286 1174.52 687.76 1174.69 688.109C1174.85 688.453 1175.11 688.698 1175.45 688.844C1175.78 688.99 1176.21 689.062 1176.73 689.062C1177.09 689.052 1177.45 689.016 1177.8 688.953C1178.16 688.885 1178.49 688.802 1178.79 688.703C1179.1 688.599 1179.35 688.492 1179.55 688.383ZM1188.15 688.328V689.125H1183.13V688.328H1188.15ZM1183.38 684.547V693H1182.45V684.547H1183.38ZM1188.87 684.547V693H1187.93V684.547H1188.87ZM1193.89 692.156L1196.52 684.547H1197.53L1193.95 694.359C1193.88 694.552 1193.79 694.766 1193.67 695C1193.56 695.234 1193.42 695.458 1193.23 695.672C1193.06 695.891 1192.83 696.068 1192.56 696.203C1192.3 696.344 1191.97 696.414 1191.59 696.414C1191.49 696.414 1191.36 696.401 1191.2 696.375C1191.05 696.354 1190.94 696.333 1190.88 696.312L1190.87 695.523C1190.92 695.539 1191.01 695.552 1191.12 695.562C1191.23 695.573 1191.3 695.578 1191.34 695.578C1191.68 695.578 1191.97 695.521 1192.2 695.406C1192.43 695.292 1192.62 695.12 1192.78 694.891C1192.94 694.667 1193.08 694.385 1193.2 694.047L1193.89 692.156ZM1191.43 684.547L1194.12 691.805L1194.38 692.781L1193.7 693.164L1190.41 684.547H1191.43ZM1203.17 688.391V689.188H1199.22V688.391H1203.17ZM1200.02 684.547V693H1199.09V684.547H1200.02ZM1202.42 688.906V688.648C1202.42 688.034 1202.51 687.466 1202.69 686.945C1202.86 686.424 1203.12 685.974 1203.45 685.594C1203.78 685.214 1204.18 684.919 1204.64 684.711C1205.1 684.497 1205.62 684.391 1206.19 684.391C1206.76 684.391 1207.28 684.497 1207.74 684.711C1208.21 684.919 1208.6 685.214 1208.94 685.594C1209.27 685.974 1209.53 686.424 1209.7 686.945C1209.88 687.466 1209.97 688.034 1209.97 688.648V688.906C1209.97 689.521 1209.88 690.089 1209.7 690.609C1209.53 691.125 1209.27 691.573 1208.94 691.953C1208.61 692.333 1208.21 692.63 1207.75 692.844C1207.29 693.052 1206.77 693.156 1206.2 693.156C1205.63 693.156 1205.11 693.052 1204.65 692.844C1204.18 692.63 1203.79 692.333 1203.45 691.953C1203.12 691.573 1202.86 691.125 1202.69 690.609C1202.51 690.089 1202.42 689.521 1202.42 688.906ZM1203.36 688.648V688.906C1203.36 689.37 1203.42 689.81 1203.54 690.227C1203.66 690.638 1203.85 691.005 1204.09 691.328C1204.33 691.646 1204.63 691.896 1204.98 692.078C1205.33 692.26 1205.74 692.352 1206.2 692.352C1206.66 692.352 1207.07 692.26 1207.41 692.078C1207.77 691.896 1208.07 691.646 1208.3 691.328C1208.54 691.005 1208.73 690.638 1208.85 690.227C1208.98 689.81 1209.04 689.37 1209.04 688.906V688.648C1209.04 688.19 1208.98 687.755 1208.85 687.344C1208.73 686.932 1208.54 686.565 1208.3 686.242C1208.06 685.919 1207.76 685.664 1207.41 685.477C1207.05 685.289 1206.65 685.195 1206.19 685.195C1205.73 685.195 1205.33 685.289 1204.98 685.477C1204.63 685.664 1204.33 685.919 1204.09 686.242C1203.85 686.565 1203.66 686.932 1203.54 687.344C1203.42 687.755 1203.36 688.19 1203.36 688.648ZM1124.03 711.352C1124.43 711.352 1124.8 711.279 1125.14 711.133C1125.49 710.982 1125.78 710.76 1126 710.469C1126.23 710.172 1126.36 709.81 1126.39 709.383H1127.28C1127.26 709.919 1127.09 710.398 1126.79 710.82C1126.49 711.237 1126.1 711.565 1125.62 711.805C1125.14 712.039 1124.61 712.156 1124.03 712.156C1123.44 712.156 1122.92 712.049 1122.47 711.836C1122.02 711.622 1121.65 711.326 1121.34 710.945C1121.04 710.56 1120.81 710.112 1120.66 709.602C1120.51 709.086 1120.43 708.531 1120.43 707.938V707.609C1120.43 707.016 1120.51 706.464 1120.66 705.953C1120.81 705.438 1121.04 704.99 1121.34 704.609C1121.65 704.224 1122.02 703.924 1122.47 703.711C1122.92 703.497 1123.43 703.391 1124.02 703.391C1124.63 703.391 1125.17 703.513 1125.65 703.758C1126.13 704.003 1126.52 704.349 1126.8 704.797C1127.1 705.245 1127.26 705.776 1127.28 706.391H1126.39C1126.36 705.938 1126.24 705.547 1126.03 705.219C1125.82 704.891 1125.54 704.638 1125.19 704.461C1124.84 704.284 1124.45 704.195 1124.02 704.195C1123.54 704.195 1123.14 704.289 1122.8 704.477C1122.46 704.659 1122.18 704.911 1121.97 705.234C1121.76 705.552 1121.61 705.917 1121.51 706.328C1121.41 706.734 1121.36 707.161 1121.36 707.609V707.938C1121.36 708.391 1121.41 708.823 1121.5 709.234C1121.6 709.641 1121.75 710.003 1121.96 710.32C1122.17 710.638 1122.45 710.891 1122.79 711.078C1123.13 711.26 1123.55 711.352 1124.03 711.352ZM1130.66 703.547H1131.59L1131.45 706.594C1131.42 707.406 1131.33 708.112 1131.18 708.711C1131.04 709.305 1130.86 709.812 1130.66 710.234C1130.45 710.651 1130.22 711.003 1129.97 711.289C1129.72 711.57 1129.47 711.807 1129.22 712H1128.71L1128.73 711.203L1128.96 711.195C1129.11 711.013 1129.27 710.807 1129.43 710.578C1129.6 710.344 1129.76 710.057 1129.91 709.719C1130.06 709.38 1130.19 708.958 1130.3 708.453C1130.41 707.948 1130.48 707.328 1130.52 706.594L1130.66 703.547ZM1130.97 703.547H1135.65V712H1134.72V704.422H1130.97V703.547ZM1128.35 711.195H1136.53V714.484H1135.59V712H1129.24V714.484H1128.35V711.195ZM1141.6 712.156C1141.05 712.156 1140.54 712.055 1140.08 711.852C1139.62 711.648 1139.22 711.362 1138.88 710.992C1138.54 710.622 1138.27 710.185 1138.09 709.68C1137.9 709.169 1137.81 708.612 1137.81 708.008V707.672C1137.81 707.021 1137.91 706.432 1138.1 705.906C1138.29 705.38 1138.56 704.93 1138.9 704.555C1139.24 704.18 1139.62 703.893 1140.05 703.695C1140.49 703.492 1140.95 703.391 1141.43 703.391C1141.97 703.391 1142.44 703.487 1142.86 703.68C1143.28 703.867 1143.62 704.135 1143.91 704.484C1144.19 704.828 1144.41 705.237 1144.55 705.711C1144.7 706.18 1144.77 706.698 1144.77 707.266V707.836H1138.38V707.039H1143.84V706.93C1143.83 706.456 1143.74 706.013 1143.55 705.602C1143.38 705.185 1143.11 704.846 1142.76 704.586C1142.4 704.326 1141.96 704.195 1141.43 704.195C1141.03 704.195 1140.67 704.279 1140.34 704.445C1140.01 704.612 1139.72 704.852 1139.48 705.164C1139.25 705.471 1139.07 705.839 1138.94 706.266C1138.81 706.688 1138.75 707.156 1138.75 707.672V708.008C1138.75 708.477 1138.82 708.914 1138.95 709.32C1139.09 709.721 1139.29 710.076 1139.55 710.383C1139.81 710.69 1140.11 710.93 1140.47 711.102C1140.82 711.273 1141.21 711.359 1141.64 711.359C1142.14 711.359 1142.58 711.268 1142.97 711.086C1143.35 710.898 1143.7 710.604 1144.01 710.203L1144.59 710.656C1144.41 710.927 1144.18 711.177 1143.91 711.406C1143.64 711.635 1143.31 711.818 1142.93 711.953C1142.55 712.089 1142.11 712.156 1141.6 712.156ZM1152.35 703.547V704.359H1148.07V703.547H1152.35ZM1153.11 703.547V712H1152.18V703.547H1153.11ZM1147.82 703.547H1148.75L1148.56 707.508C1148.53 708.148 1148.48 708.716 1148.41 709.211C1148.34 709.706 1148.24 710.13 1148.12 710.484C1148.01 710.833 1147.85 711.12 1147.66 711.344C1147.48 711.568 1147.26 711.734 1147 711.844C1146.74 711.948 1146.43 712 1146.09 712H1145.73V711.156L1146.02 711.148C1146.25 711.138 1146.44 711.091 1146.61 711.008C1146.78 710.924 1146.93 710.792 1147.05 710.609C1147.17 710.427 1147.27 710.188 1147.35 709.891C1147.43 709.594 1147.5 709.232 1147.55 708.805C1147.6 708.372 1147.64 707.865 1147.66 707.281L1147.82 703.547ZM1156.62 703.547V712H1155.69V703.547H1156.62ZM1162.19 703.547L1158.31 708.125H1156.3L1156.2 707.289H1157.91L1161.01 703.547H1162.19ZM1161.34 712L1157.82 708L1158.41 707.281L1162.58 712H1161.34ZM1166.44 711.156L1169.07 703.547H1170.08L1166.5 713.359C1166.43 713.552 1166.33 713.766 1166.22 714C1166.11 714.234 1165.96 714.458 1165.78 714.672C1165.6 714.891 1165.38 715.068 1165.11 715.203C1164.84 715.344 1164.52 715.414 1164.13 715.414C1164.03 715.414 1163.91 715.401 1163.75 715.375C1163.6 715.354 1163.49 715.333 1163.42 715.312L1163.41 714.523C1163.47 714.539 1163.55 714.552 1163.66 714.562C1163.77 714.573 1163.85 714.578 1163.89 714.578C1164.23 714.578 1164.51 714.521 1164.74 714.406C1164.98 714.292 1165.17 714.12 1165.33 713.891C1165.48 713.667 1165.62 713.385 1165.74 713.047L1166.44 711.156ZM1163.98 703.547L1166.67 710.805L1166.92 711.781L1166.24 712.164L1162.96 703.547H1163.98Z" fill="black"/>
<path d="M682.667 623C682.667 625.946 685.054 628.333 688 628.333C690.946 628.333 693.333 625.946 693.333 623C693.333 620.054 690.946 617.667 688 617.667C685.054 617.667 682.667 620.054 682.667 623ZM732.667 623C732.667 625.946 735.054 628.333 738 628.333C740.946 628.333 743.333 625.946 743.333 623C743.333 620.054 740.946 617.667 738 617.667C735.054 617.667 732.667 620.054 732.667 623ZM688 624L738 624L738 622L688 622L688 624Z" fill="black"/>
<path d="M878.667 623C878.667 625.946 881.054 628.333 884 628.333C886.946 628.333 889.333 625.946 889.333 623C889.333 620.054 886.946 617.667 884 617.667C881.054 617.667 878.667 620.054 878.667 623ZM909.667 623C909.667 625.946 912.054 628.333 915 628.333C917.946 628.333 920.333 625.946 920.333 623C920.333 620.054 917.946 617.667 915 617.667C912.054 617.667 909.667 620.054 909.667 623ZM884 624L915 624L915 622L884 622L884 624Z" fill="black"/>
<path d="M1055.67 623C1055.67 625.946 1058.05 628.333 1061 628.333C1063.95 628.333 1066.33 625.946 1066.33 623C1066.33 620.054 1063.95 617.667 1061 617.667C1058.05 617.667 1055.67 620.054 1055.67 623ZM1086.67 623C1086.67 625.946 1089.05 628.333 1092 628.333C1094.95 628.333 1097.33 625.946 1097.33 623C1097.33 620.054 1094.95 617.667 1092 617.667C1089.05 617.667 1086.67 620.054 1086.67 623ZM1061 624L1092 624L1092 622L1061 622L1061 624Z" fill="black"/>
<path d="M623 561L634.356 562.526L628.534 551.687L623 561ZM847 590C847.72 589.422 847.719 589.422 847.719 589.421C847.718 589.421 847.718 589.42 847.717 589.419C847.716 589.417 847.714 589.415 847.712 589.412C847.707 589.407 847.701 589.4 847.694 589.39C847.678 589.372 847.657 589.345 847.628 589.31C847.571 589.242 847.487 589.142 847.376 589.012C847.154 588.754 846.824 588.377 846.382 587.896C845.498 586.933 844.167 585.552 842.363 583.854C838.753 580.458 833.25 575.798 825.641 570.702C810.419 560.507 786.787 548.575 753.058 541.505L752.942 543.495C786.399 550.508 809.766 562.326 824.748 572.361C832.241 577.379 837.641 581.954 841.159 585.264C842.918 586.919 844.206 588.258 845.051 589.178C845.474 589.638 845.785 589.993 845.989 590.231C846.091 590.35 846.166 590.439 846.214 590.498C846.239 590.527 846.256 590.549 846.267 590.562C846.273 590.569 846.277 590.574 846.279 590.576C846.28 590.578 846.281 590.579 846.281 590.579C846.281 590.579 846.281 590.579 846.281 590.579C846.281 590.579 846.281 590.579 847 590ZM753.058 541.505C699.528 530.285 648.829 548.517 630.119 556.547L631.088 558.442C649.727 550.443 700.006 532.399 752.942 543.495L753.058 541.505Z" fill="black"/>
<path d="M623 560.5L634.153 559.977L626.723 550.087L623 560.5ZM1023 588.5C1023.88 588.19 1023.88 588.188 1023.88 588.187C1023.88 588.186 1023.88 588.184 1023.88 588.183C1023.88 588.179 1023.88 588.175 1023.87 588.171C1023.87 588.162 1023.86 588.149 1023.86 588.134C1023.84 588.104 1023.82 588.063 1023.8 588.01C1023.75 587.904 1023.67 587.753 1023.56 587.56C1023.36 587.173 1023.04 586.614 1022.58 585.903C1021.67 584.479 1020.21 582.444 1018 579.938C1013.59 574.925 1006.19 568.037 994.194 560.397C970.201 545.121 927.801 526.834 854.017 514.497L853.983 516.503C927.589 528.81 969.689 547.023 993.348 562.086C1005.17 569.616 1012.39 576.357 1016.64 581.181C1018.76 583.593 1020.14 585.528 1020.99 586.845C1021.41 587.504 1021.7 588.009 1021.88 588.342C1021.97 588.509 1022.03 588.633 1022.07 588.711C1022.09 588.751 1022.1 588.779 1022.11 588.795C1022.11 588.804 1022.12 588.809 1022.12 588.812C1022.12 588.813 1022.12 588.813 1022.12 588.813C1022.12 588.813 1022.12 588.812 1022.12 588.812C1022.12 588.811 1022.12 588.81 1023 588.5ZM854.017 514.497C730.542 493.852 651.696 539.206 629.069 554.709L630.313 556.453C652.734 541.091 731.139 495.963 853.983 516.503L854.017 514.497Z" fill="black"/>
<path d="M623.5 560.5L634.528 559.373L626.664 549.822L623.5 560.5ZM1202.5 588.5C1203.37 588.163 1203.37 588.162 1203.37 588.16C1203.37 588.159 1203.37 588.157 1203.37 588.155C1203.37 588.151 1203.36 588.146 1203.36 588.14C1203.35 588.129 1203.35 588.114 1203.34 588.095C1203.32 588.057 1203.29 588.004 1203.26 587.936C1203.18 587.801 1203.08 587.607 1202.93 587.358C1202.64 586.859 1202.19 586.137 1201.55 585.215C1200.26 583.372 1198.18 580.73 1195.01 577.473C1188.66 570.958 1177.92 561.984 1160.31 552C1125.09 532.035 1062.32 508.006 952 491.494L952 493.505C1062.18 509.994 1124.66 533.965 1159.57 553.75C1177.01 563.641 1187.56 572.48 1193.73 578.808C1196.81 581.973 1198.8 584.511 1200.01 586.242C1200.62 587.107 1201.03 587.771 1201.29 588.211C1201.41 588.431 1201.5 588.595 1201.56 588.7C1201.59 588.753 1201.61 588.791 1201.62 588.814C1201.62 588.825 1201.63 588.833 1201.63 588.837C1201.63 588.838 1201.63 588.839 1201.63 588.839C1201.63 588.839 1201.63 588.839 1201.63 588.839C1201.63 588.838 1201.63 588.837 1202.5 588.5ZM952 491.494C762.117 463.076 655.474 533.863 629.227 554.343L630.55 556.029C656.556 535.737 762.748 465.182 952 493.505L952 491.494Z" fill="black"/>
</svg>
