<svg width="24" height="24" viewBox="0 0 24 24" fill="none" xmlns="http://www.w3.org/2000/svg">
<path fill-rule="evenodd" clip-rule="evenodd" d="M7.18182 3C7.51459 3 7.78436 3.26309 7.78436 3.58763V7.34845C7.78436 7.67299 7.51459 7.93608 7.18182 7.93608C6.84905 7.93608 6.57928 7.67299 6.57928 7.34845V3.58763C6.57928 3.26309 6.84905 3 7.18182 3ZM15.778 3C16.1108 3 16.3806 3.26309 16.3806 3.58763V7.34845C16.3806 7.67299 16.1108 7.93608 15.778 7.93608C15.4452 7.93608 15.1755 7.67299 15.1755 7.34845V3.58763C15.1755 3.26309 15.4452 3 15.778 3ZM4.53066 6.05567C3.787 6.05567 3.20507 6.64644 3.20507 7.34845V9.34639H19.7949V7.34845C19.7949 6.6232 19.1892 6.05567 18.4693 6.05567H17.5856C17.2529 6.05567 16.9831 5.79258 16.9831 5.46804C16.9831 5.1435 17.2529 4.88041 17.5856 4.88041H18.4693C19.8383 4.88041 21 5.95824 21 7.34845V19.532C21 20.8671 19.8948 22 18.4693 22H4.53066C3.16169 22 2 20.9222 2 19.532V7.34845C2 6.01336 3.10517 4.88041 4.53066 4.88041H5.45455C5.78732 4.88041 6.05708 5.1435 6.05708 5.46804C6.05708 5.79258 5.78732 6.05567 5.45455 6.05567H4.53066ZM3.20507 10.5216V19.532C3.20507 20.2572 3.81083 20.8247 4.53066 20.8247H18.4693C19.213 20.8247 19.7949 20.234 19.7949 19.532V10.5216H3.20507ZM8.46723 5.46804C8.46723 5.1435 8.737 4.88041 9.06977 4.88041H13.9302C14.263 4.88041 14.5328 5.1435 14.5328 5.46804C14.5328 5.79258 14.263 6.05567 13.9302 6.05567H9.06977C8.737 6.05567 8.46723 5.79258 8.46723 5.46804ZM8.94926 12.5979C8.94926 12.2734 9.21903 12.0103 9.5518 12.0103H14.4031L11.6412 19.0753C11.5227 19.3786 11.1745 19.5307 10.8636 19.4151C10.5526 19.2994 10.3967 18.9599 10.5152 18.6566L12.654 13.1856H9.5518C9.21903 13.1856 8.94926 12.9225 8.94926 12.5979Z" fill="inherit"/>
</svg>
