<svg width="24" height="24" viewBox="0 0 24 24" fill="none" xmlns="http://www.w3.org/2000/svg">
<path fill-rule="evenodd" clip-rule="evenodd" d="M9.38469 2H14.2682V4.63246C15.2227 4.98777 16.0983 5.54307 16.8185 6.2632L18.8385 4.97102L21 8.52201L18.8771 9.91308C19.0359 10.5317 19.1138 11.1886 19.1138 11.8406C19.1138 12.1707 18.8595 12.4382 18.5459 12.4382C18.2323 12.4382 17.9781 12.1707 17.9781 11.8406C17.9781 11.144 17.8732 10.4551 17.6697 9.8483L17.518 9.39575L19.4232 8.14731L18.4805 6.5987L16.6245 7.786L16.3095 7.42287C15.5892 6.5926 14.6215 5.97147 13.542 5.64164L13.1325 5.51652V3.19522H10.5204V5.55379L10.1139 5.68056C9.17159 5.97438 8.30559 6.48685 7.61799 7.1743L7.30497 7.48726L5.5377 6.37132L4.66862 7.9599L6.34552 8.99576L6.16415 9.47294C5.88474 10.2081 5.71264 11.0094 5.71264 11.8805C5.71264 12.598 5.84914 13.2874 6.05883 13.9127L6.20736 14.3556L4.56394 15.4835L5.50289 17.026L7.10518 15.9223C7.36758 15.7415 7.71953 15.8189 7.89128 16.095C8.06304 16.3712 7.98955 16.7416 7.72715 16.9223L5.16526 18.6871L3 15.13L4.85068 13.8598C4.68318 13.2478 4.57695 12.5806 4.57695 11.8805C4.57695 11.0316 4.71416 10.2423 4.94164 9.51445L3.12246 8.3907L5.13045 4.72031L7.16135 6.00273C7.81673 5.42719 8.57531 4.97939 9.38469 4.67442V2ZM11.8454 8.93227C10.4554 8.93227 9.34684 10.099 9.34684 11.5618C9.34684 12.4535 9.80064 13.2402 10.4719 13.7448C10.7271 13.9366 10.7862 14.3099 10.6039 14.5784C10.4216 14.847 10.067 14.9092 9.81177 14.7174C8.89304 14.0267 8.21115 12.901 8.21115 11.5618C8.21115 9.43887 9.82821 7.73705 11.8454 7.73705C13.8625 7.73705 15.4796 9.43887 15.4796 11.5618C15.4796 12.7918 14.8984 13.9248 14.0372 14.5927C13.7847 14.7884 13.4292 14.7318 13.2432 14.4661C13.0571 14.2003 13.111 13.8262 13.3635 13.6304C13.9408 13.1828 14.3439 12.4034 14.3439 11.5618C14.3439 10.099 13.2353 8.93227 11.8454 8.93227ZM18.3995 13.8588L20.3152 15.9253C20.5342 16.1615 20.5298 16.5399 20.3053 16.7704C20.0808 17.0009 19.7213 16.9962 19.5023 16.76L18.3895 15.5596L14.7981 19.3392L12.2618 16.6698L7.36342 21.825C7.14166 22.0583 6.78212 22.0583 6.56037 21.825C6.33861 21.5916 6.33861 21.2132 6.56037 20.9798L12.2618 14.9796L14.7981 17.6489L18.3995 13.8588Z" fill="inherit"/>
</svg>
