<svg width="24" height="24" viewBox="0 0 24 24" fill="none" xmlns="http://www.w3.org/2000/svg">
<path fill-rule="evenodd" clip-rule="evenodd" d="M2.48651 3.52285C2.4859 3.5244 2.48504 3.52735 2.48504 3.53232V19.4677C2.48504 19.4727 2.4859 19.4756 2.48651 19.4771C2.48716 19.4788 2.48796 19.48 2.48879 19.4809C2.48962 19.4818 2.49072 19.4826 2.49229 19.4833C2.49375 19.4839 2.49653 19.4848 2.50121 19.4848H21.4826C21.4905 19.4848 21.4977 19.4821 21.5047 19.4753C21.5098 19.4703 21.5131 19.4647 21.515 19.4599V3.53232C21.515 3.52735 21.5141 3.5244 21.5135 3.52285C21.5128 3.52118 21.512 3.52001 21.5112 3.51913C21.5104 3.51825 21.5093 3.5174 21.5077 3.51671C21.5063 3.51606 21.5035 3.51515 21.4988 3.51515H2.50121C2.49653 3.51515 2.49375 3.51606 2.49229 3.51671C2.49072 3.5174 2.48962 3.51825 2.48879 3.51913C2.48796 3.52001 2.48716 3.52118 2.48651 3.52285ZM2 3.53232C2 3.23552 2.22176 3 2.50121 3H21.4988C21.7782 3 22 3.23552 22 3.53232V19.5009L21.9981 19.5168C21.9678 19.7745 21.7584 20 21.4826 20H2.50121C2.22176 20 2 19.7645 2 19.4677V3.53232ZM9.16249 5.76465C9.29643 5.76465 9.40501 5.87997 9.40501 6.02222V7.01818C9.40501 7.16044 9.29643 7.27576 9.16249 7.27576C9.02855 7.27576 8.91997 7.16044 8.91997 7.01818V6.02222C8.91997 5.87997 9.02855 5.76465 9.16249 5.76465ZM14.7405 5.76465C14.8744 5.76465 14.983 5.87997 14.983 6.02222V7.01818C14.983 7.16044 14.8744 7.27576 14.7405 7.27576C14.6066 7.27576 14.498 7.16044 14.498 7.01818V6.02222C14.498 5.87997 14.6066 5.76465 14.7405 5.76465ZM14.7405 8.01414C14.8744 8.01414 14.983 8.12946 14.983 8.27172V9.26768C14.983 9.40993 14.8744 9.52525 14.7405 9.52525C14.6066 9.52525 14.498 9.40993 14.498 9.26768V8.27172C14.498 8.12946 14.6066 8.01414 14.7405 8.01414ZM9.16249 8.20303C9.29643 8.20303 9.40501 8.31835 9.40501 8.46061V9.45657C9.40501 9.59882 9.29643 9.71414 9.16249 9.71414C9.02855 9.71414 8.91997 9.59882 8.91997 9.45657V8.46061C8.91997 8.31835 9.02855 8.20303 9.16249 8.20303ZM19.4229 8.91383C19.5176 9.01442 19.5176 9.1775 19.4229 9.27809L16.228 12.6713L14.2716 10.5936L10.2619 14.8521L7.86904 12.3107L5.48596 14.8417C5.39125 14.9423 5.23769 14.9423 5.14298 14.8417C5.04827 14.7411 5.04827 14.5781 5.14298 14.4775L7.86904 11.5822L10.2619 14.1236L14.2716 9.86503L16.228 11.9428L19.0799 8.91383C19.1746 8.81324 19.3282 8.81324 19.4229 8.91383ZM9.16249 10.4182C9.29643 10.4182 9.40501 10.5335 9.40501 10.6758V11.6717C9.40501 11.814 9.29643 11.9293 9.16249 11.9293C9.02855 11.9293 8.91997 11.814 8.91997 11.6717V10.6758C8.91997 10.5335 9.02855 10.4182 9.16249 10.4182ZM14.7405 12.1354C14.8744 12.1354 14.983 12.2507 14.983 12.3929V13.3889C14.983 13.5311 14.8744 13.6465 14.7405 13.6465C14.6066 13.6465 14.498 13.5311 14.498 13.3889V12.3929C14.498 12.2507 14.6066 12.1354 14.7405 12.1354ZM14.7405 14.5737C14.8744 14.5737 14.983 14.6891 14.983 14.8313V15.8273C14.983 15.9695 14.8744 16.0848 14.7405 16.0848C14.6066 16.0848 14.498 15.9695 14.498 15.8273V14.8313C14.498 14.6891 14.6066 14.5737 14.7405 14.5737ZM9.16249 14.6081C9.29643 14.6081 9.40501 14.7234 9.40501 14.8657V15.8616C9.40501 16.0039 9.29643 16.1192 9.16249 16.1192C9.02855 16.1192 8.91997 16.0039 8.91997 15.8616V14.8657C8.91997 14.7234 9.02855 14.6081 9.16249 14.6081ZM9.16249 16.9949C9.29643 16.9949 9.40501 17.1103 9.40501 17.2525V18.2485C9.40501 18.3907 9.29643 18.5061 9.16249 18.5061C9.02855 18.5061 8.91997 18.3907 8.91997 18.2485V17.2525C8.91997 17.1103 9.02855 16.9949 9.16249 16.9949ZM14.7405 16.9949C14.8744 16.9949 14.983 17.1103 14.983 17.2525V18.2485C14.983 18.3907 14.8744 18.5061 14.7405 18.5061C14.6066 18.5061 14.498 18.3907 14.498 18.2485V17.2525C14.498 17.1103 14.6066 16.9949 14.7405 16.9949Z" fill="white"/>
</svg>
