<svg width="24" height="24" viewBox="0 0 24 24" fill="none" xmlns="http://www.w3.org/2000/svg">
<path fill-rule="evenodd" clip-rule="evenodd" d="M16.1711 2.00646C16.7241 1.96456 17.2944 2.12156 17.7662 2.62204L21.6116 6.70055C21.9485 7.05787 22.4912 7.71851 22.7869 8.48831C22.937 8.87918 23.0393 9.33873 22.9855 9.82129C22.9303 10.3168 22.7158 10.7842 22.3182 11.1779L20.1982 13.4265L20.0672 11.918L20.0671 11.9173L20.067 11.9164L20.0668 11.9147C20.0665 11.9108 20.0658 11.9038 20.0646 11.8937C20.0624 11.8736 20.0586 11.8416 20.0528 11.7995C20.0411 11.715 20.0214 11.5908 19.9903 11.4404C19.9275 11.1364 19.8211 10.7409 19.6481 10.3536C19.3001 9.57431 18.7567 8.96015 17.8328 8.95827L17.6929 8.96024C17.5993 8.96154 17.4632 8.9634 17.2933 8.96562C16.9534 8.97007 16.4778 8.97601 15.9351 8.98194C14.859 8.99371 13.5165 9.0055 12.4439 9.00569C12.0021 9.0446 11.6665 9.23921 11.4433 9.56211C10.7028 10.6803 9.99135 11.6048 9.27089 12.1643C8.90285 12.4501 8.50275 12.6646 8.0685 12.7435C7.62285 12.8245 7.18297 12.7547 6.76165 12.5395L6.75714 12.5372L6.75266 12.5349C6.38214 12.3384 6.09043 12.0608 5.90396 11.7013C5.7193 11.3453 5.66496 10.9614 5.68432 10.596C5.72145 9.89501 6.03422 9.17152 6.3844 8.55132C7.35811 6.74765 8.90243 5.37569 10.6627 4.5179L10.6693 4.51467L10.676 4.51159C12.0136 3.8968 13.7345 3.05356 14.6904 2.50055L14.7009 2.49447L14.7116 2.48879C15.1414 2.26087 15.6488 2.04603 16.1711 2.00646ZM17.8193 7.5356L17.8239 7.53553H17.8285C19.4954 7.53553 20.4041 8.72281 20.8604 9.7445C20.966 9.98097 21.0513 10.2157 21.1202 10.4364L21.388 10.1525L21.3978 10.1428C21.5748 9.9696 21.6364 9.80657 21.6534 9.65432C21.6723 9.48479 21.6404 9.27447 21.5446 9.02511C21.3484 8.51445 20.9522 8.0132 20.6631 7.70657L16.8177 3.62807C16.6636 3.46461 16.4961 3.40819 16.2666 3.42558C16.0088 3.44511 15.6925 3.56027 15.3218 3.75587C14.3103 4.33993 12.5557 5.19808 11.2162 5.81388C9.67258 6.56764 8.35941 7.7531 7.54551 9.26378L7.54197 9.27035L7.5383 9.27684C7.21926 9.84081 7.04224 10.3241 7.02361 10.6758C7.01502 10.838 7.04173 10.9432 7.07923 11.0155C7.11461 11.0837 7.18522 11.1726 7.34806 11.2599C7.52848 11.3511 7.68534 11.3697 7.84202 11.3412C8.0114 11.3104 8.22053 11.2167 8.47847 11.0163C9.00883 10.6045 9.61533 9.84755 10.349 8.73919L10.3523 8.73435L10.3555 8.72956C10.8441 8.01704 11.5732 7.64516 12.3704 7.58476L12.3943 7.58296H12.4182C13.4877 7.58296 14.8375 7.57113 15.9213 7.55928C16.4629 7.55336 16.9375 7.54744 17.2767 7.543C17.4463 7.54077 17.582 7.53892 17.6753 7.53763L17.8193 7.5356ZM16.1371 10.049L15.9662 10.0453C15.8533 10.0429 15.6922 10.0395 15.4988 10.0358C15.1123 10.0284 14.5963 10.0195 14.0799 10.0135C13.5646 10.0076 13.0445 10.0045 12.6513 10.0091C12.4563 10.0113 12.2837 10.0155 12.1562 10.0228C12.0955 10.0263 12.0278 10.0314 11.9681 10.0404C11.9435 10.0441 11.8878 10.0529 11.826 10.0736C11.7998 10.0824 11.7273 10.1075 11.6481 10.1632C11.5942 10.2012 11.3451 10.3884 11.3451 10.7604C11.3451 11.6528 10.9482 12.5449 10.2987 13.2236C9.64909 13.9024 8.7946 14.3172 7.94688 14.3172C6.62762 14.3172 5.52119 13.4669 5.0359 12.1999L4.72649 11.3921L4.04248 11.8758C4.02138 11.8907 3.99561 11.9077 3.95719 11.9326C3.95356 11.9349 3.9498 11.9373 3.94593 11.9399C3.91243 11.9615 3.87046 11.9887 3.82827 12.0175C3.73459 12.0814 3.61001 12.1727 3.49313 12.2966L2.86714 12.9606C1.71095 14.1869 1.71095 16.2023 2.86714 17.4286L6.31007 21.0803C7.36856 22.2029 9.05064 22.2978 10.2145 21.3649C10.5151 21.4738 10.8341 21.5258 11.1662 21.5258H16.04C17.7071 21.5258 19.0358 20.1165 19.0358 18.3483V13.238C19.0867 11.4643 17.7563 10.0535 16.1371 10.049ZM16.1148 11.4716L16.1221 11.4718H16.1294C17.0067 11.4718 17.7263 12.234 17.6948 13.202L17.6944 13.2142V18.3483C17.6944 19.3307 16.9663 20.103 16.04 20.103H11.1662C10.8667 20.103 10.6261 20.0336 10.4259 19.9122L9.98109 19.6426L9.57414 20.0743C8.94181 20.7449 7.89093 20.7449 7.25859 20.0743L3.81566 16.4226C3.18332 15.7519 3.18332 14.6373 3.81566 13.9666L4.19764 13.5615C4.99761 14.8768 6.35924 15.74 7.94688 15.74C9.20069 15.74 10.3807 15.1352 11.2401 14.2371C11.9537 13.4915 12.4793 12.509 12.6372 11.4321C12.6467 11.4319 12.6562 11.4318 12.6658 11.4317C13.0439 11.4273 13.5522 11.4302 14.0653 11.4362C14.5773 11.4421 15.0898 11.4509 15.4745 11.4583C15.6668 11.462 15.827 11.4653 15.9391 11.4677L16.1148 11.4716Z" fill="white"/>
</svg>
