<svg width="49" height="48" viewBox="0 0 49 48" fill="none" xmlns="http://www.w3.org/2000/svg">
<path d="M24.5036 15.7956C19.9632 15.7956 16.301 19.4587 16.301 24C16.301 28.5413 19.9632 32.2044 24.5036 32.2044C29.0439 32.2044 32.7061 28.5413 32.7061 24C32.7061 19.4587 29.0439 15.7956 24.5036 15.7956ZM24.5036 29.3339C21.5695 29.3339 19.1708 26.9419 19.1708 24C19.1708 21.0581 21.5624 18.6661 24.5036 18.6661C27.4448 18.6661 29.8363 21.0581 29.8363 24C29.8363 26.9419 27.4376 29.3339 24.5036 29.3339ZM34.9549 15.46C34.9549 16.5239 34.0982 17.3736 33.0417 17.3736C31.978 17.3736 31.1284 16.5168 31.1284 15.46C31.1284 14.4032 31.9851 13.5464 33.0417 13.5464C34.0982 13.5464 34.9549 14.4032 34.9549 15.46ZM40.3876 17.4022C40.2662 14.8388 39.6808 12.5681 37.8033 10.6973C35.9329 8.82651 33.6627 8.24099 31.0999 8.11246C28.4585 7.96251 20.5415 7.96251 17.9001 8.11246C15.3444 8.23385 13.0742 8.81937 11.1967 10.6902C9.31919 12.561 8.74094 14.8316 8.61244 17.3951C8.46252 20.037 8.46252 27.9558 8.61244 30.5978C8.7338 33.1612 9.31919 35.4319 11.1967 37.3027C13.0742 39.1735 15.3373 39.759 17.9001 39.8875C20.5415 40.0375 28.4585 40.0375 31.0999 39.8875C33.6627 39.7661 35.9329 39.1806 37.8033 37.3027C39.6737 35.4319 40.2591 33.1612 40.3876 30.5978C40.5375 27.9558 40.5375 20.0442 40.3876 17.4022ZM36.9752 33.4326C36.4184 34.8321 35.3404 35.9103 33.934 36.4744C31.8281 37.3098 26.8308 37.117 24.5036 37.117C22.1763 37.117 17.1719 37.3027 15.0731 36.4744C13.6739 35.9174 12.5959 34.8392 12.032 33.4326C11.1967 31.3261 11.3895 26.3278 11.3895 24C11.3895 21.6722 11.2038 16.6667 12.032 14.5674C12.5888 13.1679 13.6668 12.0897 15.0731 11.5256C17.1791 10.6902 22.1763 10.883 24.5036 10.883C26.8308 10.883 31.8352 10.6973 33.934 11.5256C35.3332 12.0826 36.4112 13.1608 36.9752 14.5674C37.8104 16.6739 37.6177 21.6722 37.6177 24C37.6177 26.3278 37.8104 31.3333 36.9752 33.4326Z" fill="inherit"/>
</svg>
