<svg width="24" height="24" viewBox="0 0 24 24" fill="none" xmlns="http://www.w3.org/2000/svg">
<path fill-rule="evenodd" clip-rule="evenodd" d="M3.27119 4.18329V16.9629H20.7288V4.18329H3.27119ZM2 4.10441C2 3.50155 2.5388 3 3.18644 3H20.8136C21.4612 3 22 3.50155 22 4.10441V17.0418C22 17.6446 21.4612 18.1462 20.8136 18.1462H12.8051V18.8167H17.2966C17.6476 18.8167 17.9322 19.0816 17.9322 19.4084C17.9322 19.7351 17.6476 20 17.2966 20H7C6.64897 20 6.36441 19.7351 6.36441 19.4084C6.36441 19.0816 6.64897 18.8167 7 18.8167H11.5339V18.1462H3.22346C2.48556 18.2139 2 17.6158 2 17.0418V4.10441ZM15.8136 8.04031L17.746 9.83918C17.9943 10.0702 17.9943 10.4448 17.746 10.6759C17.4978 10.907 17.0954 10.907 16.8472 10.6759L15.8136 9.71375L12.6356 12.672L10.4746 10.6604L6.94096 13.9497C6.69274 14.1807 6.29031 14.1807 6.04209 13.9497C5.79388 13.7186 5.79388 13.344 6.04209 13.113L10.4746 8.98695L12.6356 10.9986L15.8136 8.04031Z" fill="inherit"/>
</svg>
