<svg width="24" height="24" viewBox="0 0 24 24" fill="none" xmlns="http://www.w3.org/2000/svg">
<path fill-rule="evenodd" clip-rule="evenodd" d="M4.57627 4.22727C3.82288 4.22727 3.20763 4.85254 3.20763 5.61818V18.3818C3.20763 19.1475 3.82288 19.7727 4.57627 19.7727H18.3835C18.9972 19.7727 19.5273 19.3503 19.7178 18.7613C19.7184 18.7455 19.719 18.7264 19.7197 18.7037C19.722 18.6186 19.7245 18.4958 19.727 18.3392C19.7319 18.0268 19.7367 17.5877 19.7415 17.0633C19.7509 16.0148 19.7597 14.6299 19.7672 13.2443C19.7823 10.4723 19.7924 7.70252 19.7924 7.62273C19.7924 7.28382 20.0627 7.00909 20.3962 7.00909C20.7297 7.00909 21 7.28382 21 7.62273C21 7.70657 20.9899 10.48 20.9748 13.2511C20.9673 14.6371 20.9585 16.0238 20.949 17.0745C20.9443 17.5996 20.9394 18.0421 20.9344 18.3589C20.9319 18.5169 20.9294 18.6458 20.9268 18.7388C20.9255 18.7848 20.9241 18.8252 20.9225 18.8573C20.9217 18.8729 20.9207 18.8906 20.9193 18.9078C20.9186 18.9163 20.9175 18.9285 20.9159 18.9423L20.9158 18.9427C20.9147 18.9515 20.9109 18.9833 20.9015 19.0216L20.899 19.0315L20.8963 19.0413C20.5871 20.1408 19.6018 21 18.3835 21H4.57627C3.15593 21 2 19.8253 2 18.3818V5.61818C2 4.17473 3.15593 3 4.57627 3H14.9619C16.3822 3 17.5381 4.17473 17.5381 5.61818V16.0091C17.5381 16.348 17.2678 16.6227 16.9343 16.6227C16.6008 16.6227 16.3305 16.348 16.3305 16.0091V5.61818C16.3305 4.85254 15.7153 4.22727 14.9619 4.22727H4.57627ZM5.54237 7.74545C5.54237 7.40655 5.81271 7.13182 6.14619 7.13182H13.5127C13.8462 7.13182 14.1165 7.40655 14.1165 7.74545C14.1165 8.08436 13.8462 8.35909 13.5127 8.35909H6.14619C5.81271 8.35909 5.54237 8.08436 5.54237 7.74545ZM5.54237 11.7545C5.54237 11.4156 5.81271 11.1409 6.14619 11.1409H13.5127C13.8462 11.1409 14.1165 11.4156 14.1165 11.7545C14.1165 12.0934 13.8462 12.3682 13.5127 12.3682H6.14619C5.81271 12.3682 5.54237 12.0934 5.54237 11.7545ZM5.54237 15.8045C5.54237 15.4656 5.81271 15.1909 6.14619 15.1909H13.5127C13.8462 15.1909 14.1165 15.4656 14.1165 15.8045C14.1165 16.1434 13.8462 16.4182 13.5127 16.4182H6.14619C5.81271 16.4182 5.54237 16.1434 5.54237 15.8045Z" fill="inherit"/>
</svg>
