<svg width="24" height="24" viewBox="0 0 24 24" fill="none" xmlns="http://www.w3.org/2000/svg">
<path d="M8.14328 3.42871C7.1203 3.42871 6.13922 3.83509 5.41586 4.55844C4.69251 5.2818 4.28613 6.26288 4.28613 7.28585C4.28613 8.30883 4.69251 9.28991 5.41586 10.0133C6.13922 10.7366 7.1203 11.143 8.14328 11.143C9.16625 11.143 10.1473 10.7366 10.8707 10.0133C11.594 9.28991 12.0004 8.30883 12.0004 7.28585C12.0004 6.26288 11.594 5.2818 10.8707 4.55844C10.1473 3.83509 9.16625 3.42871 8.14328 3.42871ZM5.57185 7.28585C5.57185 6.94817 5.63836 6.61379 5.76759 6.30181C5.89681 5.98983 6.08622 5.70636 6.325 5.46758C6.56378 5.2288 6.84725 5.03939 7.15923 4.91016C7.47121 4.78094 7.80559 4.71443 8.14328 4.71443C8.48096 4.71443 8.81534 4.78094 9.12732 4.91016C9.4393 5.03939 9.72277 5.2288 9.96155 5.46758C10.2003 5.70636 10.3897 5.98983 10.519 6.30181C10.6482 6.61379 10.7147 6.94817 10.7147 7.28585C10.7147 7.96784 10.4438 8.62189 9.96155 9.10413C9.47931 9.58636 8.82526 9.85728 8.14328 9.85728C7.46129 9.85728 6.80724 9.58636 6.325 9.10413C5.84276 8.62189 5.57185 7.96784 5.57185 7.28585Z" fill="white"/>
<path d="M17.1426 5.14307C16.7486 5.14307 16.3585 5.22066 15.9945 5.37143C15.6306 5.52219 15.2998 5.74317 15.0213 6.02175C14.7427 6.30032 14.5217 6.63104 14.3709 6.99502C14.2202 7.35899 14.1426 7.7491 14.1426 8.14307C14.1426 8.53703 14.2202 8.92714 14.3709 9.29112C14.5217 9.65509 14.7427 9.98581 15.0213 10.2644C15.2998 10.543 15.6306 10.7639 15.9945 10.9147C16.3585 11.0655 16.7486 11.1431 17.1426 11.1431C17.9382 11.1431 18.7013 10.827 19.2639 10.2644C19.8265 9.70178 20.1426 8.93872 20.1426 8.14307C20.1426 7.34742 19.8265 6.58436 19.2639 6.02175C18.7013 5.45914 17.9382 5.14307 17.1426 5.14307ZM15.4283 8.14307C15.4283 7.68841 15.6089 7.25237 15.9304 6.93088C16.2519 6.60939 16.6879 6.42878 17.1426 6.42878C17.5972 6.42878 18.0333 6.60939 18.3548 6.93088C18.6763 7.25237 18.8569 7.68841 18.8569 8.14307C18.8569 8.59772 18.6763 9.03376 18.3548 9.35525C18.0333 9.67674 17.5972 9.85735 17.1426 9.85735C16.6879 9.85735 16.2519 9.67674 15.9304 9.35525C15.6089 9.03376 15.4283 8.59772 15.4283 8.14307Z" fill="white"/>
<path d="M3.64244 12.8569C3.13095 12.8569 2.64041 13.0601 2.27873 13.4218C1.91706 13.7835 1.71387 14.274 1.71387 14.7855V15.2406C1.71491 15.31 1.71977 15.3793 1.72844 15.4481C1.74301 15.5792 1.77044 15.7592 1.82272 15.9726C1.96492 16.5353 2.21753 17.0641 2.56587 17.5284C3.43501 18.6881 5.09272 19.7141 8.14244 19.7141C9.45472 19.7141 10.5099 19.5238 11.3542 19.2152C11.2423 18.7896 11.1745 18.3536 11.1519 17.9141C10.4353 18.2184 9.4633 18.4284 8.14244 18.4284C5.40644 18.4284 4.1713 17.5258 3.59444 16.7569C3.34901 16.4299 3.17126 16.0572 3.07158 15.6606C3.03557 15.5178 3.01177 15.3721 3.00044 15.2252L2.99958 15.2098V14.7855C2.99958 14.615 3.06731 14.4515 3.18787 14.3309C3.30843 14.2104 3.47194 14.1426 3.64244 14.1426H12.1324C12.4149 13.6958 12.7511 13.2853 13.1336 12.9204C12.9733 12.8782 12.8082 12.8569 12.6424 12.8569H3.64244Z" fill="white"/>
<path d="M23.1429 17.5714C23.1429 19.0491 22.5559 20.4662 21.511 21.511C20.4662 22.5559 19.0491 23.1429 17.5714 23.1429C16.0938 23.1429 14.6767 22.5559 13.6318 21.511C12.587 20.4662 12 19.0491 12 17.5714C12 16.0938 12.587 14.6767 13.6318 13.6318C14.6767 12.587 16.0938 12 17.5714 12C19.0491 12 20.4662 12.587 21.511 13.6318C22.5559 14.6767 23.1429 16.0938 23.1429 17.5714ZM18 14.1429C18 14.0292 17.9548 13.9202 17.8745 13.8398C17.7941 13.7594 17.6851 13.7143 17.5714 13.7143C17.4578 13.7143 17.3488 13.7594 17.2684 13.8398C17.188 13.9202 17.1429 14.0292 17.1429 14.1429V17.1429H14.1429C14.0292 17.1429 13.9202 17.188 13.8398 17.2684C13.7594 17.3488 13.7143 17.4578 13.7143 17.5714C13.7143 17.6851 13.7594 17.7941 13.8398 17.8745C13.9202 17.9548 14.0292 18 14.1429 18H17.1429V21C17.1429 21.1137 17.188 21.2227 17.2684 21.303C17.3488 21.3834 17.4578 21.4286 17.5714 21.4286C17.6851 21.4286 17.7941 21.3834 17.8745 21.303C17.9548 21.2227 18 21.1137 18 21V18H21C21.1137 18 21.2227 17.9548 21.303 17.8745C21.3834 17.7941 21.4286 17.6851 21.4286 17.5714C21.4286 17.4578 21.3834 17.3488 21.303 17.2684C21.2227 17.188 21.1137 17.1429 21 17.1429H18V14.1429Z" fill="white"/>
</svg>
