<svg width="24" height="24" viewBox="0 0 24 24" fill="none" xmlns="http://www.w3.org/2000/svg">
<path d="M8 11.0004C8.69224 11.0004 9.36893 10.7951 9.9445 10.4105C10.5201 10.0259 10.9687 9.47931 11.2336 8.83977C11.4985 8.20022 11.5678 7.49649 11.4327 6.81756C11.2977 6.13862 10.9644 5.51498 10.4749 5.0255C9.98539 4.53602 9.36175 4.20267 8.68282 4.06763C8.00388 3.93258 7.30015 4.00189 6.66061 4.2668C6.02107 4.5317 5.47444 4.98031 5.08986 5.55588C4.70527 6.13145 4.5 6.80814 4.5 7.50037C4.5 8.42863 4.86875 9.31887 5.52513 9.97525C6.1815 10.6316 7.07174 11.0004 8 11.0004ZM8 6.00037C8.29667 6.00037 8.58668 6.08835 8.83336 6.25317C9.08003 6.41799 9.27229 6.65226 9.38582 6.92635C9.49935 7.20044 9.52906 7.50204 9.47118 7.79301C9.4133 8.08398 9.27044 8.35126 9.06066 8.56103C8.85088 8.77081 8.58361 8.91367 8.29264 8.97155C8.00167 9.02943 7.70006 8.99972 7.42598 8.88619C7.15189 8.77266 6.91762 8.5804 6.7528 8.33373C6.58797 8.08706 6.5 7.79705 6.5 7.50037C6.5 7.10255 6.65804 6.72102 6.93934 6.43971C7.22065 6.15841 7.60218 6.00037 8 6.00037ZM16 14.0004C15.3078 14.0004 14.6311 14.2056 14.0555 14.5902C13.4799 14.9748 13.0313 15.5214 12.7664 16.161C12.5015 16.8005 12.4322 17.5043 12.5673 18.1832C12.7023 18.8621 13.0356 19.4858 13.5251 19.9752C14.0146 20.4647 14.6383 20.7981 15.3172 20.9331C15.9961 21.0682 16.6999 20.9989 17.3394 20.734C17.9789 20.469 18.5256 20.0204 18.9101 19.4449C19.2947 18.8693 19.5 18.1926 19.5 17.5004C19.5 16.5721 19.1313 15.6819 18.4749 15.0255C17.8185 14.3691 16.9283 14.0004 16 14.0004ZM16 19.0004C15.7033 19.0004 15.4133 18.9124 15.1666 18.7476C14.92 18.5828 14.7277 18.3485 14.6142 18.0744C14.5007 17.8003 14.4709 17.4987 14.5288 17.2077C14.5867 16.9168 14.7296 16.6495 14.9393 16.4397C15.1491 16.2299 15.4164 16.0871 15.7074 16.0292C15.9983 15.9713 16.2999 16.001 16.574 16.1146C16.8481 16.2281 17.0824 16.4203 17.2472 16.667C17.412 16.9137 17.5 17.2037 17.5 17.5004C17.5 17.8982 17.342 18.2797 17.0607 18.561C16.7794 18.8423 16.3978 19.0004 16 19.0004ZM19.74 4.26037C19.6573 4.17753 19.5591 4.1118 19.451 4.06695C19.3429 4.02211 19.227 3.99902 19.11 3.99902C18.993 3.99902 18.8771 4.02211 18.769 4.06695C18.6609 4.1118 18.5627 4.17753 18.48 4.26037L4.26 18.4804C4.095 18.6488 4.00179 18.8746 4 19.1104C3.99973 19.2866 4.05179 19.4589 4.14956 19.6055C4.24734 19.7521 4.38644 19.8664 4.54923 19.9339C4.71202 20.0014 4.89118 20.019 5.064 19.9846C5.23682 19.9501 5.39553 19.8651 5.52 19.7404L19.74 5.52037C19.8228 5.43771 19.8886 5.33951 19.9334 5.2314C19.9783 5.1233 20.0014 5.00741 20.0014 4.89037C20.0014 4.77334 19.9783 4.65745 19.9334 4.54934C19.8886 4.44124 19.8228 4.34304 19.74 4.26037Z" fill="black"/>
</svg>
